<?xml version='1.0' encoding='utf-8'?>
<svg xmlns="http://www.w3.org/2000/svg" data-name="Layer 1" viewBox="0 0 2853.9 4192"> <defs> <style>.cls-1{fill:#2b0c0b;}.cls-2{fill:#fcfcfc;}.cls-3{fill:#f89780;}.cls-4{fill:#f6ebd7;}.cls-5{fill:#ece2bc;}</style> </defs> <path class="cls-1" transform="translate(-823.07 -154)" d="m1915 612.64c-5.62 14.31-9.57 25.24-11.74 31.45q5.41-15.87 11.74-31.45z"/> <path class="cls-1" transform="translate(-823.07 -154)" d="m1901.9 647.74c0.32-0.93 0.74-2.15 1.27-3.65-0.42 1.22-0.86 2.43-1.27 3.65z"/> <path class="cls-1" transform="translate(-823.07 -154)" d="m1971.3 575.68c-6.76 6.19-11 13.17-14.12 22.4-9.59 28.13-16.56 56.73-22 85.62 5.2-41.49 17.74-80.59 32.25-114.44a74.89 74.89 0 0 0 3.87 6.42z"/> <path class="cls-1" transform="translate(-823.07 -154)" d="m1434 3340.1c-6.6-13-17.94-5.82-28.24-2.81-8.91 2.6-24.65 1-21.85 14.32 3.71 17.74 15.19 2 23.27 1.38 6.23-0.45 12.43-1.15 18.61-2 4.74-0.58 8.7-2.32 8.21-10.89zm733.09-147c0.05-1.93 0.17-3.8 0.38-5.58 0.22-2.28-0.62 1.95-0.47 5.55zm108-238.56v0.12a1.47 1.47 0 0 1 0.06-0.14zm0.09 0s0.21-0.29 0.17-0.43c-0.13 0.09-0.19 0.24-0.24 0.38zm0 0s0.21-0.29 0.17-0.43c-0.13 0.09-0.19 0.24-0.24 0.38zm-0.06 0.14a1.47 1.47 0 0 1 0.06-0.14h-0.09zm-108 238.44c0.05-1.93 0.17-3.8 0.38-5.58 0.19-2.3-0.65 1.93-0.5 5.53zm-761.41 144.17c-8.91 2.6-24.65 1-21.85 14.32 3.71 17.74 15.19 2 23.27 1.38 6.23-0.45 12.43-1.15 18.61-2 4.79-0.62 8.75-2.36 8.21-10.93-6.6-12.98-17.95-5.78-28.24-2.77zm2263.1-205.77c-12.35-95.93-53.44-183.45-87.53-273-16-42-39.27-77.68-64.78-114-37.33-53.19-82.3-98.75-126.86-145.06-13.7-14.25-14-30-1.2-42.89 40.43-40.65 72.26-88.17 106.84-133.33 21.18-27.68 34.72-60 24-97.66-14.15-49.43-27.24-99.88-34.66-150.13-9.23-62.67-12.89-126.72-15.53-190.56-2.46-59.75-12.26-119-24.4-178.07-16.63-80.86-43.45-157.6-76.31-232.89a370 370 0 0 0-53.59-87.92c-16.38-19.8-12.44-30 4.9-42.39 2.95-2.12 5.44-4.89 8.15-7.34 19.31-71.4-9.45-126.26-59.92-173.5-116.94-109.44-207.09-235.5-250-392.48-23.88-87.27-70.25-163.41-132.29-228.5-67.65-71-131.89-144.8-194.67-220-6.85-8.2-13.79-16.51-27.61-17 79.29 96.06 144.84 202.21 234.23 295.65-177.38 61.22-299.89-7.12-396.19-154.26-2.42 73.28 93.53 163 215.39 209-30.64 1-53.29 16.72-78.62 24.86-145.62 46.82-281.58-24.71-354.43-130.25-47.17-68.3-75.38-144.7-75.9-229.34-0.07-12.8-8.05-24.29-5.78-37.61 0.78-4.6-1.81-9.46-7.6-9.09-4.84 0.3-8.38 3.63-9.5 8.57-14.87 65.78-43 127.15-63.63 191-28.76 89-61.43 176.91-75 269.3a582.19 582.19 0 0 0-6.45 83.91c0 23.36 3.19 46.39 6.45 70.79 2.26 16.89 4.52 34.44 5.72 53.24-1.92-1.1-3.83-2.2-5.72-3.32-47.45-27.72-87.27-56.74-107.49-106-22.16-53.93-23.51-110.12-16.78-167.52 3.53-30.24 7.53-60.32 13.14-90.06 5.2-41.49 17.74-80.59 32.25-114.44-7.68-14.32-10.07-30-9.91-46.42a865.16 865.16 0 0 0-42.24 89c-0.1 0.25-0.2 0.51-0.29 0.76-7 17.75-11.37 30.3-13 35.1-0.49 1.42-0.73 2.17-0.73 2.17a596.69 596.69 0 0 0-26.13 110.58c-13.53 99.78-1.18 193.39 48.73 281.27 9.18 16.16 8.63 19.38-12.3 27.63-27.76 10.92-34.55-1.85-51.61-17.06-42.45-37.83-82.74-78.95-134.72-105.44-27.25-13.9-49.8-35.78-84-35.54-26.26 0.17-44 8-49.46 33.65-12.08 56.69-13.26 114.62-17.53 172.21-4.47 60.62-3.06 120.89 1.18 181.57 1.22 17.65-7.32 44.92-31.75 54.81-28.82 11.68-49.14 35.77-62.39 59.75-21.36 38.65-45 76.54-60 119.13-24 67.92-40 136.9-49.63 208.34-6.84 50.7-10.9 100.83-8 151.68 0.55 9.83 0.46 20.42 4.11 29.22 19 45.9-11.33 77-32.28 110.66-27.34 43.85-44.61 91.78-56.8 141.34-13.89 56.47-26.83 113.18-28.91 172-1 29.7 6.7 56.84 16.46 83.39 10.46 28.52 9.15 52.26-11 76.46-17 20.48-26.63 46.28-39.53 69.56-18.71 33.84-35.52 69.18-53.49 103.36s-33.63 69.35-49.7 104.27c-1.66 3.6-3.32 7.22-5 10.82-23.66 51.57-46.84 103.31-67.57 156.37-26.13 66.88-51.34 133.66-71.53 202.56-13.85 47.23-36.69 235.27-42.12 273.6-12.15 85.57-5.25 171.39 12.21 255.38 5.72 27.51 1.34 46.59-15.62 64.18-24.85 25.8-41 58.2-54 89.09-34 80.89-45 165.49-45.77 255.38-1.13 128.27 135.21 254.06 197.37 254 76.28-0.1 152.58 0.86 228.88 0.88 55.24 0 110.62-3.33 165.68-0.39 62.67 3.33 125.16-0.44 187.7 0.08 72.09 0.6 144.32 0.48 216.51-1.3 49.21-1.21 99.16 0.58 148.77 1.08 81.49 0.82 163 0.63 244.48 0.62 65.73 0 131.46-0.52 197.21-0.61 54.37-0.08 108.76-0.62 163.13 0.38 62.35 1.16 124.68-0.48 187.05 0.82 48.27 1 96.7-0.44 145.08-0.28 43.47 0.14 323.49-246.73 329.87-253.48q62.34-65.9 125.66-130.89c2.21-2.3 94.88-108.42 135.21-162.33 24.34-32.57 50-66.2 64.46-103.48 14.11-36.6 150.94-235.11 108.63-563.64zm-1282.8-189.09c3.7 9.13 7.19 59.07 7.19 59.07h-1.2c-0.06 59.44-14.38 116.91-26.69 174.82-15.75 73.94-46.31 142.05-76.55 210.66-15.06 34.12-38.09 62.7-55.59 94.84-6.79 12.5-18.45 22.91 0.64 43.51 15.66 16.92 13.84 52.67 14.59 80.22 1.82 66.49-6.16 132.73-26.17 195.91-24.09 76-58.15 148.62-109.13 210.71-35.25 42.93-70.36 87.84-125.44 108.86-8.13 3.1-15.39 10-12 18.63 3.23 8.22 13.27 3.66 19.73 2.9 37.23-4.42 74.1-9.07 112-5.27 52 5.24 98.19 41.09 99.05 103.07 0.32 23.24-12.12 41.52-32.06 53.86-8.39 5.21-18.43 5.19-26.07 0.27-11.26-7.28 0.61-14.75 3-21 18.55-47.59-5.14-108-51.31-128.56-4.39-2-8.57-3-14.75 1.51 27.52 20.89 43.87 47.21 46.65 82.57 4.28 54.07-14.67 72.37-67.81 69.53-42.11-2.24-84.5-0.56-126.68-4.11-1.37-1.27-2.72-2.53-4.09-3.78 16.41-36.15 13.4-69.14-6-105.23s-55.5-47.68-85.1-71.53c58.41-45.65 82.48-111 99.44-177.69 18.08-71.2 14.15-143.14-4.85-215.56-10.31-39.24-21.81-78-40-113.08-17.74-34.2-32.8-71.13-63.22-98.62-18.25-16.51-31.9-38.44-46-59.06-8.7-12.73-22.59-18.37-33.64-27-56.41-44.37-118.59-77.88-191.86-85.08a118.5 118.5 0 0 0-21.72 0.18c-8.19 0.71-13.49 6.33-14.94 13.75-2.42 12.42 9.86 9.78 15 10.79 62.63 12.6 118.92 38.29 172 74 57.16 38.55 94.68 91.24 129.11 149.59 27.76 47.06 45.46 97.09 55.82 148.61 12.78 63.47 12.5 127.78-3.7 192.94-15.49 62.29-44.21 113.42-87.18 159.75-22.2 24-50.61 14.87-75.38 23.43-27.63 9.54-59 9.46-79.81 35-2.15 2.64-10 1.8-8.41 7.74 1.53 5.74 7.36 8.52 13.29 7.13a583 583 0 0 1 104.4-14c58.58-2.83 120.41 13.33 139.55 68.44 7.83 22.55 6 43.68-4.22 63.55-10.74 20.85-29.48 25.81-52.28 17.62 20.38-39.51 13.82-75.52-14.33-108.45-6.05-7.06-13.82-11.72-22.49-14.83-4.33-1.55-9.51-3.2-12.51 1.29-3.26 4.91 1.2 7 4.79 10.29 26 23.87 31.53 55.27 30.52 88.51-0.5 16.54-22.32 30-45.5 28.42-82.54-5.77-165.18-4.16-247.8-3.22-6.4 0.07-12.81-0.78-19.21-1.2-72.9-4.45-138.51-24.42-180.72-89.77-25.91-40.12-26.17-86.23-22.28-131.26 3.81-44.28 1.68-49.54-37.54-64.43-105.54-40.09-184.72-110.86-238.76-209.86 0.79-25.16 21.08-22.07 36.91-25.49 2.4 2.91 6.32 6.14 8.65 2.46 2.86-4.51-2.87-4.83-5.77-6.09 2.69-10 14.94-17.68 19.08-15.9 18.32 7.92 22.2-11.7 22-15.62-0.73-17.34 12.84-22 21.82-30.84 1.27 0.95 3.15 3 3.68 2.66 3.49-2 1.18-3.9-0.56-5.68-1.62-20.88 20.26-31.05 22.18-51.68 2.33-25 10.45-49.57 16.07-74.32-5.57-13.45 4.38-25.92 1.34-40.05-15.39-71.68-29.65-142.47-75.88-203.84-29.56-39.24-63.84-56.67-110.84-54.28 4.11-47.65 14-93.85 34.48-137.39 25.58 12.08 50.06-1 74.42-4.73 44.41-6.69 76-39.28 110-64.55 25.27-18.76 35.22-48.64 45-80.67 9.22-30.39 13.25-57.28 10-87.82-1.52-14.12-13.46-22.86-14.73-33.55-5.94-49.79-42.3-70.85-80.05-91.59-6-21.43 11.83-35.52 19-51.5 25.74-57.08 56.78-111.77 85.88-167.33 2.25-4.28 5.64-7.07 11-6 5.53-12.73 2-29.68 17.65-38.37 29.61 42.51 64.65 79.59 102.72 113.9 40 34.46 85.52 58.24 135.48 75.25 15.91 5.43 32.12-1.62 46.71 6.49 19.84 2.79 29.13-17.26 46.13-21.62 5.2-1.34 9.17-2.83 14.11-1-0.16-7.57 4.62-10.42 10.75-14 19.41-11.19 38.32-23.3 57.07-35.57 10.36-6.77 18.29-12 24.87-15.48l-27.31-60.27 210.77 169.65-1.66 1.39 2.3 1.7c40.16 29.83 80.83 59 122.67 86.47 52.12 34.28 105.6 66.86 164.63 86.7 55.18 18.54 113.62 17.47 174.85 11.88a34.34 34.34 0 0 0-7.21 17.25zm-110.78 11.63c-0.06 0.14-0.12 0.29-0.17 0.43s0.21-0.29 0.17-0.43zm-0.23 0.57a1.47 1.47 0 0 1 0.06-0.14h-0.09zm-108 238.44c0.05-1.93 0.17-3.8 0.38-5.58 0.26-2.25-0.58 1.98-0.43 5.58zm-761.34 144.22c-8.91 2.6-24.65 1-21.85 14.32 3.71 17.74 15.19 2 23.27 1.38 6.23-0.45 12.43-1.15 18.61-2 4.79-0.62 8.75-2.36 8.21-10.93-6.6-12.98-17.95-5.78-28.24-2.77z"/> <path class="cls-1" transform="translate(-823.07 -154)" d="m3479.2 1333.4c-14.77 24.73-35.73 47.23-63 60.68 70.89-97 78.88-209.7 3.29-305.36-25.88-32.73-56.26-62.06-86.86-90.9-39.21-37-76.58-75.9-114.73-114l-0.58 0.46c-1.57-3.46-0.91-8.94-7.29-8-12.14-18.12-24.3-36.23-36.87-55-48.39 55.89-48.39 55.89-80.49 53 3-3.39 5.72-7.2 9.18-10.1 43.39-36.3 52.13-65.11 35.51-117.88-12.23-38.85-61.89-69.83-95.39-61-13.37 3.5-16.26 8.24-11.07 20.8 11.27 27.28 21.57 55 31.25 79.87 11.91 4.43 16.91-10.13 27.41-5 1.78 16.74-23.79 15-21.43 31.44 2.93 20.6 6.87 41.06 10.37 61.59-17.25 11.09-21.66 9.39-28.08-15.49-14.11-54.69-25.94-110-49.13-161.94-5.78-12.93-2.15-24.05 10.86-29.68 17.83-7.74 17.79-21.23 13.5-36.31-4.58-16-9.94-31.83-17.27-55 23 13.68 29.94 27.41 33.72 45.47 1.81 8.63-1.19 25.67 15.14 24.78 24-1.32 43.21 11.3 64.31 18.43-10-60.17-35.57-114.44-65.86-166.4-5.92-10.15-11.33-26.06-28.35-26.69 4.92-3.38 8.91-7.54 4.07-13.32-39.56-47.23-80.42-93.18-135.9-122.81-53.73-55.68-125.31-79-195.39-101.92-51-16.7-104.36-26.3-159.76-26.39-46.07-0.07-91.68-0.25-137 7.75-92.58 16.37-177.77 49.48-251.19 110.28-40.47 33.51-73.87 73.06-105.92 113.81q-5.28 6.69-10.48 13.42l-0.73 0.93-0.47 0.59-0.58 0.75-1.47 1.91c-9.87 13-40.38 55.47-65.14 113.18-7.68-14.32-10.07-30-9.91-46.42a865.16 865.16 0 0 0-42.24 89c9.82-25 24.63-60 43.93-98.29 9.88-5 10.35-14.38 12-23.16a30.58 30.58 0 0 1 3.39-10.07c14.39-24.07 29.35-47.71 45.5-70.41a3.64 3.64 0 0 0 0.24-0.35q4.67-6.57 9.49-13 8-10.71 16.41-21.1c18.58-22.9 172.28-181.65 300.6-200.36 77.66-11.33 155.09-28.89 234.21-17.32 46.86 6.85 94.22 11.54 141 16.33 115 33.82 174.44 93.64 184.65 102.45 5.54 4.74 10.89 9.73 16.64 14.22 57.5 44.9 115.07 91 155 152.38 40.51 62.4 73 130 88.06 204 6.62 32.56 5.11 67.87 17 98.09 31.57 79.84 88 142.31 151.77 198.68 44 38.91 87.69 78.69 123.23 125.67 62.78 82.93 75.7 171.85 20.85 263.71z"/> <path class="cls-1" transform="translate(-823.07 -154)" d="m2029.8 396-0.48-4.46s60.32-82.15 0.48 4.46z"/> <path class="cls-1" transform="translate(-823.07 -154)" d="M3355.37,1688.77l-2.07-14.54c-1-24.17-15.44-43.7-23.49-65.31-20.26-54.35-45.88-106-96.37-140.05-1.08-1.43-1.87-3.6-3.3-4.19-51.83-21.38-107.78-30.18-159.48-52.39-9.94-4.28-9.76,6.18-6.73,13.53l24.57,59.53c-1.45,4.85,1.09,12.68-6,13.66-43.24,6-75.75,32.67-110,56.06-10.75,6.61-21.39,13.41-32.29,19.78-19.15,11.18-27.44,24.39-9,43.28,9.36,46.51,4.77,88.31-38.79,117.51-3.31,2.22-6.16,7.43-6.46,11.45-2.12,29.12-23.73,40.68-45.51,52.79-13.35,7.42-30.16,7.11-41.33,19-46.55,2.32-91.87,7.59-124.47,51.22,26.93,4.58,51.33.9,75.72,4.66,60.24,9.29,120,21.08,176.71,42.6,26.67,10.13,58.91,11.29,79.15,36.37-12.05,12-24.76,3.09-35.74-.65-95.11-32.38-193.31-51.41-291.92-68.67-10.12-1.77-22.31-5.23-31.16,4-22.41,23.43-51.07,40.47-69.39,68-22.4,6.29-37,23.35-53.06,38.4-34.27,24-68.14,48.42-98.22,77.67l-101.52-14.13.66.29c2.41-16.52,13.7-6,20.07-5.49,23.15,2,42,2.71,60-20,19.06-24,44-46,69-63.15,36.87-25.25,70.26-54.64,104.37-82.54,38.59-31.57,77.65-61.75,119.8-88.08,26.78-16.74,58-16.18,87-14.56,15,.84,28.08-.6,41-5,14.76-5,30.91-13.47,29-31.54-1.79-17.15-19-23.31-33.49-28.77-5.67-2.14-12.69-1.4-19-.95-16.23,1.17-32.64-2.2-48.8,2.94-4.83,1.54-11.54-.37-12.62-7.35-.61-4,2.81-5.45,6.56-7.07,35.86-15.57,73.06-19.14,108.15-2.17,15.94,7.7,21.78,4.67,30-7.17,19.59-28.41,8.79-54.16-26.46-62.78a213.89,213.89,0,0,0-88-3.54c16.47-26.81,53.61-32.35,103.2-18.81,1.42,4.44,5.45,8.82,8.78,5.92,4.84-4.23,1-9.07-3.65-12.26,1.1-16.22-10.27-25.62-21.5-32.34-31.63-18.94-65.26-16.52-99.43-6.18-73.39,22.2-139,61.34-207.71,93.82-67.1,31.73-137,56.54-206,83.7-63.57,25-127.29,49.67-191,74.41a49.29,49.29,0,0,1-30.51,2c-2.4-7.35,1.76-9.74,5.07-12.9,48.87-46.53,111.49-67.75,171.9-92.62,74-30.48,148.74-59.29,223-89.12,9.8-3.94,23.12-6.35,23-20.22-.18-16.45,9.55-22.23,22.56-26.35,8-2.52,16.05-5.07,16.57-15.65a16.59,16.59,0,0,0-18.21.31c-11.84,8.66-27.34,18.52-33.58,1.43-4.21-11.54,18.69-12.15,28.44-19.23,1.89-1.38,5.46-.18,8.07-.88,11.24-3,16.38-9.51,15.21-22-3.74-40-10.62-79.25-24.33-117.13a53.85,53.85,0,0,0-12.57-31.49c-9.14-30.31-21.25-58.84-35.41-87.54-13-26.35-29.66-50.73-47.51-69.72-59.32-63.11-136.84-96.55-221.35-113.31-85-16.86-170.7-18.31-256-5.32-26.57,4-53.89,8.89-79.86,20.82-13.12,6-37.41,15.56-50.35-2.31-16.27-22.46-38.83-37.83-56.61-58.26-8.91-10.24-17.93-21-30.88-26.13-4.37-1.74-12.45-1.24-15.27,1.67-5.62,5.84,2.9,8,5.53,12.11,24.46,37.79,47.53,76.42,63.61,118.66,1.63,4.29,8.81,12.56-1.15,16.12-5.73,2-9-5-13.24-8.14-36-63.4-70.88-127.51-115.65-185.46-11.93-15.43-25.76-28.93-43.83-36.49-8.87-3.71-20.89-7.29-21.73,9.75-1.47,29.81-11,59.13-5.58,89.37-4.62,57.58-9.28,115.16-8.45,173,.46,31.58,6.1,64.29-.27,94.44-7.41,35-24.19,68.07-34.17,103.24-12.23,43.08-9.78,86.22-15.38,136.87,16.59-24.48,28-42.57,40.7-59.77,19.84-27,64.71-31.78,88.52-8.92,18.67,17.94,22.85,42.19,24.42,66.9-3.3,17.49-4.41,35.76-10.3,52.33-17.63,49.58-21.86,99.75-12.09,151.28-2.3,6-5.55,11.92-1.06,18.31-2,8.55-5.83,16.89-3.07,26-6.89,17.63-13.82,35.25-20.66,52.91-6.55,16.9-17.8,31.51-22.46,49.55-2.79,10.78,0,18.89,7.37,24.17,8.83,6.33,11.51-4.58,16.58-8.88,26.81-22.75,56.34-36.68,92.67-27.39,11.15,9.78,26.09,7.41,39,11.62,46.74,15.23,94.35,27.79,141.64,41.36,69,17.86,138.19,35,206.92,53.83,50.41,13.83,105,18.17,144.89,58.3-19.65,9.86-40.47,5.26-60.92,4.95-10.58-8.71-22.65-8.92-35.23-6.17-45.23-13.82-91-25-138.27-29.35-14.29-13.77-34.21-5.3-50.12-12.7-27.42-18.2-60.33-16-90.39-24.36-17.36-5.72-34-14.91-53.35-11.12-1.59-9.86-10.31-9-16.91-11-25.34-7.79-51.26-14-76-23.33-63.45-23.94-70.49-21.17-116,27.66-46.34,49.75-83.54,105.94-121.3,161.81-9.39,13.89-22,29.43-17.56,47.48,19.37,79.26,63.63,145.94,109.82,211.47l-.18-.15c0,5.58,1.1,10.6,6.85,13.21l.61,1.06c15.3,31.92,47.24,48.43,69.51,74.26,35.16,40.79,76.68,76.11,115.51,113.75,14.06,19.77,36.19,29.65,54.13,44.53,54.7,45.38,113.73,84.41,172.69,123.67,17.22,20.94,42.43,29.75,64.9,42.71,12.71,8.4,25.45,16.74,38.1,25.22,55.91,37.49,117.22,57.29,184.81,56.5,21.7-3.93,45.56.46,63.86-16.57,17.21,13,31.77-1.51,47.19-4.91a1540.13,1540.13,0,0,0,186.66-53.69c17.83-12.22,40.66-10.78,59-21.64,28.52-5.55,50.84-25.24,78.27-33.73,61.77-19.09,120.78-47,174.79-80.66,105.71-65.94,215.9-125.58,307.89-212.73,35.76-33.88,75.76-64.63,120.7-100.15-32.09,64.41-75.07,111.58-120.88,156.92-45.48,45-96.94,82.75-154.56,124.2,23.64-1.37,34.13-12.67,47.5-17.57a726.41,726.41,0,0,0,166.11-87c54.09-37.81,93.57-90.13,133.45-142.5,27.22-35.73,26.25-68.14,10.28-105-5.5-34.29-9.93-69.2-29.52-98.86-5.84-8.85,2.74-11.8,2-17.69-5.88-65-13.93-129.83-17.1-194.94-3.77-77.45-14.25-153.47-34.65-228.19q-2.86-8.08-5.71-16.18l-10.23-38.57C3364.63,1695.17,3362.09,1690.36,3355.37,1688.77Z"/> <path class="cls-1" transform="translate(-823.07 -154)" d="m2366.3 1100.9c18.38 14.17 37.82 26.51 59.82 36-6.93-41.15-49.27-134.81-70.16-155.93 2.85-10.32-5.07-16.75-9.49-24-13.77-22.55-22.86-23.09-35.66 0.89-17.21 32.26-34.75 64.25-53.73 95.49-3.35 5.52-7.17 13.08 4.72 15.85 35.52 8.23 68.25 25.82 104.5 31.7z"/> <path class="cls-1" transform="translate(-823.07 -154)" d="m2432 2991.8c-8.69 6.9-11.75 16.58-10.76 26.85 2 20.54-0.5 40.35-3.33 60.79-9.07 65.69-18 130.92-38.39 194.7-6.41 20.09-19.36 38.35-20.23 60.25-4.93 9.6-9.87 19.2-16.75 32.61 22.72-4.3 23.25-20.06 28.7-31.84 21-15.8 29.29-39.86 39.15-62.48 31.89-73.15 50.72-148.66 48.7-229.71-0.43-17.2-17.2-33.84-3.19-51.41 2.24-25-5.81-48.64-7.87-75-8.11 5.52-23.43 6.37-21.44 11 9.21 21.33-6.1 43.92 5.41 64.24z"/> <path class="cls-1" transform="translate(-823.07 -154)" d="m2952.2 1548.5c39.18-23.18 76.69-49.94 124.17-57.88-3.41-16.67-5.12-33.68-15.07-48.32-1.37-28.84-20.35-37.68-44.21-50.14-37.83-19.76-58.48-11.24-84.86 18.84-26 29.71-61 51.59-92.62 77.34 12.46 11 32.44 20.6 32.32 30-0.41 30.28 28.56 38.11 38.28 60.39z"/> <path class="cls-1" transform="translate(-823.07 -154)" d="m915.56 3863c-6.69 4.23-8.63 11-10.8 18.16-17 55.49-32.15 109.93-32.3 170.07-0.21 86.32 47.08 185.77 136.52 220.53 30.88 18.77 65.94 21.34 100.33 22.72 54.61 2.19 109.4 2.53 164 0.69a807.42 807.42 0 0 1 81.55 1.36c-47.1-41.24-81.71-81.18-85.71-139.51-1-14.28-6.15-20.64-23.12-14.22-29.88 11.31-61.68 14.31-93.66 14-26.11-9.34-55.27-10.51-76.58-32.37-27.64-28.36-36.59-62.66-36.1-100.72 7.37-27.28 23.94-53.31 27-79.47 3.3-28.65-37.07-40.77-47-68.32a22.51 22.51 0 0 0-4-7.12c-23.85-27.12-33.13-63.15-56.1-93.89-7.47 15.64-11 30.51-21.57 42.08-11.82 12.91-20.41 28.07-22.46 46.01z"/> <path class="cls-1" transform="translate(-823.07 -154)" d="m3521.2 2847.9c-8.17-18.89-17-37.35-33.76-50.47-17.79-36.78-48-63.43-75.23-92.57-12.61-19.81-30.3-34.89-47.23-50.69-11.41-10.41-25.56-19.07-33.62-31.64-12.66-19.75-23.77-14.9-40.39-5.95-31.39 16.91-63.6 32.71-96.66 46-130.08 52.25-267.84 82.75-395.64 142.18-92.84 43.18-191.19 72.31-290.63 97-9.21 2.29-20.31 0.76-17.72 17.48 5.21 33.65 10.21 67.21 10.47 101.72 0.44 58.15-2.57 115.79-14.66 172.56-6.52 30.6-8.26 31.4 22.63 28.94 84.08-6.69 168.22-15.57 250.79-31.93 143.9-28.52 286.25-63.64 424.37-114.72 116.71-43.16 227.7-96.09 326.39-172.79 21.33-16.6 25.01-34.68 10.89-55.12z"/> <path class="cls-1" transform="translate(-823.07 -154)" d="M2819.36,746c-28,3.13-55.91,6.37-83.89,9.33-7.83.83-3.41,6.35-4.35,9.83-118.83,63.13-239.74,80.21-360.95,9-118.89-69.84-170.51-182.29-188.25-314.8C2145.51,582.24,2103.17,702,2075.72,826c-15.54,70.18-10.68,140.7,4.14,210.7,2,9.63,3.71,19.48,16.5,16.24,21.3-5.39,41.36,5.85,61.84,3.75,16.45-1.69,35.77,9.93,48.65-4.15,9.54-10.42,12.92-26.45,19.49-41-62.44-1.91-80.75-11.81-89.17-46.77,7.39-2.65,14.19-.69,21.21,1.93,48.92,18.23,93.78,4.1,123.22-37.9,6.22-8.87,13.53-17.51,22-24.22,19.84-15.79,40.25-10.37,56.47,9.21,31.07,37.52,50.9,81.89,74.21,123.63,15.61,28,30.24,22.21,48.08,12.23,21.55-12,41.78-27.37,49.69-52.56,2.24-7.11,3.82-13.23,11.67-11,8.25,2.29,5.47,10.36,4.52,16.23-5.11,31.39-23.88,51.89-51.41,66.54-12.6,6.7-34.47,3.6-37.2,16.36s7.4,29,13.75,42.79c9.78,21.34,10.33,47.85,27.94,64.31,39.35,36.75,67.23,80.23,83.53,131,5.54,17.29,13.16,21,30,15.41,29.45-9.7,57.4-22.82,86-34.43,51.29-20.82,95.16-53,137-88.27,44.26-37.38,77.58-83.76,106.45-133.37,29.53-50.73,48.74-105.85,44-164.59-5.48-68.38-31.66-130.79-69.34-188.48-11.06-16.93-20.2-19.56-34-5.06-6,.92-12.75-.07-16,7Z"/> <path class="cls-1" transform="translate(-823.07 -154)" d="m1744.4 2593.2c-33.53-35-64.49-67.6-95.76-99.89-53.91-55.67-93.41-121.6-129.58-189-23.68-44.16-46.5-91-30.06-144.76 2.1-6.88-3.69-9-8.17-12.29-28.83-21.42-48-51.19-68.44-79.89-6.7-9.45-9.16-27.55-19.87-27.11-14 0.57-16.4 19.57-24.17 30.34-1 1.36-0.63 3.59-1.3 5.26-22.52 56.74-41 114.77-53.14 174.61-11.55 56.76-16.26 114.64 4.11 169.59 38.92 105 118.22 175.47 211.12 232.08 16.45 10 35.79 20.55 56.27 15.58 56.44-13.75 105.69-43.28 158.99-74.52z"/> <path class="cls-1" transform="translate(-823.07 -154)" d="m1471.7 1743.6c8.82-33.4 28.81-59.45 51-83.53 8.19-8.9 9.82-17.44 12.27-28.37 8-35.89-5.36-70.27-4.64-105.73 0.7-34.58 2.54-69.4 3.39-111.12-49.74 61.43-38.66 136.07-64.53 200.56-11.35-11.57 2.9-27.74-12.76-28.66-8.63-0.5-9.19 12.92-12.18 21.45-21.21 60.5-32.33 122.61-36.11 186.61-3.49 59.14-4 118.25 10.76 175.53 12.07 46.72 28.39 93.08 67.29 126.94 29.71-60.8 65.5-114.69 117.18-156.28 11.68-9.4 15.93-16.13 8.37-31-7.78-15.28-4.16-31.17 6.13-46.2 25.65-37.47 38.58-79.08 33.08-124.75-4.29-35.64-2.22-69.43 12.3-103.26 11.4-26.58 22.43-54.6 21.24-84.35-0.65-16.11-4.25-35.43-24.12-38.53-17.29-2.7-30.26 7.41-38.23 24.2-8.61 18.13-19.85 35-28.85 53-29.93 59.63-77.91 104.93-121.59 153.49z"/> <path class="cls-1" transform="translate(-823.07 -154)" d="m2631.9 1515c3.8-2 7.86-3.79 11.65-6.06 50.2-30.14 102.21-51.59 162.13-32.52 6.5 2.06 10.94-0.47 15.07-3.36 45-31.39 88.43-64.58 126-108.09-47.95-22-97.1-39.43-118.9-91.25-8.85 8-18.93 14-24.88 22.83a467.55 467.55 0 0 1-138.25 134.25c-34.41 21.78-52.6 41.94-32.82 84.2z"/> <path class="cls-1" transform="translate(-823.07 -154)" d="m3548.6 2916.4c-21.3 6.74-9.33 20.27-5.11 32.07 36.44 102 73.22 203.45 67.45 314.86a931.33 931.33 0 0 1-56.28 274.1 1006.4 1006.4 0 0 1-101 201.77c-5.7 8.79-16.09 17.25-4.24 24.36 9.64 5.78 13.49-8.53 18.54-15.2 30.56-40.38 50.43-87.17 76.64-130.24 34.62-56.91 55-121.41 70.78-186 11.12-45.61 17-92.83 19.48-140.18 3.76-72.52-8.08-143-26.95-212.46-15.21-55.9-36.7-109.64-59.31-163.08z"/> <path class="cls-1" transform="translate(-823.07 -154)" d="m1170.6 4104.4c28.69 7 53.34-5.46 78.84-15.08 8.3-3.14 11.66-8.49 13.28-15.49 2.46-10.62-8.25-7.36-12.67-10-43.52-26.14-93.44-41.83-129.42-80.33-5-5.33-13.24-9.09-17.78 1.17-10.62 24-19 47.91-9 75 13.51 36.86 40.22 48.94 76.75 44.73z"/> <path class="cls-1" transform="translate(-823.07 -154)" d="m1645.9 1957c-4.26-5.07-7.23-9.78-11.28-13.19-7.83-6.57-10.78 1.85-15.17 5.71-47.45 41.71-80.74 93.86-109.79 149.09-2.07 3.93-3.09 8.56-3.81 13-1.1 6.7 0.16 13.93 6.29 16.94 8.63 4.25 10-5.32 13.21-9.78 35.66-50.45 68.27-103.16 111.2-148.17 3.59-3.73 6-8.6 9.35-13.6z"/> <path class="cls-1" transform="translate(-823.07 -154)" d="m2628.6 1569.6c25.81-1.55 44-3.73 62.87-14.76 23.61-13.81 51.33-20.31 78.71-26 19.32-4 38.2 2 63.59 0-83.21-49.3-141.6-4.87-205.17 40.76z"/> <path class="cls-2" transform="translate(-823.07 -154)" d="m2860.4 1635.1a213.93 213.93 0 0 0-88-3.54c16.48-26.82 53.62-32.35 103.21-18.8l5.13-6.35c1.1-16.23-10.27-25.62-21.49-32.34-31.64-18.94-65.27-16.52-99.45-6.18-73.38 22.19-139 61.34-207.7 93.82-67.09 31.73-137 56.54-206 83.69-63.58 25-127.29 49.68-191 74.42a49.33 49.33 0 0 1-30.5 2c-2.4-7.35 1.77-9.74 5.07-12.9 48.86-46.53 111.49-67.74 171.9-92.62 74-30.48 148.74-59.3 223-89.12 9.8-3.93 23.13-6.36 23-20.21-0.18-16.47 9.55-22.24 22.56-26.36 7.94-2.52 16.05-5.06 16.57-15.65a16.58 16.58 0 0 0-18.22 0.31c-11.83 8.66-27.34 18.53-33.56 1.44-4.21-11.55 18.68-12.16 28.42-19.25 1.89-1.37 5.47-0.17 8.08-0.87 11.24-3 16.38-9.51 15.21-22-3.74-40-10.62-79.25-24.33-117.13l-25-4.06c0 8.94-6.48 15.4-13.24 13.63-27.92-7.33-49.27 7.37-72 18.44a70.63 70.63 0 0 1-18.23 5.93c-20.21 3.6-32-9.17-27.82-29.52 7.23-35 55.17-57.59 96.59-45 7.71 2.33 14.73 6.9 22.07 10.45l25.08-1.31c-9.14-30.31-21.25-58.83-35.4-87.54-13-26.35-29.67-50.72-47.52-69.72-59.31-63.12-136.84-96.54-221.35-113.31-85-16.86-170.7-18.31-256-5.32-26.58 4-53.9 8.9-79.86 20.81-13.13 6-37.42 15.57-50.36-2.3-16.26-22.46-38.83-37.83-56.61-58.26-8.91-10.24-17.93-21-30.88-26.14-4.38-1.74-12.46-1.23-15.27 1.68-5.62 5.83 2.9 8 5.54 12.1 24.44 37.8 47.52 76.44 63.6 118.66 1.64 4.3 8.81 12.57-1.14 16.13-5.74 2-9-5-13.25-8.13-41.77 21.12-82.48 43.77-117.88 75.06-20.79 18.39-32.57 14.94-36.79-12.22-7.3-47-12.18-94.33-18.09-141.53-2-15.59 1.43-32.87-14-44.15-4.62 57.58-9.28 115.17-8.45 173 0.45 31.59 6.1 64.29-0.27 94.44-7.41 35-24.19 68.07-34.17 103.24-12.23 43.09-9.79 86.23-15.38 136.88 16.59-24.49 28-42.58 40.7-59.78 19.84-27 64.72-31.78 88.51-8.92 18.67 17.93 22.86 42.19 24.43 66.91-3.3 17.49-4.42 35.75-10.31 52.33-17.62 49.56-21.86 99.74-12.07 151.28 10.32 6.71 10.42 12.84-1.07 18.29-2 8.55-5.82 16.9-3.07 26 10.76 9.17 1.71 25.86 18.37 36.53 12.61 8.09 22.67 14.27 37 13.94a2.66 2.66 0 0 0 0-0.28h0.33c0.56-4 0.61-8.5 6.62-8.11a2.54 2.54 0 0 1 1.74 1.74c0.13 6-4.27 6-8.36 6.37v0.31h-0.26c0.89 8.77-3.17 20 11.22 22 1.28-3.77 0.62-10.86 7.1-8 5.59 2.5 3.12 9.32 2.89 14.5 9.48 6.68 2.18 8.74-3.12 11.36 11.14 9.77 26.08 7.41 39 11.62 46.74 15.22 94.35 27.79 141.64 41.36 69 17.86 138.19 35 206.92 53.83 50.41 13.84 105 18.16 144.9 58.29 8-11.32 18.06 2.6 26.6-2.16 2.41-16.51 13.7-6 20.07-5.48 23.14 2 42 2.71 60-20 19.07-24 44-46 69-63.15 36.87-25.25 70.26-54.64 104.37-82.54 38.59-31.57 77.65-61.75 119.8-88.09 26.79-16.73 58-16.17 87-14.56 15 0.85 28.09-0.59 41-5 14.76-5 30.91-13.47 29-31.53-1.78-17.16-19-23.32-33.48-28.78-5.68-2.14-12.71-1.4-19-0.95-16.24 1.16-32.65-2.2-48.8 2.94-4.83 1.54-11.55-0.37-12.61-7.35-0.62-4 2.8-5.45 6.55-7.07 35.86-15.56 73-19.13 108.14-2.17 16 7.71 21.79 4.67 29.95-7.16 19.53-28.46 8.73-54.2-26.52-62.82zm-490.58-213.76c16.8 3 27 12.89 32 29.47 4.61 15.42-7.07 21.49-15.27 29.16-19.57 18.26 3.67 31.54 5.66 47.12 0.95 7.51 9.79 16.42 17.33 20.24 27.15 13.72 17.65 33.24 10.8 53.16-7 20.35-21.39 32.38-42.23 33.17-23.67 0.91-34.74-16.38-43.89-35.54-8.09-16.92-12.18-28.44 8.86-42.39 28.54-18.91 26.16-60.37-2.09-80.82-13.62-9.85-20.56-18.23-9.3-33.44l-1.48 1-1.51-0.9c-10.41 0.36-19.73-1.74-26.43-11.61 22.12-8.48 44.31-12.82 67.55-8.62zm-333.47-47.8c18.48-17.75 42.36-18.39 67.93-21 37.54 3.79 74 15 101.75 45.57 8.53 9.42 17.73 21.06 6.94 34-9.23 11.1-20.64 14.14-36.56 9.62-43.18-12.27-82.94-37.72-130.73-33.87-5.83 0.48-14.38-11.46-18.64-19.3-3.59-6.53 4.83-10.73 9.31-15.02zm-110.81 494.7c-51.66 1.49-104.54 17.36-153.84-11 32.31-15.27 66.31-2.25 98.69-9.92 30.51 3.32 61 3.36 95.69-2.74-10.44 21.01-28.2 17.38-40.54 23.66zm83.76-196c-4.22-6.06 3.53-9.23 5.06-14 1.89-1.81 3.78-3.6 5.68-5.4l0.08-0.08c0.37-13.29 8.36-11.79 17.1-8.8l1.27-1.16c0.16-3.25-0.94-8 0.74-9.39 3.07-2.54 6 0.38 7.69 3.72l11-7.47q0.06-14 0.11-28c-28.78 8.5-57.6 16.83-86.29 25.65-6.7 2.06-14.41 8.06-18.77-0.54-4-7.91 3-13.11 10-16.61 57.21-28.52 117.65-45.54 181.46-49.72 6-0.39 18.19-6.68 17.77 8.76 5.74 3.61 5.94 9.36 5.84 15.22 4.2 8.57-0.38 13.87-7.23 17.58q-66.95 36.4-134.18 72.39c-5.56 2.95-12.86 4.23-17.33-2.2z"/> <path class="cls-3" transform="translate(-823.07 -154)" d="m3217.9 883.8c-0.63 27.9 23.27 39.63 38.65 56.07 60.28 64.44 127.16 123.85 168.09 203.54 51.06 99.41 11.14 231.33-84.24 288.74-3.7 2.22-8.39 2.83-12.61 4.18 19.32-71.41-9.44-126.28-59.91-173.51-116.94-109.43-207.08-235.5-250-392.48-23.87-87.27-70.26-163.41-132.28-228.49-67.67-71-131.9-144.8-194.68-220-6.85-8.2-13.79-16.5-27.61-17 79.29 96.07 144.85 202.21 234.23 295.65-177.37 61.22-299.89-7.11-396.19-154.26-2.42 73.28 93.52 163 215.39 209-30.63 1-53.29 16.71-78.63 24.86-145.61 46.81-281.57-24.71-354.43-130.25-47.16-68.31-75.37-144.71-75.89-229.34-0.08-12.8-8.05-24.29-5.78-37.61 0.78-4.6-1.8-9.46-7.6-9.1-4.84 0.31-8.38 3.63-9.5 8.58-14.86 65.77-43 127.15-63.63 191-37.34 115.5-81.24 229.18-81.46 353.21-0.07 39.52 9.24 78.08 12.16 124-49.93-28.75-92.18-58.08-113.2-109.28-22.15-53.92-23.51-110.11-16.78-167.52 7-59.63 15.69-118.6 35.14-175.72 3.15-9.23 7.37-16.21 14.12-22.39 28.76-3.22 58.41 2.74 86.39-8.32 5.52-2.19 14.32-1.11 14.47-9.64 0.14-8-6.4-12.59-12.92-16.25-8.59-4.82-24-1.39-26.33-11.39-4.59-19.7-20.64-22.88-34.25-30.38 48.14-61 92.91-124.82 153.58-175 73.41-60.78 158.6-93.9 251.19-110.26 45.3-8 90.91-7.83 137-7.76 55.4 0.08 108.77 9.69 159.76 26.39 70.08 22.95 141.66 46.23 195.39 101.91-3.55 18.33-13.34 31.91-26.2 46-26 28.56-58.16 48.55-87.86 72-5.92 4.66-20 9.48-10.38 20.8 23.08 27.11 43 59.91 76.17 73.94 24.31 10.29 48.7-10.11 72.3-19.24 6.59-2.54 11.69-8.71 18.12-11.92 30-15 54-41.72 89.7-45.4 17 0.64 22.43 16.54 28.34 26.69 30.39 52.14 56 106.61 66 167l0.41-0.43c-21.3-7.11-40.61-20-64.82-18.62-16.32 0.9-13.33-16.14-15.14-24.77-3.78-18.07-10.71-31.8-33.73-45.49 7.33 23.21 12.71 39 17.28 55 4.3 15.08 4.33 28.57-13.51 36.3-13 5.64-16.63 16.75-10.85 29.7 23.19 51.93 35 107.24 49.13 161.93 6.42 24.89 10.82 26.57 28.09 15.49l14.15 0.26c32.11 2.88 32.11 2.88 80.5-53l36.87 55c-2.12 6.79 0.52 9.28 7.28 8zm-551.77-362c6.46-4.45 22.4 6.15 21.44-10-0.59-9.93-4-26.16-20.44-23.72-13.62 2-33.29 6.28-33.3 20.91-0.02 15.95 19.45 10.85 32.3 12.82zm-189.52-7.95c-7.4-24-16.72-42.77-30.66-59.21 9.89 18.7-3.57 48.18 30.66 59.22zm-58.43 1.95c-6.09 1.67-16.95-1.33-16.16 9.26 0.72 9.68 11.19 10.66 19.18 11.84 6.41 1 14.54 0.88 14.64-7.77 0.14-10.34-8.23-13.05-17.66-13.32zm245.8-117.57c-0.39-0.85-0.84-3.69-2.43-4.68-1.36-0.85-5.16-3.33-5.91 1.08-0.34 2 0.46 5 1.89 6.26 1.08 0.91 4.74 3.36 6.45-2.66zm-13.37-9.74 2-1.67-1.75-1.94-2.07 2.58z"/> <path class="cls-3" transform="translate(-823.07 -154)" d="m2426.8 2072.6c30.09-29.23 64-53.69 98.24-77.65 15.75-6.12 24.75 9.12 37.81 11.94 145.94 31.48 278 93.77 401.18 177.45 71.7 48.7 130.56 107.67 169.55 185.28 9.88 19.65 26 20.57 37.42 9.09 13.66-13.69 29.21-30.83 17-55a386.57 386.57 0 0 0-72-99.63c-44.16-44.05-95.35-78.86-147.42-113.5-85.07-56.62-178.12-92.48-274.36-122.3-38.29-11.87-77.36-21.22-116.07-31.71 18.32-27.57 47-44.61 69.39-68 8.85-9.26 21-5.8 31.16-4 98.61 17.26 196.81 36.29 291.92 68.67 11 3.74 23.69 12.7 35.74 0.66 19.38-10.2 30.22 8.34 43.8 14.54 69.08 31.51 134.74 69.27 194.21 116.9a1100.3 1100.3 0 0 1 178.06 180.4c9.47 12.06 16.79 31.07 37.91 30.33 16 36.88 17 69.29-10.25 105-39.88 52.37-79.36 104.69-133.45 142.5a726.41 726.41 0 0 1-166.11 87c-13.37 4.9-23.86 16.2-47.5 17.57 57.62-41.45 109.08-79.2 154.56-124.2 45.81-45.34 88.79-92.51 120.88-156.92-44.94 35.52-84.94 66.27-120.7 100.15-92 87.15-202.18 146.79-307.89 212.73-54 33.68-113 61.57-174.79 80.66-27.43 8.49-49.75 28.18-78.26 33.71 14.48-30.14-1.6-63.69 10.51-94.27 2-5.17-2.5-10.22-8.51-12.05q-1-19.08-2.08-38.17c10.54-25.68 1.44-46.94-15-66.56l-15.45-64.35c4.14-8.67 4.19-15.59-7.5-17.46q-1.42-5.05-2.83-10.09c3.41-7.76-0.56-11.17-7.53-12.81q-1-5.34-2-10.66c12.28-9.74 2.54-18.83-2.48-25.85-8.72-12.19-12.81-26-18.3-39.41-1.38-3.38 2.58-9.93-3.57-9.65-2.73 0.12-5.18 6.42-7.76 9.92-8.32-19.3-23.14-35.28-28.61-56-2.77-32.58-25.82-55.14-40.53-81.8-20.51-37.18-51.52-67.53-69.43-106.44 7.69-1.59 14.31 1.31 21.06 4.51 82.09 39 161 83.45 231.39 141.46 86.19 71 156.72 152.9 179.92 266.72a30.3 30.3 0 0 0 21.38 23.14c13.3 4 20-7.09 27-14.92 11.78-13.09 15.65-28.87 11-46.12-26.26-97.65-80.56-178.59-155.17-244.54-103.45-91.45-222.11-157.4-355.11-196.76-11.11-3.41-25.36-5.18-30.43-19.51z"/> <path class="cls-4" transform="translate(-823.07 -154)" d="m2885 724.51c13.77-14.5 22.91-11.87 34 5.06 37.68 57.69 63.86 120.1 69.34 188.48 4.72 58.74-14.49 113.86-44 164.59-28.87 49.61-62.19 96-106.45 133.37-41.81 35.31-85.68 67.45-137 88.27-28.61 11.61-56.56 24.73-86 34.43-16.89 5.56-24.51 1.88-30-15.41-16.3-50.77-44.18-94.25-83.53-131-17.61-16.46-18.16-43-27.94-64.31-6.35-13.84-16.48-30-13.75-42.79s24.6-9.66 37.2-16.36c27.53-14.65 46.3-35.15 51.41-66.54 0.95-5.87 3.73-13.94-4.52-16.23-7.85-2.19-9.43 3.93-11.67 11-7.91 25.19-28.14 40.52-49.69 52.56-17.84 10-32.47 15.73-48.08-12.23-23.31-41.74-43.14-86.11-74.21-123.63-16.22-19.58-36.63-25-56.47-9.21-8.42 6.71-15.73 15.35-22 24.22-29.44 42-74.3 56.13-123.22 37.9-7-2.62-13.82-4.58-21.21-1.93 8.42 35 26.73 44.86 89.17 46.77-6.57 14.51-10 30.54-19.49 41-12.88 14.08-32.2 2.46-48.65 4.15-20.48 2.1-40.54-9.14-61.84-3.75-12.79 3.24-14.46-6.61-16.5-16.24-14.82-70-19.68-140.52-4.14-210.7 27.45-124 69.79-243.74 106.2-366.65 17.74 132.51 69.36 245 188.25 314.8 121.21 71.21 242.12 54.13 361-9 19.95-0.26 40 0.82 59.78-1.29 11.1-1.18 27.11 0.81 28.45-17.86l49.58-14.48c8.45 4.97 16.16 8.06 15.98-6.99zm-279 118.69c-15-0.6-25-8.19-28.22 3.79-2.54 9.35 3 17.62 12.88 21.41s19.22 9.19 30.91 7.53c52-7.36 95.17-28.71 123.47-75 3.43-5.62 7.58-10.25 1-16.55s-11.67-2.41-17 1.16c-13.6 9.11-27.36 18-40.57 27.69-26.86 19.7-58.87 23.62-82.47 29.97zm-491-30.92c0.83-0.39 1.68-0.73 2.47-1.17 15-8.28 29.86-16.89 45.14-24.66 4.75-2.42 11.35-2.34 10.5-9.77-0.76-6.59-6.88-7.86-12-9.49-19.37-6.13-52.14 16.27-53 36.16-0.24 4.84 0.39 9.19 6.89 8.93z"/> <path class="cls-3" transform="translate(-823.07 -154)" d="m3412.2 2704.8c27.2 29.14 57.44 55.79 75.22 92.56-13.07 14.74-30.3 23.53-47.23 32.6-67.16 36-137.11 65.71-208.07 93.3q-263.58 102.46-544.32 135.69c-42.94 5-84.27 16.39-110.4 56.23-3 4.56-8.4 8.15-5 14.15s9.35 3.37 14.74 2.72c155.64-18.63 309.87-45 460.83-87.81 165.37-46.89 323.74-111.05 473.23-196.39 14.12 20.44 10.44 38.52-10.89 55.1-98.69 76.7-209.68 129.63-326.39 172.79-138.12 51.08-280.47 86.2-424.37 114.72-82.57 16.36-166.71 25.24-250.79 31.93-30.89 2.46-29.15 1.66-22.63-28.94 12.09-56.77 15.1-114.41 14.66-172.56-0.26-34.51-5.26-68.07-10.47-101.72-2.59-16.72 8.51-15.19 17.72-17.48 99.44-24.67 197.79-53.8 290.63-97 127.8-59.43 265.56-89.93 395.64-142.18 33.06-13.29 65.27-29.09 96.66-46 16.62-9 27.73-13.8 40.39 5.95 8.06 12.57 22.21 21.23 33.63 31.65-13.24 6-22 18-35.28 24.73-74.22 37.64-150.95 69.07-229.49 96.31-15.51-9.54-25.4 6.76-38.39 9.33-14.69 2.9-32.72 6.13-39.58 24.31-8 0.44-14.68 3.77-20.49 9.1-30.4-1.9-56.93 12.81-78.27 29.37-12.46 9.68-21.77 17.32-37.39 18.42-9.81 0.69-19.63 3.77-29 7.06-5.28 1.85-8.06 7.62-7.92 13.31 0.14 6.09 6.33 7.08 10.15 6.83 25.16-1.65 51.47 5.76 75.11-8.8 36.83-10.1 73.89-19.47 110.46-30.45 127.09-38.15 253-79.15 367.3-148.83z"/> <path class="cls-3" transform="translate(-823.07 -154)" d="M2299.32,2060.92c8-11.33,18.06,2.59,26.61-2.16l-.65-.29c1.64,3.24,2.42,7.71,5,9.53,38.08,26.44,78.32,49.06,122.91,62.34,13.83,4.11,20.94,9.84,19,24.44l-19.77-8.61c31.21,49.81,64.53,92.66,90.13,140.35l-21.17-1a29.45,29.45,0,0,0-1.79-4.31c-5.19-12.73-6-29.74-26.69-27.32q-28.07-29.88-56.15-59.75c-4.77-5.08-8.34-15.07-16.76-10.7-9,4.65-5.18,14.65-2.83,22.22a82.52,82.52,0,0,0,9.43,19.85c28.2,43.85,55.9,88.05,85.25,131.12,59.62,87.5,99.79,182.61,116.06,287.49-1.1,15-7.1,30.63,5.36,44q.51,8,1,16c-2.77,9.71-5.53,19.41,3.26,27.76.25,1.86.49,3.71.73,5.57q-.29,39.23-.56,78.45a1540.13,1540.13,0,0,1-186.66,53.69c-15.42,3.4-30,17.94-47.18,4.91-1.56-29.44,3.65-57.6,13.33-85.49,8.68-25,14.77-50.88,7.92-77.75q1.5-41.31,3-82.63c3.09-2.53,2.79-4.72-.66-6.59,1.59-8.07,4.29-16.09,4.59-24.21,3.23-86.61-4.11-172.58-14.62-258.49-6.66-54.4-23.8-107.18-24.33-162.44,0-4.56,1-9.56-4.83-11.27-6.77-2-11,2.39-12.25,7.79a126.1,126.1,0,0,0-3,27c-.06,61,.49,122.06.4,183.09-.19,122.76-4.63,245.26-26.23,366.47-1.84,10.31,1.3,17.79,6.16,25.65-10.05,11.7,6.92,29.46-9,39.84l-1.73-1.15,1.89,1c-4.47,25.06-7.25,50.22-4.54,75.71-67.61.79-128.92-19-184.83-56.5-12.65-8.48-25.39-16.82-38.08-25.22,8.35-50.89,27.9-98.11,47.73-145.23,3-7.13,2.93-14.07-.9-20.87l.72-16.07c7-1.92,9.57-4.88,2.41-10.14l.78-16.87c7.45-.88,11.45-4.06,8.07-12.13,22-87.65,42.24-175.68,52.26-265.64,3.81-34.21,7.34-68.32,8.61-103,1.87-51.22,3.37-102.27,1.54-153.46C2258.85,2066.18,2279.67,2070.78,2299.32,2060.92Z"/> <path class="cls-3" transform="translate(-823.07 -154)" d="m3381 1756.3c20.4 74.72 30.88 150.74 34.65 228.19 3.17 65.11 11.22 130 17.1 194.95-12.37 4.88-15.12-5.92-21.12-12.35-40.48-43.43-75.34-91.9-124.05-127.89-38.2-28.23-77.11-55.09-116.61-81.42-66-44-138.67-72.86-212.16-100.82-51.75-19.69-106.77-24-159.66-38 11.17-11.94 28-11.63 41.33-19 21.78-12.11 43.39-23.67 45.51-52.79 0.3-4 3.15-9.23 6.46-11.45 43.56-29.2 48.15-71 38.79-117.51 57.2-2.94 112.59 10 167.41 22.64 86.37 19.94 167.64 54.09 244.24 99 8.89 14.21 22.54 17.55 38.11 16.45z"/> <path class="cls-3" transform="translate(-823.07 -154)" d="m2052.2 2766.6c-59-39.28-118-78.31-172.69-123.69-17.94-14.88-40.07-24.76-54.12-44.54l6.9-4.15c12-6 30.77 15.5 33.07 1.46 3.53-21.54 20-32.72 26.81-50.71 20.8-55.34 46.34-109.07 64.29-165.26 16.36-51.22 39.74-99.58 54.18-151.74 18.23-65.81 35.73-131.86 54.22-197.62 47.25 4.35 93 15.54 138.26 29.36-2.51 11.54-7.06 22.36-6.94 34.78 0.82 83.75-13.38 166.19-30.66 247.32-22.2 104.19-52.59 206.62-85.95 308l-3.13 6.22q-0.06 7.68-0.13 15.35c-6.21 32.19-7.46 65.63-24.11 95.22z"/> <path class="cls-3" transform="translate(-823.07 -154)" d="m1744.4 2593.2c-53.3 31.24-102.55 60.8-159 74.5-20.48 5-39.82-5.56-56.27-15.58-92.9-56.61-172.2-127.08-211.12-232.08-20.37-55-15.66-112.83-4.11-169.59 12.18-59.84 30.62-117.87 53.14-174.61 0.67-1.67 0.33-3.9 1.3-5.26 7.77-10.77 10.12-29.77 24.17-30.34 10.71-0.44 13.17 17.66 19.87 27.11 20.39 28.7 39.61 58.47 68.44 79.89 4.48 3.33 10.27 5.41 8.17 12.29-16.44 53.72 6.38 100.6 30.06 144.76 36.17 67.42 75.67 133.35 129.58 189 31.28 32.31 62.24 64.91 95.77 99.91z"/> <path class="cls-4" transform="translate(-823.07 -154)" d="m1471.7 1743.6c43.68-48.58 91.66-93.86 121.56-153.52 9-18 20.24-34.82 28.85-53 8-16.79 20.94-26.9 38.23-24.2 19.87 3.1 23.47 22.42 24.12 38.53 1.19 29.75-9.84 57.77-21.24 84.35-14.52 33.83-16.59 67.62-12.3 103.26 5.5 45.67-7.43 87.28-33.08 124.75-10.29 15-13.91 30.92-6.13 46.2 7.56 14.85 3.31 21.58-8.37 31-51.68 41.59-87.47 95.48-117.18 156.28-38.9-33.86-55.22-80.22-67.29-126.94-14.79-57.28-14.25-116.39-10.76-175.53 3.78-64 14.9-126.11 36.11-186.61 3-8.53 3.55-22 12.18-21.45 15.66 0.92 1.41 17.09 12.76 28.66 25.87-64.49 14.79-139.13 64.53-200.56-0.85 41.72-2.69 76.54-3.39 111.12-0.72 35.46 12.67 69.84 4.64 105.73-2.45 10.93-4.08 19.47-12.27 28.37-22.16 24.11-42.15 50.16-50.97 83.56z"/> <path class="cls-2" transform="translate(-823.07 -154)" d="m2079.9 3105.2"/> <path class="cls-2" transform="translate(-823.07 -154)" d="m2082.8 3136.6"/> <path class="cls-2" transform="translate(-823.07 -154)" d="m2167.4 3187.5c-0.21 1.78-0.33 3.65-0.38 5.58-0.19-3.6 0.65-7.83 0.38-5.58z"/> <path class="cls-3" transform="translate(-823.07 -154)" d="m1924.4 1993.3c30.08 8.35 63 6.17 90.39 24.37-7.15 20.63-16.32 40.8-21 62-13.74 61.79-38.49 119.93-61.66 178.07q-47 118-95.21 235.67c-5.67 13.79-4.65 28-3.91 42.94 1 19.07 9.93 38.86-0.62 57.92l-6.9 4.15c-38.84-37.63-80.36-73-115.52-113.74-22.27-25.83-54.21-42.34-69.49-74.26 12.5-5.91 15.53 10.81 23.65 10.76 19-25.4 37.74-49.19 52.51-76.39 47.72-87.93 102.15-171.95 154.13-257.41 18.69-30.8 45.85-57.03 53.63-94.08z"/> <path class="cls-3" transform="translate(-823.07 -154)" d="m996.6 3283.2c47-2.39 81.27 15 110.83 54.27 46.25 61.38 60.5 132.17 75.89 203.85 3 14.13-6.92 26.6-1.34 40.05-5.61 24.75-21.16 174.73-39.48 166.81-4.13-1.78-49.57 23.85-52.25 33.89-0.9 1.26-10.28 1.66-11.3 2.83-15.81 3.4-40.26-8.19-41.06 17-26.24-35-33-77.18-43-118-17.94-73.62-25.43-148.92-20.27-224 4.08-59.06 5.3-119.03 21.98-176.7z"/> <path class="cls-3" transform="translate(-823.07 -154)" d="m1633.1 2396.2c-46.19-65.53-90.45-132.21-109.82-211.47-4.41-18.05 8.17-33.59 17.56-47.48 37.76-55.87 75-112.06 121.3-161.81 45.47-48.83 52.51-51.6 116-27.66 24.75 9.34 50.67 15.54 76 23.33 6.6 2 15.32 1.16 16.9 11 1.36 12.75-8.87 19.88-15.08 28.2-77.07 103.46-147.68 211.17-214 321.75-6.3 10.5-13.14 22.2-2.29 32.58 15.94 15.32 5.99 23.24-6.57 31.56z"/> <path class="cls-2" transform="translate(-823.07 -154)" d="m2799.2 1818.9c52.89 14 107.91 18.35 159.66 38 73.49 28 146.14 56.81 212.16 100.82 39.5 26.33 78.41 53.19 116.61 81.42 48.71 36 83.57 84.46 124.05 127.89 6 6.43 8.75 17.23 21.12 12.35 0.74 5.88-7.84 8.83-2 17.68 19.59 29.66 24 64.57 29.5 98.84-21.13 0.73-28.45-18.28-37.92-30.34a1100.3 1100.3 0 0 0-178.06-180.4c-59.47-47.63-125.13-85.39-194.21-116.9-13.58-6.2-24.42-24.74-43.8-14.54-20.24-25.09-52.48-26.25-79.15-36.38-56.67-21.52-116.47-33.31-176.71-42.6-24.39-3.76-48.79-0.08-75.72-4.66 32.6-43.59 77.92-48.86 124.47-51.18z"/> <path class="cls-2" transform="translate(-823.07 -154)" d="m3521.2 2847.9c-149.49 85.34-307.86 149.5-473.23 196.39-151 42.81-305.19 69.18-460.83 87.81-5.39 0.65-11.3 3.38-14.74-2.72s2-9.59 5-14.15c26.13-39.84 67.46-51.23 110.4-56.23q281-32.76 544.32-135.68c71-27.59 140.91-57.32 208.07-93.3 16.93-9.07 34.16-17.86 47.23-32.6 16.81 13.13 25.58 31.59 33.78 50.48z"/> <path class="cls-3" transform="translate(-823.07 -154)" d="m1175.6 2782.8c37.74 20.76 74.11 41.81 80.05 91.59 1.28 10.69 13.21 19.44 14.73 33.55 3.29 30.55-0.75 57.45-10 87.83-9.73 32-19.68 61.91-44.94 80.67-34 25.26-65.56 57.85-110 64.56-24.35 3.67-48.84 16.79-74.41 4.72 12.55-62.6 38-121 60.77-180.05 21.64-56.14 46.85-110.89 70.31-166.33a38.06 38.06 0 0 1 13.49-16.54z"/> <path class="cls-2" transform="translate(-823.07 -154)" d="m2472.3 2154.8c1.91-14.62-5.2-20.35-19-24.46-44.59-13.28-84.83-35.9-122.91-62.34-2.62-1.82-3.4-6.29-5-9.53l101.5 14.12c5.07 14.32 19.32 16.09 30.46 19.39 133 39.36 251.66 105.31 355.11 196.76 74.61 66 128.91 146.89 155.17 244.54 4.64 17.25 0.77 33-11 46.12-7 7.83-13.71 18.9-27 14.92a30.3 30.3 0 0 1-21.38-23.14c-23.2-113.82-93.73-195.69-179.92-266.72-70.39-58-149.3-102.42-231.39-141.46-6.75-3.2-13.37-6.1-21-4.5a4.78 4.78 0 0 1-3.64-3.7z"/> <path class="cls-2" transform="translate(-823.07 -154)" d="m2578.1 1956.5c38.71 10.49 77.78 19.84 116.07 31.71 96.24 29.82 189.29 65.68 274.36 122.3 52.07 34.64 103.26 69.45 147.42 113.5a386.57 386.57 0 0 1 72 99.63c12.23 24.19-3.32 41.33-17 55-11.46 11.48-27.54 10.56-37.42-9.09-39-77.61-97.85-136.58-169.55-185.28-123.2-83.68-255.24-146-401.18-177.45-13.06-2.82-22.06-18.06-37.81-11.94 16.11-15.03 30.71-32.09 53.11-38.38z"/> <path class="cls-2" transform="translate(-823.07 -154)" d="m2079.6 2649.8c33.36-101.36 63.75-203.79 85.95-308 17.28-81.13 31.48-163.57 30.66-247.32-0.12-12.42 4.43-23.24 6.94-34.78 12.59-2.75 24.66-2.54 35.23 6.16 1.82 51.19 0.32 102.24-1.55 153.46-1.27 34.69-4.8 68.8-8.61 103-10 90-30.24 178-52.24 265.64-5.57 2.11-8.57 6-8.09 12.13l-0.78 16.86c-4.6 2.48-5.73 5.79-2.41 10.15-0.24 5.36-0.48 10.71-0.69 16.07-10.29 10.7-13.11 25.12-18.93 38.07-9.3 20.72-38.09 25.75-54 9.24-5.56-5.77-9.88-12.72-14.76-19.14 0-5.11 0.09-10.23 0.11-15.35 1.06-2.04 2.11-4.12 3.17-6.19z"/> <path class="cls-2" transform="translate(-823.07 -154)" d="m1832.3 2594.2c10.55-19.06 1.57-38.85 0.62-57.92-0.74-15-1.76-29.15 3.91-42.94q48.38-117.53 95.21-235.67c23.17-58.14 47.92-116.28 61.66-178.07 4.71-21.16 13.88-41.33 21-62 15.93 7.4 35.85-1.07 50.14 12.7-18.49 65.75-36 131.8-54.22 197.61-14.44 52.16-37.82 100.52-54.18 151.74-18 56.19-43.49 109.92-64.29 165.26-6.76 18-23.28 29.17-26.81 50.71-2.27 14.08-21.05-7.44-33.04-1.42zm30.84-2-1.33-0.92-0.19 1.49z"/> <path class="cls-3" transform="translate(-823.07 -154)" d="m3233.4 1468.9c50.49 34 76.11 85.7 96.37 140.05 8.05 21.61 22.53 41.14 23.49 65.31l-16.67 0.9c-32.31-16-62.52-36.26-97.21-47.35-1.92-6.23-5.8-9.63-12.64-8.77-75.44-27.37-152.93-45.15-233.21-50-9.5-0.57-21.51 1.92-21-14 34.24-23.39 66.75-50 110-56.06 7.06-1 4.52-8.81 6-13.65 7.37-5.27 8.92-17.14 22.51-15.68 20.6 2.2 41.4-0.41 62.25 2.84 19.87 3.16 40.76 8.54 60.11-3.59z"/> <path class="cls-2" transform="translate(-823.07 -154)" d="m1749 1855.6v0.31h-0.26a2.66 2.66 0 0 0 0-0.28z"/> <path class="cls-4" transform="translate(-823.07 -154)" d="m2631.9 1515c-19.78-42.22-1.59-62.38 32.83-84.2a467.55 467.55 0 0 0 138.29-134.29c5.95-8.83 16-14.88 24.88-22.83 21.8 51.82 70.95 69.22 118.9 91.25-37.58 43.51-81 76.7-126 108.09-4.13 2.89-8.57 5.42-15.07 3.36-59.92-19.07-111.93 2.38-162.13 32.52-3.84 2.27-7.9 4.1-11.7 6.1z"/> <path class="cls-3" transform="translate(-823.07 -154)" d="m1811.3 1174.6c-41.77 21.13-82.49 43.78-117.88 75.08-20.79 18.38-32.56 14.93-36.78-12.24-7.31-47-12.19-94.33-18.1-141.52-2-15.58 1.43-32.87-14-44.15-5.37-30.24 4.11-59.56 5.58-89.37 0.84-17 12.86-13.46 21.73-9.75 18.07 7.56 31.9 21.06 43.83 36.49 44.74 57.95 79.61 122.06 115.62 185.46z"/> <path class="cls-2" transform="translate(-823.07 -154)" d="M1633.12,2396.24c12.56-8.32,22.51-16.27,6.54-31.54-10.85-10.38-4-22.08,2.29-32.58,66.32-110.58,136.93-218.29,214-321.75,6.21-8.32,16.44-15.45,15.08-28.2,19.36-3.79,36,5.4,53.35,11.12-7.79,37-35,63.27-53.67,94-52,85.46-106.41,169.48-154.13,257.41-14.77,27.2-33.56,51-52.51,76.39-8.12.05-11.15-16.67-23.65-10.76,0,0-.63-1.06-.63-1.07,5.31-8.33,4.3-13.4-6.85-13.2Z"/> <path class="cls-2" transform="translate(-823.07 -154)" d="m3027.4 471.15c-35.68 3.68-59.73 30.4-89.7 45.4-6.43 3.21-11.53 9.38-18.12 11.92-23.6 9.13-48 29.53-72.3 19.24-33.14-14-53.09-46.83-76.17-73.94-9.64-11.32 4.46-16.14 10.38-20.8 29.7-23.46 61.83-43.45 87.86-72 12.86-14.11 22.65-27.69 26.2-46 55.5 29.69 96.33 75.64 135.93 122.9 4.84 5.75 0.83 9.92-4.08 13.28z"/> <path class="cls-2" transform="translate(-823.07 -154)" d="m3001.8 2818c5.81-5.33 12.51-8.66 20.49-9.09 29.1-4 53.6-18.69 78-33.65 78.54-27.24 155.27-58.67 229.49-96.31 13.27-6.73 22-18.68 35.28-24.73 16.92 15.79 34.61 30.87 47.22 50.68-114.3 69.68-240.26 110.68-367.31 148.84-36.57 11-73.63 20.35-110.46 30.47-8.46-11.45 1.49-14.4 8.25-20.48 18.57-16.8 44.51-23.96 59.04-45.73z"/> <path class="cls-2" transform="translate(-823.07 -154)" d="m2972.5 1555.1c-0.48 15.9 11.53 13.41 21 14 80.28 4.81 157.77 22.59 233.21 50 1 7.57 4.61 11.34 12.64 8.78 34.69 11.09 64.9 31.37 97.21 47.34 0.45 12.5 6.73 17 18.72 13.66-1.89 8.18 1.81 12.09 9.73 12.78l10.23 38.56-32.4-0.39c-76.6-44.87-157.87-79-244.24-99-54.82-12.66-110.21-25.58-167.41-22.64-18.45-18.89-10.16-32.1 9-43.28 10.92-6.4 21.56-13.2 32.31-19.81z"/> <path class="cls-3" transform="translate(-823.07 -154)" d="m2952.2 1548.5-42 30.19c-9.72-22.28-38.69-30.11-38.28-60.39 0.12-9.36-19.86-19-32.32-30 31.59-25.75 66.57-47.63 92.62-77.34 26.38-30.08 47-38.6 84.86-18.84 23.86 12.46 42.84 21.3 44.21 50.14-35.27 8.37-53.15 39.14-76.33 62-12.48 12.44-33.93 20.86-32.76 44.24z"/> <path class="cls-2" transform="translate(-823.07 -154)" d="m3548.6 2916.4c22.61 53.44 44.1 107.18 59.27 163.07 18.87 69.48 30.71 139.94 26.95 212.46-2.45 47.35-8.36 94.57-19.48 140.18-15.75 64.6-36.16 129.1-70.78 186-26.21 43.07-46.08 89.86-76.64 130.24-5 6.67-8.9 21-18.54 15.2-11.85-7.11-1.46-15.57 4.24-24.36a1006.4 1006.4 0 0 0 101-201.77 931.33 931.33 0 0 0 56.28-274.1c5.77-111.41-31-212.91-67.45-314.86-4.18-11.79-16.15-25.32 5.15-32.06z"/> <path class="cls-2" transform="translate(-823.07 -154)" d="m1354.9 4296.6a804.27 804.27 0 0 0-81.55-1.35c-54.61 1.83-109.4 1.49-164-0.7-34.38-1.38-69.43-4-100.32-22.72-89.44-34.75-136.73-134.21-136.52-220.53 0.14-60.14 15.34-114.58 32.3-170.06 2.17-7.13 4.1-13.94 10.8-18.17 2.05-18 10.65-33.13 22.39-46.05 10.52-11.57 14.11-26.44 21.58-42.07 23 30.73 32.25 66.76 56.11 93.88a22.76 22.76 0 0 1 4 7.11c9.92 27.55 50.29 39.68 47 68.34-3 26.15-19.59 52.19-27 79.47-0.48 38 8.46 72.34 36.11 100.71 21.3 21.86 50.47 23 76.58 32.37 32 0.35 63.77-2.66 93.65-14 17-6.41 22.14 0 23.11 14.24 4.05 58.35 38.67 98.28 85.76 139.53z"/> <path class="cls-4" transform="translate(-823.07 -154)" d="m3092.7 874.28-14.15-0.26c-3.51-20.52-7.44-41-10.39-61.59-2.35-16.45 23.22-14.7 21.45-31.43-10.51-5.18-15.52 9.38-27.42 4.94-9.68-24.9-20-52.59-31.25-79.87-5.19-12.56-2.31-17.3 11.08-20.81 33.49-8.79 83.15 22.19 95.39 61 16.61 52.76 7.87 81.58-35.52 117.88-3.46 2.93-6.14 6.75-9.19 10.14z"/> <path class="cls-3" transform="translate(-823.07 -154)" d="m2359.3 3334.4c0.87-21.9 13.82-40.16 20.23-60.25 20.35-63.78 29.32-129 38.39-194.7 2.83-20.44 5.31-40.25 3.33-60.79-1-10.27 2.07-19.95 10.76-26.84 7.9-5.62 15.86-6.53 23.9-0.25-14 17.57 2.76 34.21 3.19 51.41 2 81.05-16.81 156.56-48.7 229.71-9.86 22.62-18.11 46.68-39.14 62.47q-5.97-0.41-11.96-0.76z"/> <path class="cls-2" transform="translate(-823.07 -154)" d="m1170.6 4104.4c-36.53 4.21-63.24-7.87-76.75-44.69-10-27.14-1.62-51.07 9-75 4.54-10.26 12.8-6.5 17.78-1.17 36 38.5 85.9 54.19 129.42 80.33 4.42 2.65 15.13-0.61 12.67 10-1.62 7-5 12.35-13.28 15.49-25.46 9.58-50.15 22.01-78.84 15.04z"/> <path class="cls-3" transform="translate(-823.07 -154)" d="m2366.3 1100.9c-36.25-5.92-69-23.47-104.5-31.71-11.89-2.77-8.07-10.33-4.72-15.85 19-31.24 36.52-63.23 53.73-95.49 12.8-24 21.89-23.44 35.66-0.89 4.42 7.23 12.34 13.66 9.49 24 8.09 39.57 13.65 79.37 10.34 119.94z"/> <path class="cls-2" transform="translate(-823.07 -154)" d="m2076.4 2671.4c4.88 6.42 9.2 13.37 14.76 19.14 15.89 16.51 44.68 11.48 54-9.24 5.82-12.95 8.64-27.37 18.93-38.07 3.8 6.8 3.87 13.74 0.87 20.87-19.83 47.12-39.38 94.34-47.73 145.23-22.49-13-47.7-21.77-64.92-42.7 16.63-29.58 17.88-63.02 24.09-95.23z"/> <path class="cls-2" transform="translate(-823.07 -154)" d="m2425.2 2711.2c6.85 26.87 0.76 52.76-7.92 77.75-9.68 27.89-14.89 56-13.33 85.49-18.31 17-42.17 12.64-63.86 16.57-2.7-25.49 0.08-50.65 4.55-75.71l-0.16 0.15c15.87-10.38-1.1-28.14 8.93-39.83 47.62 14.16 61.65 4.58 64-45 0.42-8.03 3.62-13.61 7.79-19.42z"/> <path class="cls-3" transform="translate(-823.07 -154)" d="m1645.9 1957c-3.35 5-5.76 9.83-9.35 13.59-42.93 45-75.54 97.72-111.2 148.17-3.16 4.46-4.58 14-13.21 9.78-6.13-3-7.39-10.24-6.29-16.94 0.72-4.43 1.74-9.06 3.81-13 29-55.23 62.34-107.38 109.79-149.09 4.39-3.86 7.34-12.28 15.17-5.71 4.05 3.46 7.02 8.2 11.28 13.2z"/> <path class="cls-2" transform="translate(-823.07 -154)" d="M1748.72,1855.62c1,8.81-3.31,20.31,11.25,22.29l-.24-.25,5.86,5.85c.72,1.4,1.44,2.78,2.19,4.16l-.48-.05,2.66-3.16c9.48,6.67,2.18,8.73-3.11,11.35-36.34-9.29-65.87,4.64-92.68,27.39-5.07,4.3-7.75,15.21-16.58,8.88-7.37-5.28-10.16-13.39-7.37-24.17,4.66-18,15.91-32.65,22.46-49.55,6.84-17.66,13.77-35.28,20.66-52.92,10.76,9.16,1.72,25.85,18.37,36.53,12.69,8.13,22.78,14.33,37.29,13.93Z"/> <path class="cls-3" transform="translate(-823.07 -154)" d="m1998.6 499.71c13.61 7.5 29.66 10.68 34.25 30.38 2.33 10 17.74 6.57 26.33 11.39 6.52 3.66 13.06 8.28 12.92 16.25-0.15 8.53-9 7.45-14.47 9.64-28 11.06-57.63 5.1-86.39 8.32-15.37-0.6 19.84-55.34 27.36-75.98z"/> <path class="cls-2" transform="translate(-823.07 -154)" d="m3233.4 1468.9c-19.35 12.16-40.24 6.75-60.17 3.65-20.85-3.25-41.65-0.64-62.25-2.84-13.59-1.46-15.14 10.41-22.51 15.68q-12.3-29.77-24.58-59.54c-3-7.35-3.21-17.81 6.73-13.53 51.7 22.21 107.65 31 159.48 52.39 1.43 0.59 2.22 2.76 3.3 4.19z"/> <path class="cls-2" transform="translate(-823.07 -154)" d="m2637.8 2815.8q0.28-39.23 0.55-78.45c49.7 0.14 57.31-6.1 60.44-49.53 6 1.83 10.55 6.88 8.51 12.05-12.11 30.58 4 64.13-10.51 94.27-18.33 10.88-41.16 9.44-58.99 21.66z"/> <path class="cls-2" transform="translate(-823.07 -154)" d="m2952.2 1548.5c-1.14-23.38 20.28-31.8 32.77-44.15 23.18-22.91 41.06-53.68 76.33-62 9.95 14.64 11.66 31.65 15.07 48.32-47.48 7.89-84.99 34.65-124.17 57.83z"/> <path class="cls-2" transform="translate(-823.07 -154)" d="m2366.3 1100.9c3.31-40.57-2.25-80.37-10.34-120 20.89 21.11 63.23 114.77 70.16 155.92-22-9.41-41.44-21.75-59.82-35.92z"/> <path class="cls-2" transform="translate(-823.07 -154)" d="m2628.6 1569.6c63.57-45.63 122-90.06 205.17-40.77-25.39 2-44.27-4-63.59 0-27.38 5.71-55.1 12.21-78.71 26-18.84 11.04-37.06 13.2-62.87 14.77z"/> <path class="cls-3" transform="translate(-823.07 -154)" d="m2456 2991.6c-8-6.28-16-5.37-23.9 0.25-11.51-20.33 3.8-42.92-5.41-64.24-2-4.59 13.33-5.44 21.44-11 2.01 26.35 10.06 50.03 7.87 74.99z"/> <path class="cls-3" transform="translate(-823.07 -154)" d="m2819.4 746c-1.34 18.67-17.35 16.68-28.45 17.86-19.75 2.11-39.83 1-59.78 1.29 0.93-3.47-3.49-9 4.34-9.82 27.98-2.99 55.93-6.23 83.89-9.33z"/> <path class="cls-5" transform="translate(-823.07 -154)" d="m2524.7 1377.2 25.07-1.3a53.8 53.8 0 0 1 12.58 31.49l-25-4.06z"/> <path class="cls-5" transform="translate(-823.07 -154)" d="m3342.9 1739.7 32.4 0.39q2.85 8.1 5.71 16.19c-15.59 1.1-29.24-2.24-38.11-16.58z"/> <path class="cls-3" transform="translate(-823.07 -154)" d="m2359.3 3334.4q6 0.36 12 0.76c-5.46 11.79-6 27.55-28.71 31.85 6.84-13.41 11.78-22.99 16.71-32.61z"/> <path class="cls-5" transform="translate(-823.07 -154)" d="m3355.4 1688.8c-12 3.36-18.29-1.15-18.74-13.65l16.67-0.89z"/> <path class="cls-2" transform="translate(-823.07 -154)" d="m1697.5 1761.1c10.33 6.72 10.43 12.85-1.06 18.3-4.49-6.41-1.24-12.31 1.06-18.3z"/> <path class="cls-3" transform="translate(-823.07 -154)" d="m2885 724.51c0.19 15-7.52 12-16 7 3.24-7.07 10-6.08 16-7z"/> <path class="cls-2" transform="translate(-823.07 -154)" d="m1942.3 3010.8c-1.1 3.82-3.67 7.14-7.49 5.29-4.77-2.31-3.63-7.7-3.48-12.18z"/> <path class="cls-5" transform="translate(-823.07 -154)" d="m3365.1 1701.6c-7.92-0.69-11.62-4.6-9.75-12.77 6.76 1.57 9.3 6.38 9.75 12.77z"/> <path class="cls-3" transform="translate(-823.07 -154)" d="m1632.9 2396.1c11.15-0.2 12.16 4.87 6.85 13.2-5.79-2.6-6.79-7.62-6.85-13.2z"/> <path class="cls-5" transform="translate(-823.07 -154)" d="m3217.3 884.27c-6.76 1.24-9.4-1.25-7.28-8 6.39-0.94 5.73 4.53 7.28 8z"/> <path class="cls-2" transform="translate(-823.07 -154)" d="m2880.7 1606.4c4.6 3.19 8.49 8 3.65 12.26-3.33 2.9-7.36-1.48-8.78-5.92z"/> <path class="cls-3" transform="translate(-823.07 -154)" d="M3121.68,664.87l2.17.64-1.75-1.08Z"/> <path class="cls-2" transform="translate(-823.07 -154)" d="m1937.5 4294.5c-1.25 1-3.07 3-3.65 2.73-3.26-1.71-2.09-4.19-0.43-6.51z"/> <path class="cls-1" transform="translate(-823.07 -154)" d="m1425.7 3351c-6.18 0.8-12.39 1.5-18.6 1.95-8.08 0.6-19.57 16.35-23.28-1.38-2.79-13.31 46.67-1.19 41.88-0.57z"/> <path class="cls-1" transform="translate(-823.07 -154)" d="m2104.3 1352.5c37.54 3.78 74.06 15 101.75 45.57 8.53 9.43 17.74 21.06 6.94 34-9.23 11.1-20.64 14.15-36.56 9.62-43.17-12.27-82.95-37.71-130.73-33.85-5.84 0.47-14.38-11.48-18.65-19.31-3.58-6.59 4.84-10.74 9.32-15 18.48-17.73 42.36-18.37 67.93-21.03z"/> <path class="cls-1" transform="translate(-823.07 -154)" d="m2328.7 1441.5c-10.41 0.37-19.73-1.74-26.43-11.61 22.16-8.44 44.35-12.77 67.59-8.57 16.81 3 27 12.89 32 29.47 4.62 15.42-7.06 21.49-15.27 29.16-19.57 18.25 3.67 31.55 5.66 47.13 0.95 7.5 9.79 16.42 17.32 20.22 27.16 13.73 17.66 33.25 10.81 53.18-7 20.34-21.4 32.38-42.23 33.17-23.66 0.89-34.74-16.39-43.9-35.55-8.08-16.92-12.17-28.45 8.87-42.39 28.54-18.9 26.16-60.37-2.09-80.81-13.62-9.86-20.56-18.24-9.41-33.43 0.7 0.07 1.49 0.13 2.29 0.18 0-0.73 0.36-1.77 0-2.16-3.34-3.6-4.87-2.15-5.21 2.01zm71.33 140.9c-2.78-11.24-7.4-28.76-21.46-28.05-15.07 0.76-20.37 19.16-21.12 33.61-0.75 14.22 7.81 25.84 22.62 25.55 16.97-0.32 16.8-16.09 19.97-31.11zm-42.36-146.72c-6.18 1.82-21.66-2.21-19.63 11.64 2.23 15.23 17.36 24.4 31.71 26 7.67 0.88 20.68-7.09 18.72-19.13-2.37-14.45-13.8-20.18-30.8-18.51z"/> <path class="cls-1" transform="translate(-823.07 -154)" d="m2524.7 1377.2 12.63 26.13c0 8.94-6.49 15.4-13.25 13.63-27.92-7.32-49.26 7.37-72 18.44a70.05 70.05 0 0 1-18.22 5.93c-20.21 3.61-32-9.17-27.84-29.53 7.24-35 55.18-57.57 96.6-45 7.71 2.29 14.74 6.86 22.08 10.4z"/> <path class="cls-1" transform="translate(-823.07 -154)" d="m2058.1 1601.6c-28.78 8.5-57.61 16.84-86.3 25.65-6.69 2-14.41 8.06-18.77-0.55-4-7.9 3-13.09 10-16.59 57.22-28.53 117.65-45.54 181.46-49.72 6-0.4 18.2-6.69 17.77 8.74-35.31 8.88-70.79 17.29-104.16 32.47z"/> <path class="cls-1" transform="translate(-823.07 -154)" d="m2168.1 1584.4c4.2 8.57-0.38 13.86-7.23 17.58q-67 36.42-134.17 72.38c-5.62 3-12.91 4.29-17.38-2.15-4.22-6.07 3.54-9.22 5-14l5.68-5.4 0.09-0.08c7.47 0.51 11.92-4.86 17.1-8.8l1.27-1.16c3.28-1.2 7.46-1.06 8.43-5.68l11-7.46c36.8-15.04 70.67-37.04 110.21-45.23z"/> <path class="cls-1" transform="translate(-823.07 -154)" d="m1925.5 1868.2c-51.65 1.49-104.53 17.36-153.84-11 32.31-15.26 66.33-2.24 98.7-9.91 30.51 3.32 61 3.36 95.7-2.74-10.44 20.99-28.21 17.36-40.56 23.65z"/> <path class="cls-2" transform="translate(-823.07 -154)" d="m2168.1 1584.4c-39.54 8.19-73.41 30.19-110.14 45.22q0.06-14 0.11-28c33.38-15.18 68.86-23.6 104.19-32.47 5.76 3.64 5.94 9.39 5.84 15.25z"/> <path class="cls-5" transform="translate(-823.07 -154)" d="m2037.2 1643.9c-5.18 3.94-9.63 9.31-17.1 8.8 0.37-13.3 8.35-11.79 17.1-8.8z"/> <path class="cls-5" transform="translate(-823.07 -154)" d="m2046.9 1637c-1 4.62-5.15 4.48-8.43 5.68 0.16-3.24-0.94-8 0.74-9.39 3.08-2.5 6.04 0.42 7.69 3.71z"/> <path class="cls-5" transform="translate(-823.07 -154)" d="m2020 1652.8-5.68 5.4z"/> <path class="cls-2" transform="translate(-823.07 -154)" d="m2666.2 521.81c-12.85-2-32.32 3.13-32.3-12.83 0-14.63 19.68-18.88 33.3-20.91 16.41-2.44 19.85 13.79 20.44 23.72 0.96 16.21-14.98 5.57-21.44 10.02z"/> <path class="cls-1" transform="translate(-823.07 -154)" d="m2476.6 513.86c-34.23-11-20.77-40.52-30.66-59.21 13.94 16.44 23.26 35.23 30.66 59.21z"/> <path class="cls-2" transform="translate(-823.07 -154)" d="m2418.2 515.81c9.43 0.27 17.78 3 17.66 13.33-0.1 8.65-8.23 8.72-14.64 7.77-8-1.18-18.46-2.16-19.18-11.84-0.79-10.59 10.07-7.59 16.16-9.26z"/> <path class="cls-1" transform="translate(-823.07 -154)" d="m2664 398.23c-1.75 6-5.41 3.57-6.45 2.66-1.43-1.24-2.23-4.25-1.89-6.26 0.75-4.41 4.55-1.93 5.91-1.08 1.63 0.99 2.08 3.83 2.43 4.68z"/> <path class="cls-1" transform="translate(-823.07 -154)" d="m2650.7 388.49-1.81-1 2.07-2.58 1.75 1.94z"/> <path class="cls-2" transform="translate(-823.07 -154)" d="m2698.8 2687.8c-3.13 43.43-10.74 49.67-60.44 49.53-0.23-1.86-0.47-3.71-0.72-5.57-4-8.91 11-20-3.26-27.76-0.34-5.32-0.67-10.64-1-16 5.7-15.57-2.22-29.49-5.35-44-16.27-104.88-56.44-200-116.06-287.49-29.35-43.07-57.05-87.27-85.25-131.12a82.52 82.52 0 0 1-9.43-19.85c-2.35-7.57-6.12-17.57 2.83-22.22 8.42-4.37 12 5.62 16.76 10.7l56.15 59.74c6.84 11.12 10.69 25.15 26.69 27.33a28 28 0 0 1 1.78 4.32c13.53 24.87 28 48.84 55.79 60.63l8.49 0.58c5.47 20.75 20.29 36.73 28.61 56 11.32 21.36 15.48 46.26 32.11 65l2 10.66c-1.08 6.38 1.7 10.5 7.54 12.81q1.41 5 2.83 10.08c-0.43 7.08-0.24 13.9 7.5 17.47q7.73 32.17 15.44 64.36c4.81 22.23 3.1 45.92 15 66.55q0.95 19.16 1.99 38.25z"/> <path class="cls-1" transform="translate(-823.07 -154)" d="m2585.7 2346.7-8.49-0.58c-3.18-24.73-22-40.35-34.61-59.63-25.6-47.69-58.92-90.54-90.13-140.35l19.77 8.61a4.8 4.8 0 0 0 3.51 3.72c17.9 38.9 48.91 69.25 69.42 106.43 14.71 26.66 37.76 49.22 40.53 81.8z"/> <path class="cls-5" transform="translate(-823.07 -154)" d="m2646.4 2467.8c-16.63-18.74-20.79-43.64-32.11-65 2.58-3.49 5-9.79 7.76-9.91 6.15-0.28 2.19 6.27 3.57 9.65 5.49 13.42 9.58 27.22 18.3 39.41 5.05 7.02 14.76 16.1 2.48 25.85z"/> <path class="cls-5" transform="translate(-823.07 -154)" d="m2696.7 2649.7c-11.88-20.63-10.17-44.32-15-66.55 16.44 19.61 25.54 40.87 15 66.55z"/> <path class="cls-5" transform="translate(-823.07 -154)" d="m2666.2 2518.8c-7.74-3.57-7.93-10.39-7.5-17.47 11.69 1.88 11.64 8.8 7.5 17.47z"/> <path class="cls-5" transform="translate(-823.07 -154)" d="m2655.9 2491.2c-5.84-2.31-8.62-6.43-7.54-12.81 6.98 1.64 10.95 5.05 7.54 12.81z"/> <path class="cls-1" transform="translate(-823.07 -154)" d="m2606 843.2c23.57-6.35 55.58-10.27 82.5-30 13.21-9.66 27-18.58 40.57-27.69 5.32-3.57 10.56-7.33 17-1.16s2.41 10.93-1 16.55c-28.3 46.28-71.48 67.63-123.47 75-11.69 1.66-20.95-3.71-30.91-7.53s-15.42-12.06-12.88-21.41c3.24-11.96 13.19-4.36 28.19-3.76z"/> <path class="cls-1" transform="translate(-823.07 -154)" d="m2115 812.28c-6.48 0.26-7.11-4.09-6.9-8.93 0.87-19.89 33.64-42.29 53-36.16 5.12 1.63 11.24 2.9 12 9.49 0.85 7.43-5.75 7.35-10.5 9.77-15.28 7.77-30.12 16.38-45.14 24.66-0.8 0.44-1.65 0.78-2.46 1.17z"/> <path class="cls-2" transform="translate(-823.07 -154)" d="m3001.8 2818c-14.53 21.82-40.47 29-59.07 45.73-6.76 6.08-16.71 9-8.25 20.48-23.64 14.54-50 7.13-75.11 8.78-3.82 0.25-10-0.74-10.15-6.83-0.14-5.69 2.64-11.46 7.92-13.31 9.37-3.29 19.19-6.37 29-7.06 15.62-1.1 24.93-8.74 37.39-18.42 21.34-16.61 47.87-31.32 78.27-29.37z"/> <path class="cls-5" transform="translate(-823.07 -154)" d="m3100.2 2775.2c-24.37 15-48.87 29.64-78 33.65 6.86-18.19 24.89-21.42 39.58-24.32 13.02-2.54 22.91-18.87 38.42-9.33z"/> <path class="cls-2" transform="translate(-823.07 -154)" d="m2425.2 2711.2c-4.2 5.81-7.37 11.39-7.75 19.39-2.39 49.61-16.42 59.19-64 45-4.84-7.87-8-15.35-6.14-25.66 21.6-121.21 26-243.71 26.23-366.47 0.09-61-0.46-122.06-0.4-183.09a126.1 126.1 0 0 1 3-27c1.2-5.4 5.48-9.78 12.25-7.79 5.83 1.71 4.79 6.71 4.83 11.27 0.53 55.26 17.67 108 24.33 162.44 10.51 85.91 17.85 171.88 14.62 258.49-0.3 8.12-3 16.14-4.59 24.21l0.66 6.59q-1.53 41.3-3.04 82.62z"/> <path class="cls-5" transform="translate(-823.07 -154)" d="m2542.6 2286.5c12.57 19.28 31.43 34.9 34.61 59.63-27.75-11.79-42.26-35.76-55.79-60.63z"/> <path class="cls-5" transform="translate(-823.07 -154)" d="m2519.6 2281.2c-16-2.18-19.85-16.21-26.69-27.33 20.7-2.41 21.5 14.6 26.69 27.33z"/> <path class="cls-5" transform="translate(-823.07 -154)" d="m2628 2644.1c3.13 14.5 11.05 28.42 5.35 44-12.49-13.37-6.49-28.98-5.35-44z"/> <path class="cls-5" transform="translate(-823.07 -154)" d="m2634.3 2704c14.28 7.71-0.69 18.85 3.26 27.76-8.79-8.35-6.03-18.05-3.26-27.76z"/> <path class="cls-5" transform="translate(-823.07 -154)" d="m2167.9 2600.1c-0.48-6.18 2.52-10 8.09-12.13 3.36 8.03-0.64 11.25-8.09 12.13z"/> <path class="cls-5" transform="translate(-823.07 -154)" d="m2164.7 2627.1c-3.32-4.36-2.19-7.67 2.41-10.15 7.16 5.27 4.55 8.23-2.41 10.15z"/> <path class="cls-5" transform="translate(-823.07 -154)" d="m2428.2 2628.6-0.66-6.59c3.48 1.87 3.75 4.03 0.66 6.59z"/> <path class="cls-5" transform="translate(-823.07 -154)" d="m2344.6 2815.3-1.89-1 1.73 1.15z"/> <path class="cls-5" transform="translate(-823.07 -154)" d="m2079.6 2649.8c-1.06 2.07-2.11 4.15-3.15 6.22 1.06-2.07 2.11-4.15 3.15-6.22z"/> <polygon class="cls-3" points="1040.1 2438.2 1038.6 2438.8 1038.8 2437.3"/> <path class="cls-5" transform="translate(-823.07 -154)" d="m3239.4 1627.8c-8 2.56-11.65-1.21-12.64-8.78 6.84-0.85 10.72 2.55 12.64 8.78z"/> <path class="cls-2" transform="translate(-823.07 -154)" d="M1760,1877.91c1.27-3.78.62-10.87,7.1-8,5.6,2.5,3.12,9.33,2.9,14.5l-2.67,3.17.48.05c-.75-1.38-1.47-2.76-2.19-4.16l-5.86-5.85Z"/> <path class="cls-2" transform="translate(-823.07 -154)" d="M1749,1855.9c.62-4.09.5-8.82,6.68-8.42a2.54,2.54,0,0,1,1.73,1.75c.13,6.13-4.5,6-8.69,6.39Z"/> <path class="cls-5" transform="translate(-823.07 -154)" d="m1759.7 1877.7 5.86 5.85z"/> <path class="cls-1" transform="translate(-823.07 -154)" d="m1767.8 1887.7-0.48-0.05z"/> <path class="cls-2" transform="translate(-823.07 -154)" d="m2400 1582.4c-3.16 15-3 30.79-20 31.11-14.81 0.29-23.37-11.33-22.62-25.55 0.75-14.45 6.05-32.85 21.12-33.61 14.09-0.71 18.71 16.81 21.5 28.05z"/> <path class="cls-3" transform="translate(-823.07 -154)" d="m2357.6 1435.7c17-1.65 28.43 4.06 30.8 18.54 2 12-11 20-18.72 19.13-14.35-1.63-29.48-10.8-31.71-26-2-13.88 13.45-9.85 19.63-11.67z"/> <path class="cls-3" transform="translate(-823.07 -154)" d="M2328.66,1441.49c.37-4.16,1.87-5.61,5.17-2,.36.39,0,1.43,0,2.16-.8-.05-1.59-.11-2.29-.18.11,0-1.37.92-1.37.92Z"/> <path class="cls-1" transform="translate(-823.07 -154)" d="m1971.2 490.42c-1.69 8.78-2.16 18.16-12 23.16 3.77-7.58 7.77-15.35 12-23.16z"/> <path class="cls-1" transform="translate(-823.07 -154)" d="m2029.8 396.57q-4.83 6.46-9.49 13 5.15-7.41 9.43-13.61z"/> <path class="cls-2" transform="translate(-823.07 -154)" d="m2386 2942.4a34.34 34.34 0 0 1 7.21-17.25c-61.23 5.59-119.67 6.66-174.85-11.88-59-19.84-112.51-52.42-164.63-86.7-41.84-27.52-82.51-56.64-122.67-86.47l-2.3-1.7 1.66-1.39-210.73-169.65 27.31 60.27c-6.58 3.51-14.51 8.71-24.87 15.48-18.75 12.27-37.66 24.38-57.07 35.57-6.13 3.53-10.91 6.38-10.75 14-4.94-1.84-8.91-0.35-14.11 1-17 4.36-26.29 24.41-46.13 21.62-14.59-8.11-30.8-1.06-46.71-6.49-50-17-95.51-40.79-135.48-75.25-38.07-34.31-73.11-71.39-102.72-113.9-15.69 8.69-12.12 25.64-17.65 38.37-5.35-1.06-8.74 1.73-11 6-29.1 55.56-60.14 110.25-85.88 167.33-7.21 16-25 30.07-19 51.5 37.75 20.74 74.11 41.8 80.05 91.59 1.27 10.69 13.21 19.43 14.73 33.55 3.28 30.54-0.75 57.43-10 87.82-9.73 32-19.68 61.91-45 80.67-34 25.27-65.55 57.86-110 64.55-24.36 3.69-48.84 16.81-74.42 4.73-20.5 43.54-30.37 89.74-34.48 137.39 47-2.39 81.28 15 110.84 54.28 46.23 61.37 60.49 132.16 75.88 203.84 3 14.13-6.91 26.6-1.34 40.05-5.62 24.75-143.3 195.34-144.09 220.5 54 99 133.22 169.77 238.76 209.86 39.22 14.89 41.35 20.15 37.54 64.43-3.89 45-3.63 91.14 22.28 131.26 42.21 65.35 107.82 85.32 180.72 89.77 6.4 0.42 12.81 1.27 19.21 1.2 82.62-0.94 165.26-2.55 247.8 3.22 23.18 1.62 45-11.88 45.5-28.42 1-33.24-4.51-64.64-30.52-88.51-3.59-3.27-8-5.38-4.79-10.29 3-4.49 8.18-2.84 12.51-1.29 8.67 3.11 16.44 7.77 22.49 14.83 28.15 32.93 34.71 68.94 14.33 108.45 22.8 8.19 41.54 3.23 52.28-17.62 10.22-19.87 12-41 4.22-63.55-19.14-55.11-81-71.27-139.55-68.44a583 583 0 0 0-104.4 14c-5.93 1.39-11.76-1.39-13.29-7.13-1.58-5.94 6.26-5.1 8.41-7.74 20.8-25.54 52.18-25.46 79.81-35 24.77-8.56 53.18 0.53 75.38-23.43 43-46.33 71.69-97.46 87.18-159.75 16.2-65.16 16.48-129.47 3.7-192.94-10.36-51.52-28.06-101.55-55.82-148.61-34.43-58.35-72-111-129.11-149.59-53-35.75-109.34-61.44-172-74-5.09-1-17.37 1.63-15-10.79 1.45-7.42 6.75-13 14.94-13.75a118.5 118.5 0 0 1 21.72-0.18c73.27 7.2 135.45 40.71 191.86 85.08 11 8.68 24.94 14.32 33.64 27 14.08 20.62 27.73 42.55 46 59.06 30.42 27.49 45.48 64.42 63.22 98.62 18.17 35 29.67 73.84 40 113.08 19 72.42 22.93 144.36 4.85 215.56-17 66.71-41 132-99.44 177.69 29.6 23.85 65.71 35.36 85.1 71.53s22.37 69.08 6 105.23c1.37 1.25 2.72 2.51 4.09 3.78 42.18 3.55 84.57 1.87 126.68 4.11 53.14 2.84 72.09-15.46 67.81-69.53-2.78-35.36-19.13-61.68-46.65-82.57 6.18-4.56 10.36-3.47 14.75-1.51 46.17 20.59 69.86 81 51.31 128.56-2.42 6.21-14.29 13.68-3 21 7.64 4.92 17.68 4.94 26.07-0.27 19.94-12.34 32.38-30.62 32.06-53.86-0.86-62-47-97.83-99.05-103.07-37.92-3.8-74.79 0.85-112 5.27-6.46 0.76-16.5 5.32-19.73-2.9-3.39-8.64 3.87-15.53 12-18.63 55.08-21 90.19-65.93 125.44-108.86 51-62.09 85-134.67 109.13-210.71 20-63.18 28-129.42 26.17-195.91-0.75-27.55 1.07-63.3-14.59-80.22-19.09-20.6-7.43-31-0.64-43.51 17.5-32.14 40.53-60.72 55.59-94.84 30.24-68.61 60.8-136.72 76.55-210.66 12.31-57.91 26.63-115.38 26.69-174.82h1.2s-3.49-49.94-7.19-59.07zm-978.87 410.56m760.29-165.5c-0.21 1.78-0.33 3.65-0.38 5.58-0.19-3.6 0.65-7.83 0.38-5.58zm107.69-233a1.47 1.47 0 0 0-0.06 0.14v-0.12h0.09c0-0.14 0.11-0.29 0.17-0.43 0.01 0.12-0.2 0.41-0.2 0.41z"/> <polygon class="cls-1" points="901.51 2450.8 945 2413.6 988.77 2446.1 925.23 2472.9 882.06 2495.7 871.09 2468"/> </svg>