<?xml version='1.0' encoding='utf-8'?>
<svg xmlns="http://www.w3.org/2000/svg" data-name="Layer 1" viewBox="0 0 4155.3 4274"> <defs> <style>.cls-1{fill:#ef9857;}.cls-2{fill:#fafcf4;}.cls-3{fill:#de7c20;}.cls-4{fill:#9c3e1f;}.cls-5{fill:#1b3d55;}.cls-6{fill:#f69a92;}</style> </defs> <path class="cls-1" transform="translate(-172.35 -113)" d="m2854.2 1848.4c49 6.32 96.36 19.87 143.91 32.65-3.18 40.08-3 80.3-5.47 120.47-11.7 192.88-51.51 378.85-127 557-13.45 31.75-26.79 63.78-36.66 96.73-8.34 27.85-2.4 55.28 21.44 74.52s49.51 12.07 73.82-0.44c26.87-13.82 48.92-33.72 67.87-57.13 11.57-1.5 23.32-0.5 32.35-11.4 28.93-34.92 51.15-74.05 74.11-112.87 32.31-54.62 43.13-117.68 69.81-174.59 5-10.66 15.79-16.5 17.05-31.78 6-73.49 31.29-143.86 31.62-219.11 0.26-56.79 5.81-113.51-1.57-170.25 75.43 41.61 135-5.25 195.29-37.71 75.91-40.88 132.52-105.26 189.55-168.36 1.3 8.11-0.33 19 4.35 23.9 38.19 39.75 55.19 90.73 73.94 140.14 22.2 58.5 45.77 116.54 53.27 180.18 2.43 20.52-7.42 48.69 18.13 64.12-46.55 31.55-101.46 42.82-152.84 62.62-12.26 4.72-26.12 5.8-26.12 23.41-23.37-7.55-18 13.21-21.06 23-65.15 205.19-157.83 396.2-289.27 567.62-16.64 21.7-32.56 44.32-45.75 68.2s-18.26 50.42 2.09 73.4c21.17 23.9 47.74 17.53 72.64 7.11 39.24-16.41 71-44.33 99.79-74.36 94.58-98.77 172.57-209.48 232.92-332.5 6.91-14.08 8.63-33.32 28.3-38.54 2.1 4 5.87 7.94 6.07 12 8.1 169.42 4.23 338.07-33.12 504.53-43.58 194.2-71.66 390.49-81 589.46-2.45 52.21-8.08 104.37-21.56 155.24-12.65 1.4-20.91 10.08-30.58 17.17-105 76.93-221.53 96.87-345.11 60-72.8-21.72-124-77.79-174.9-131.47-12.9-13.58-21.32-32.3-42.62-35.84-2.59-8.62-0.14-19.43-10.67-24.54-14.3-20.48-29.78-40.3-42.67-61.68-18.69-31-48.34-55.91-53.31-94.62 12 1.8 23.55-0.19 35.24-3.36 131.74-35.81 257.18-86.91 375.67-154.75 44.33-25.38 91.17-47.53 127.06-85.18 19.48-20.46 29.43-46.46 10.92-71.33-19.44-26.13-44.14-15-66.78-1.08-111 68.38-228.6 123.25-350.42 168.85-59.86 22.4-118.61 50.07-184.07 54-39.37-59.89-65.69-126-84.18-194.39-11.3-41.8-22.89-85.44-12.62-130.23 3.58-15.59 12.5-35.93-11-40.64-24.55-4.9-22 19.73-26.51 34.29-2.73 8.87-2 18.87-2.43 28.38-2.85 58.05 8.92 113.73 28.67 167.82 8.29 22.69 4.74 30.71-21.8 29.49-138.18-6.33-265.19-49.78-386.95-112.26-61.34-31.48-111.35-76.41-156.21-127.9-6-6.86-12.07-17.87-22.12-15s-8.12 16-11.76 24.46c-1.79 4.17-0.71 9.47-1.64 14.12-12.35 61.64-14.32 125-30.28 186-34.48 1.82-68.94 5-103.42 5.23-149.09 1-298.17 1.17-447.26 1.64-9.92-64.89-13.18-130.39-19-195.68-19.53-219.94-9.69-439.22 21-656.79 28.23-200 4.46-389.27-79.93-572.18-40.69-88.18-65.56-181.53-82-277.12-15.66-91.07-34.33-180.57-105.63-248.29-11.76-11.17-19.36-27-27.91-41.27-64.68-107.88-91.29-226.75-101.53-350.5-0.85-10.2 7.28-28.15-10-29.27-11.86-0.77-11.22 16-14 26q-41.51 149.85-82.89 299.74c-6.46 23.52-14.6 45.67-38.37 66.31 24.4-91 21.83-169-62.73-222.1-71.55-53.37-131.38-54.58-187.72-3.8-20.49-3.13-33.16 9-45.4 22.7-73.16 81.75-59.48 200.36 31.8 261.29 44.77 29.89 95.8 38.59 146 19 15.94-6.23 26.27-7.24 44.9-1.33-56.32 64.1-64.54 142.44-77.4 220-18.1 109.24-18.8 220.5-40.58 329.34-6.47 32.32-18 64.46-15 98.45-3.83 11 0 24.24-14.31 38.25-2.55-69.57-7.81-134.92-6.39-200.13 1-47.52-6.12-84.1-53-109-26.94-14.28-53.79-35.71-59.93-70.92 24.65-23.7 49.73-47 73.72-71.41 8.23-8.36 26.1-17.25 13.51-31.32-12.43-13.89-26-1.41-37 7.62-26.41 21.69-50.19 46.63-79.84 64.3-12.42-7.51-25.66-14.12-31.41-28.88 5-8.94 11.79-7.74 16.82-1.2 6.39 8.28 15.43 12.09 14.56-0.61-1.26-18.68 11.28-26.37 19.66-38.09 5.63-7.89 9.61-17.61 2.89-26.48s-14.93-1.86-22.64 0.24c-19.2 5.23-38.52 10-57.79 15-5.31 1.74-10.18 1.65-13.94-3.25-0.9-21.56-20.87-34.67-24.37-55.06 35.09-8 71.18-3.51 106.36-8.41 16.39-2.28 46.31 9.22 45.3-18.27-0.83-22.58-28.65-14-45.06-14.33-40.34-0.82-80.72 0.3-121.08 0.63-55.35-175.47-31.14-343.83 46.78-506.79 9.2-19.25 12.13-37.31 12-58.17-0.87-152.64-13.69-305.62 12.93-457.54 13.1-74.71 55.76-97.53 121.76-62 98.33 52.95 180.83 126.9 262.63 201.6q15.82 14.48 31.72 28.88c-57.53 6.8-71.45 51.38-82.57 97.1-11.23 46.21-20.07 92.82-17.78 141 1.19 25.16 2.86 49.83 32.82 55.57 30.78 5.89 39.92-16.77 48.62-40.77 31.51-86.94 53-178.47 113.3-252.55 8.45-10.37 1.93-14.4-7.4-17.16 37.59-7.59 75.16-15.3 113.9-10.42-52.71 73.24-90.19 152.93-103.64 243-2 13.28-7.14 28.1 11.3 31.47 16.85 3.08 17.12-13.18 19.77-24 15.09-61.38 36.74-120.16 66.47-176 13.33-25.05 25-51 37.38-76.54l19.5 1.4c-15.84 30.38-33.13 60.11-47.22 91.28-25 55.28-45.68 112.24-53.47 172.9-1.24 9.67-4.92 24.09 10.37 26.06 14.08 1.82 15.3-10.72 17.77-21.71a765.34 765.34 0 0 1 31.64-105.58c22.61-59.13 57.77-110.91 91.48-163.65 30.81-1.32 61.45-0.91 91.16 9.09-13.57 19.34-28 38.13-40.6 58.13-42 66.91-62.37 141.19-71.84 218.81-2.93 24 0.68 49 27.94 54.49 24.84 5 37.35-16.13 46.67-36.52 1-2.16 1.79-4.42 2.77-6.58 41.19-90.32 85.48-178.71 156.49-250.33 5.43-5.48 5-9.82 1.27-15.24 26.61-13.15 41-38.73 59.49-59.85 47.72-54.67 102.49-101.64 157.28-148.71 12.41-7.13 26.88-11.25 35.29-24.21l-0.28 0.16 8.31-6.81s0.15 0.94 0.13 0.92c74.14-20.6 84.6-16.19 120.75 51.27 7.18 13.41 14 27 21 40.5 44.94 172 85 344.87 108.28 521.49 19.79 150 27.54 300.81 35.82 451.65 3.76 68.62 19.91 133.76 63.24 189.39 50.44 64.77 122.38 86.83 199 99 12.83 2 26.41 0.26 37.66 8.86-1.81 15.33-4 30.64-5.42 46-18 190.91-68.2 371.94-163.87 539.31-11.16 19.52-21.46 40.35-27.42 61.88-12.28 44.36 17 78.39 62.49 76.67 39.59-1.51 63.87-29 90.91-52 11.33 1.59 19.78-1.84 28.62-10.18 21-19.77 33.43-45.21 50.09-67.65 70.42-94.85 99.46-204.2 124.37-316.78 18.86-85.24 10.73-170.53 12.76-255.9 46.49-0.63 91.21 11.41 136.56 19-10.65 7.89-7.08 19.41-7.19 29.74-1.81 159.09-24.89 315.29-61.23 470-24.93 106.07-66.09 206.4-103.67 308.09-12.68 34.31-12.66 67.87 14.15 97 16.2 30.17 77.56 40.61 104.43 15.45 26.36-24.68 56.28-43.44 79.87-74 42.21-54.68 71.71-113.32 96.81-176.4 14.26-35.86 21.2-75.39 38.63-108 23.11-43.16 20.69-88.34 30.08-132.44 3.12-16.25 1.12-32.72 5.57-49.26 30.02-111.59 43.94-225.28 38.75-341.04zm-1383.9-750.3c-39.7-35.15-85.47-40.79-135.15-28-14 3.6-27.86 7-30.19 24.65-25.53 2.78-49.68 10.1-66 30.81-44.48 56.26-50.48 120-24.57 184.3 30.73 76.23 101.66 108.83 186 98.15 67-8.47 131.85-52.81 147.8-133.29 15.45-78.11-14.96-148.5-77.89-176.62zm379.87-306.57c0-8.35 1.54-17-0.25-25-14-62.11-25.68-125-44.36-185.71-10.1-32.82-20.83-66.55-38.83-97.16-8.17-13.9-15.94-17.49-28-9.71-68.49 44.37-122 103.81-166 171.57-23.47 36.1-20.66 39.28 19.91 57.71 8.48 3.86 15.08 11.75 23.48 15.91 63.5 31.41 99.41 104 178.33 114.28 39 5.08 56.53-2.26 55.72-41.89zm-1276.3-114.07h-0.25q0 62.7 0 125.39c0 10.93 0.19 21.24 12.15 27.41s20.47 0.45 29.09-6.37c54.67-43.37 109-87.32 171.41-119.47 20.28-10.45 24.79-21.4 10.88-41.61a775.26 775.26 0 0 0-143.65-157.58c-13.08-10.85-20.19-50.29-50-27.81-17.87 13.49-21.64 39-28.48 60.46-2.44 7.66-1.12 16.59-1.14 24.94q-0.1 57.33-0.01 114.64zm2331.3 2904.7c4.58-1 13.93-2.71 23.11-5.08 57.72-14.9 113.18-36.2 167.57-60.33 96.81-43 192.18-88.71 280.11-148.44 9.71-6.59 23.36-13.66 12.64-27.57-9.76-12.67-20.13-3.3-30.8 3.2-41.67 25.39-83.51 50.6-126.26 74.09-105.84 58.14-218.73 99.59-332.7 138.34-8.24 2.8-21.78 2.63-20.93 15.42 0.89 13.58 13.1 10.56 27.26 10.37zm-1198.1-1723.6c0.89-8.88-2.44-16-8.08-22.79-76.16-92-160.88-174.94-257.88-244.83-8.8-6.34-21.63-22.16-32.69-5.28-9.51 14.52 5.58 22.3 15.52 31 71.42 62.76 144.61 123.7 206 197 15.26 18.23 30.57 36.42 45.64 54.81 6 7.37 13 9.27 22.15 6.87 9.43-2.47 8.88-9.74 9.34-16.78zm-202.11-311.09c-12.56 0.39-21-3.71-24.55 5.36s0.37 16.16 8.75 20.79 16.36 10 25.1 13.67c82.23 34.74 166 65.92 246.28 105.18 12.59 6.16 28.15 15.14 36.1-4.84 6.47-16.29-7.58-22.63-19.64-28.69-66-33.19-135.19-58.76-204.14-84.9-24.44-9.25-48.65-19.03-67.9-26.57zm117.9-70.47c-42.75 0.3-77.3-3.7-111.44 4.46-11.27 2.7-20.89 6.1-20 20.24 0.85 14 11.75 13.51 21 13.27 99.76-2.68 198.82 7.14 297.94 16 11.86 1.06 26.22 2.08 27.69-14.21 1.5-16.46-10.54-20.27-25.23-21.57-66.18-5.83-132.19-12.58-190-18.18zm2026.9 1154.6c-18.43 10.79-18.53 10.74-21.88 17.61-35.63 73.05-74.79 143.91-130.33 204.18-8.71 9.46-18.4 20.12-8.08 30.19 11.57 11.29 22.21-2.32 29.8-10.19 65.41-67.88 115.47-144.18 130.45-241.79z"/> <path class="cls-2" transform="translate(-172.35 -113)" d="m733 2047.3c-3-34 8.54-66.13 15-98.45 21.78-108.86 22.49-220.1 40.61-329.34 12.87-77.51 21.09-155.85 77.41-220-18.63-5.91-29-4.9-44.9 1.33-50.16 19.58-101.19 10.88-146-19-91.28-60.94-105-179.54-31.8-261.29 12.24-13.67 24.91-25.83 45.39-22.74 7.1 17.9-7.7 25.31-16.9 35.62-42.27 47.39-42.29 101.44-20.48 156.31 20.95 52.71 73.87 85.42 126.4 83.06 55-2.47 108-41.54 127-94.92 22.68-63.68 7.07-121.64-28.27-176.23 84.56 53.1 87.13 131 62.73 222.1 23.77-20.64 31.91-42.79 38.37-66.31q41.14-149.94 82.88-299.74c2.78-10 2.14-26.8 14-26 17.24 1.12 9.11 19.07 10 29.27 10.24 123.75 36.85 242.62 101.53 350.5 8.55 14.26 16.15 30.1 27.91 41.27 71.3 67.72 90 157.22 105.63 248.29 16.44 95.59 41.31 188.94 82 277.12 84.4 182.91 108.17 372.18 79.94 572.18-30.7 217.57-40.54 436.85-21 656.79 5.8 65.29 9.06 130.79 19 195.68-3.67 29.39 10 56.6 10.65 85.45-67.54-17.09-128.88-49.26-191.34-78.69-46.62-32.77-95.37-62.92-139.48-98.79-136.51-111-236.32-250.89-312.7-408.39-21.81-45-52.5-86.26-57.28-138.3 25.35 15 25.45 43.44 33.75 70.05 19.1-25.18 29.47-48.74 21.82-77.37-14.68-3-9.32 14.42-20 18.35-16-21.84-21.18-46-21.86-73.91-1.56-64-10-127.23-38.5-186.21-4.34-9-3.61-20.89-3.64-31.45q-0.39-136.23 0-272.47c0.02-25.64-7.69-47.27-27.87-63.77zm350.11-619.1c3.89 0.42 5.94-1.25 5.91-5.25l1.2-1.12c8-0.9 12.21-6.2 15-13.08 17.83-14.33 17.3-28.42-0.56-42.27l-0.25-0.38c-20.55-26.61-83.21-31.55-116-9.13a10.48 10.48 0 0 0-6.17 1.16l-6.24 7.62c-15.93 18.94-5.36 33.73 7.57 48.14 11.43 13.45 19.86 30.64 40.55 32.57-1.75 9.26-2.88 18.68-5.37 27.74-7.74 28.14-17 56.37-50.55 62.61s-35.43-25-47.2-43.86c-4.66-7.49-9.29-15.12-19.28-11.28-8.67 3.33-10.83 11.57-11.3 20.58-2.25 42.71 43.32 78.36 84.78 67.62 25-6.49 41.53-23.75 56.47-43.52 50.64 62.64 124.25 62.11 151.29 2 6.48-14.4 12.81-32.93-4.77-41.44-20-9.67-20.16 12.78-25.84 23.6-19.62 37.44-57.59 40.3-81.8 5.41-14.25-20.52-17.89-43.73-15.57-68.18l13.19-6.48c7.37-0.36 11-4.87 12.65-11.49zm301 816h1.19c0 15.37-0.26 30.75 0.09 46.11 0.27 12.05 5.8 20.74 18.66 21.66 14.61 1.05 21.67-7.55 22.87-21.23 2.79-32-1.39-63.66-6.79-95.12-1.78-10.32-7.83-17.74-19.14-17s-16.32 9.08-16.72 19.45c-0.61 15.39-0.18 30.78-0.18 46.14zm-465.34 320.42c-13.16-23.89-14.3-57.85-26.94-88.58-3.58-8.71-10-13.31-19.65-11.05-8.38 2-10.15 8.85-11 16.28-4 34.35 8.56 65.37 20.54 96.14 3.85 9.9 14.36 16.08 26.55 13.76 11.27-2.16 9.81-11.57 10.5-26.55zm309.17 86.39c6.72 25.19 3.33 53.91 20 77.38 5.55 7.79 7.37 23.16 22.34 15.54 11.45-5.83 16.54-16.62 12.88-30-6.23-22.79-12.73-45.51-18.54-68.4-3-12-8.47-19.79-22.1-16.58-10.89 2.5-15.01 10.39-14.58 22.06zm-8.33 103.39c-6-24-11-48.3-18.66-71.78-3.07-9.46-10.79-19.57-23.92-16.8s-14.07 13.91-14.57 25c-1.3 29.14 13.83 51.92 28.77 74.66 3.83 5.83 9.58 11.86 17.57 9.1 9-3.13 11.48-11.16 10.81-20.21zm-248.95-464.87c-13.18-6.1-23.26-4.85-27.87 7.83-5 13.76 1.48 25.74 10.51 35.53 9.33 10.12 19.91 5.28 28.6-1.42 8.41-6.5 15.47-13 27.7-12.66 16.08 0.48 24.47-9.72 20.91-25.4-4.21-18.54-19-19.05-33.75-14.65-9.39 2.8-14.82 16.83-26.1 10.77zm195.66 749.48c-14.79 1.73-20.32 12.08-16.12 25.07 3.92 12.15 10.87 23.86 18.71 34.05 10.74 13.94 19.75 40.53 42.39 25.66 21-13.78-4.58-28.33-9.18-42.42-3.25-10-9.48-19.21-15.45-28.06-4.59-6.79-10.27-13.3-20.35-14.3zm109.82 36.67c-0.48-18.7-31.94-60.69-44.1-59.69-12.72 1-18.48 8.66-18.58 21.22-0.19 22.46 27 57.47 44.45 57.2 13.39-0.17 19.24-6.93 18.23-18.7zm64.55-13.63c-5.92-21.74-13.35-44.12-28.12-62.92-5.57-7.09-14.9-7-22.87-3.67-8.69 3.67-13.17 12.26-9.64 20.27a634.55 634.55 0 0 0 30.2 59.26c3.77 6.57 12.6 5.41 19.59 4 8.3-1.74 11.06-7.9 10.84-16.91zm-19.9-785c-0.88 19.44 2.53 35.2 17.37 46 5.3 3.86 11.75 2.61 16.27-1.66 14.5-13.68 2.13-28.7 1.49-43.15a13.15 13.15 0 0 0-0.51-3.49c-3.93-11.77-4.21-28.35-22.89-24.75-16.59 3.27-10.02 18.65-11.73 27.13z"/> <path class="cls-1" transform="translate(-172.35 -113)" d="m4117.4 635.1c-13.62 9.27-26.89 19.09-40.93 27.66-18.73 11.42-28.86 28.63-30.85 49.27-7.28 75.32 3.33 149.16 20.85 222.28 4.67 19.49 9 39.07 13.44 58.62-14.8 7.23-29.3 15.18-44.47 21.55-122 51.29-250.2 69.56-381.49 71.82-13.52 0.23-28.75-6-40.3 7l-13.29-20.59-1.92-8.5c-7.69-24.69-15.12-49.48-23.14-74.07-28.65-87.81-45-177.61-44.43-270.2 9.12 2.14 18.53 3.44 27.32 6.54 89.53 31.57 180.17 60.18 273.85 75.28 44.74 7.21 93.21 26.6 136.36-8.86 18.68 0.88 40-8.59 52.77 14.72 17.64-39.4 15.31-46.94-16.91-62.07-7.48-3.51-13.82-9.37-21.08-13.44-70.36-39.5-140-80.54-211.88-117-16.48-8.36-24.18-28.79-41.21-29.49-35.11-1.44-58.32-24.65-86.52-39.24-25.58-13.23-46.52-38.28-79.49-34.9q3.95-21 7.88-42v-0.06c14.11-24.65 29-49 32.54-78.05l10.41-16.37a243.19 243.19 0 0 0 44.1-63.34l1.18-1.5-0.9-1.71c8.12-5.88 16.79-11.38 15.3-23.51l-1.7-1.66 1.47 1.83c10.39 0.57 14.5-5 14.28-14.72l-1.53-1.43s1.33 1.62 1.31 1.61c9.82 0.17 14.37-5 14.63-14.49l1.16 0.62c59.55-47.81 119.67-94.43 193-120.45 13.58-4.82 26.24-9.82 40.7-8.74-5.43 7-8.09 12.38-0.1 21.26a308.74 308.74 0 0 1 36 48.79c61 102.81 90.07 217.4 121.6 331.14 9.8 35.05 5.42 72.86 21.99 106.4zm-323.56-380.49c-3.4-14.08-11.18-16.55-25.11-8.27-42.81 25.46-74 61.74-99.15 104-7.06 11.85-7.81 23.54 4.69 30.89 13.13 7.73 19.21-3.54 24.11-13.21 17.5-34.51 42.7-62.2 74.85-83.25 10.82-7.13 16.86-16.19 20.61-30.16z"/> <path class="cls-3" transform="translate(-172.35 -113)" d="m960.65 4184.4c12.93-65.89 55.33-107.65 124-112.45 38.18-2.66 44.62-19.74 43.17-52.2-3.44-76.72-25.49-149.59-42.62-223.55-8.78-38-23.65-74.5-26.9-113.77 11.55-2.29 23.07-6.26 34.69-6.59 123.11-3.48 246.18-10.08 369.42-7-3.25 27.17-6.13 54.4-9.8 81.53-20 147.65-44.62 294.52-75.31 440.35-37.22 46.85-84.08 71.73-145.46 65.46-16.45-1.68-33.54 1.84-49.77-0.67-67.92-10.52-80.21 13.92-95.79-73.4a42.69 42.69 0 0 0-1.91-6.85c-2.43-6.77-5.27-14.61-12.74-15.78-9.83-1.55-14.54 7.31-18.25 14.41-11.53 22.14 2.27 41.17 8.66 61.06-7.51 25.87-36.83 13.21-50.33 28.49-35.7-2.92-35.85-35.58-48.44-57.85q-1.27-10.55-2.62-21.19zm236.54 1.6c-1.71-12.5-5.18-23.71-21.22-22.46-15.37 1.19-14.66 13-14.15 23.76 0.62 12.78 4.41 24.82 20.19 23.23 13.62-1.38 14.36-13.49 15.18-24.49z"/> <path class="cls-4" transform="translate(-172.35 -113)" d="m2460.1 2714.1c-26.8-29.09-26.83-62.65-14.15-97 37.58-101.69 78.74-202 103.67-308.09 36.34-154.67 59.43-310.87 61.23-470 0.11-10.33-3.46-21.85 7.19-29.74 79.53 8.08 158.15 21.73 236.17 39 5.2 115.77-8.71 229.45-38.72 341.14-4.45 16.54-2.45 33-5.55 49.27-11 3.54-12.73 13.63-14.86 22.62-9.39 39.44-26.22 76.11-40.55 113.77-33.87 89-72.55 175.47-129.08 252.67-40.64 55.58-86.91 102.34-165.35 86.36z"/> <path class="cls-4" transform="translate(-172.35 -113)" d="m2992.2 2672.2c-18.95 23.41-41 43.31-67.87 57.13-24.31 12.51-49.95 19.72-73.82 0.44s-29.78-46.67-21.44-74.52c9.87-32.95 23.21-65 36.66-96.73 75.46-178.16 115.27-364.12 127-557 2.43-40.17 2.28-80.39 5.46-120.47 54.21 12.46 108.17 25.88 160.72 44.32 14.4 5 29.86 8.42 40.93 20.36 2.71 82.17-4.14 164.21-17.51 244.7-28.85 173.61-82.64 338.61-190.13 481.77z"/> <path class="cls-4" transform="translate(-172.35 -113)" d="M1462.42,3668.81c-123.24-3.09-246.31,3.51-369.42,7-11.62.33-23.14,4.3-34.69,6.59-17.09-41.83-29.3-85.12-38.78-129.23,133.41,5.93,265.58-20.48,399-15.49a38.53,38.53,0,0,0,17.31-3.46c12.24-5.8,29.9-7.78,27.42-27.38-2.52-19.8-19.23-19-33.19-18.55-35.6,1.28-71.14,5.28-106.73,5.75-107.22,1.42-214.45,1.67-321.68,2.37q-2.68-9.29-5.35-18.54s.42.18.42.18q-2.37-9.45-4.73-18.89c18.15-8.64,37.68-6,56.45-5.26,90.88,3.7,180.65-9.48,270.85-16.2,10.53-.79,19.29-3.7,21-15.15,1.64-11-5.89-19.09-14.49-22.37-9.61-3.67-20.89-4.48-31.36-4.13-56,1.89-111.9,5.29-167.88,6.68-52.12,1.3-104.22,6.52-156.42,2.11q-9.3-33.27-18.59-66.52c6.16-19.72,22.73-13.58,36-13.66,87-.55,174.11-.58,261.16-.73,18.07,0,36-.47,50-14.36,62.46,29.43,123.8,61.6,191.35,78.68q1.76,35.94,3.48,71.93Q1478,3564.51,1462.42,3668.81Z"/> <path class="cls-4" transform="translate(-172.35 -113)" d="m2265.7 2440.8c-27 23-51.32 50.47-90.91 52-45.51 1.72-74.77-32.31-62.49-76.67 6-21.53 16.26-42.36 27.42-61.88 95.67-167.37 145.87-348.4 163.87-539.31 1.45-15.37 3.61-30.69 5.42-46 51 4.56 102.28 7.24 152.21 20-2.09 55.68 0.73 111.31-7 167.08-16.93 122.07-48.17 239.52-105.86 348.67-24.77 46.83-54.94 90.82-82.66 136.11z"/> <path class="cls-1" transform="translate(-172.35 -113)" d="m4139.1 1243.8c10.77 34.76 10.3 71 14.21 106.69 1.38 12.55-2.61 25.88 5.25 37.52q0.38 27.39 0.73 54.78c-12.6 33.07 1 69.3-12.32 102.28-4.67-6.45-11.74-7.06-18.87-8.49-86.31-17.29-173.42-29.38-260.47-42.23-52.56-7.76-106.66-8.06-157.18-27.75-0.74-12.86-1.41-25.72-2.25-38.58-3-45.44-2.19-91.48-21.26-134.38q-1-6.9-2-13.81c1-2.41 2-4.81 3-7.21 98.93 11.86 198 20.82 297.42 6.69 52.16-7.42 105.87-9.05 153.74-35.51z"/> <path class="cls-3" transform="translate(-172.35 -113)" d="m1298.7 3309.6c-14.07 13.89-32 14.33-50 14.36-87.05 0.15-174.11 0.18-261.16 0.73-13.22 0.08-29.79-6.06-36 13.66-61.16-171.45-104.19-348.31-154.63-522.88-4.78-16.55-5.2-34.35-7.64-51.57 1.66-27.21 2.68-54.33-12.71-78.8-0.06-8.7-4.44-19.69 10.8-20.22l1.88-0.76c4.78 52 35.47 93.3 57.28 138.3 76.38 157.5 176.19 297.36 312.7 408.39 44.11 35.87 92.86 66.02 139.48 98.79z"/> <path class="cls-1" transform="translate(-172.35 -113)" d="m3645.3 1668q23.94-61 47.89-122c6.43 20.64 27.08 21.41 42.21 28.29 121.6 55.12 243.67 109.25 365.6 163.71 2.53 14.23-10.78 23.52-11.49 36.74-5 9.5-10.06 19-14.89 28.52-37.41 74.26-74.8 148.52-137.69 205.72 3.79-27.28-5.4-51.56-16.52-75.73-36.41-79.1-95.52-139.62-161.91-192.93-34.77-27.91-67.77-60.38-113.2-72.32z"/> <path class="cls-4" transform="translate(-172.35 -113)" d="m4101 1738c-121.93-54.46-244-108.59-365.6-163.81-15.13-6.88-35.78-7.65-42.21-28.29 1.51-19.09 11.18-37 8.43-56.7q4.44-11.33 8.86-22.64c50.52 19.69 104.62 20 157.18 27.75 87.05 12.85 174.16 24.94 260.47 42.23 7.13 1.43 14.2 2 18.87 8.51-3.61 67.12-21.55 130.81-46 192.95z"/> <path class="cls-4" transform="translate(-172.35 -113)" d="M3645.3,1668c45.43,12,78.43,44.46,113.2,72.37,66.39,53.31,125.5,113.83,161.91,192.93,11.12,24.17,20.31,48.45,16.52,75.74-39.5,45.9-84.5,85.41-136.1,117.26-10.54-9.66-6.34-22.37-6.16-33.75.52-32.35-4.93-64.08-11.31-95.35-20.13-98.61-83.42-169.29-155.15-234.05-9.41-8.5-22.94-14.23-20-30.73Z"/> <path class="cls-4" transform="translate(-172.35 -113)" d="m3968.4 792.86c-43.17 35.46-91.64 16.07-136.38 8.86-93.68-15.1-184.32-43.71-273.85-75.28-8.79-3.1-18.2-4.4-27.33-6.54l-3.33-6.66q1.27-11.41 2.55-22.81c6.56-9.75 14-8.48 24.27-4.61 39 14.73 78.35 28.81 118 41.64 17.35 5.61 47.25 19.92 51.49 7.22 7.34-22-23.29-27.25-39.71-35.9-48.47-25.5-101.31-42-148.13-71.13-0.92-33.51 9.58-64.51 21-95.31 22.57 0.91 40.35 14.1 59.19 23.93 126.15 65.8 236.88 154.64 352.23 236.59z"/> <path class="cls-4" transform="translate(-172.35 -113)" d="m1463 645.22c3.74 5.42 4.16 9.77-1.27 15.24-71 71.62-115.3 160-156.48 250.33-1 2.16-1.79 4.42-2.78 6.59-9.32 20.37-21.83 41.5-46.67 36.51-27.27-5.48-30.87-30.51-27.94-54.49 9.47-77.62 29.85-151.9 71.84-218.81 12.55-20 27-38.79 40.6-58.12 42.22 0.29 82.19 12.89 122.7 22.75z"/> <path class="cls-4" transform="translate(-172.35 -113)" d="m1033.8 625.14c9.33 2.77 15.84 6.8 7.4 17.17-60.21 74.08-81.79 165.61-113.3 252.55-8.7 24-17.84 46.66-48.62 40.76-30-5.73-31.63-30.4-32.82-55.56-2.29-48.18 6.55-94.79 17.78-141 11.12-45.72 25-90.3 82.57-97.09z"/> <path class="cls-3" transform="translate(-172.35 -113)" d="m3608.2 1732.4c-2.93 16.5 10.6 22.23 20 30.73 71.73 64.76 135 135.44 155.15 234.05 6.38 31.27 11.83 63 11.31 95.35-0.18 11.38-4.38 24.09 6.16 33.75-13.77 15.05-32.73 20.78-50.75 28.17-25.55-15.43-15.7-43.59-18.12-64.11-7.51-63.64-31.08-121.68-53.28-180.18-18.75-49.41-35.75-100.39-73.94-140.14-4.68-4.86-3-15.79-4.35-23.9q3.91-6.85 7.82-13.72z"/> <path class="cls-1" transform="translate(-172.35 -113)" d="m1001.6 3496.4c107.23-0.7 214.46-1 321.68-2.37 35.59-0.47 71.13-4.47 106.73-5.75 14-0.5 30.67-1.25 33.19 18.55 2.48 19.6-15.18 21.58-27.42 27.38a38.53 38.53 0 0 1-17.31 3.46c-133.4-5-265.57 21.42-399 15.49q-8.92-28.38-17.87-56.76z"/> <path class="cls-5" transform="translate(-172.35 -113)" d="m569.69 1674.7c29.65-17.67 53.43-42.61 79.84-64.3 11-9 24.6-21.52 37-7.62 12.59 14.07-5.29 23-13.51 31.32-24 24.39-49.07 47.71-73.72 71.41-71.65 66.3-133 141.87-196.08 216-14.23 16.73-26.14 58-53.58 36.28-30.18-23.91 9.73-44.48 22.93-62.65 58.18-80 132.01-146.38 197.12-220.44z"/> <path class="cls-3" transform="translate(-172.35 -113)" d="m2992.2 2672.2c107.49-143.16 161.28-308.17 190.1-481.78 13.37-80.49 20.22-162.53 17.51-244.7a11 11 0 0 1 6.52 1l8.62 5.11 0.61 0.36c7.39 56.74 1.84 113.46 1.58 170.25-0.33 75.25-25.58 145.62-31.62 219.11-1.26 15.28-12.06 21.12-17.05 31.78-26.68 56.91-37.5 120-69.8 174.59-23 38.82-45.19 78-74.12 112.87-9.03 10.91-20.78 9.91-32.35 11.41z"/> <path class="cls-3" transform="translate(-172.35 -113)" d="m2265.7 2440.8c27.72-45.29 57.89-89.28 82.66-136.12 57.69-109.15 88.93-226.6 105.86-348.67 7.73-55.77 4.91-111.4 7-167.08l20.32 1.36c-2 85.37 6.1 170.66-12.76 255.9-24.91 112.58-53.95 221.93-124.37 316.78-16.66 22.44-29.13 47.88-50.09 67.65-8.84 8.36-17.28 11.77-28.62 10.18z"/> <path class="cls-5" transform="translate(-172.35 -113)" d="m459 1496c40.36-0.33 80.74-1.45 121.08-0.63 16.41 0.34 44.23-8.26 45.06 14.33 1 27.49-28.91 16-45.3 18.27-35.18 4.9-71.27 0.36-106.36 8.4-72.83 0.6-142.49 21.43-213.53 33.36-10.51 1.76-20.85 4.46-31.28 6.69-15.72 3.35-36 13.47-42-9.78-6.86-26.62 18.72-26 34.43-29.39 48.69-10.35 97.71-19.27 146.76-27.86 30.25-5.32 60.75-9 91.14-13.39z"/> <path class="cls-5" transform="translate(-172.35 -113)" d="m497.84 1591.4c3.75 4.9 8.63 5 13.91 3.26 18.36 8.59 26.36 19.6 8.52 36.64-101.52 43.94-199.27 94.68-290.6 157.59-15.24 10.49-35 38.85-53.09 10.84-15.61-24.21 16-32.09 30.21-43.25 87-68.24 187.28-112.45 287.16-157.33 2.06-0.93 3.53-3.16 5.32-4.73 3.28-2.86 2.82-3.85-1.43-3.02z"/> <path class="cls-1" transform="translate(-172.35 -113)" d="M970.13,3404.83c52.2,4.41,104.3-.81,156.42-2.11,56-1.39,111.9-4.79,167.88-6.68,10.47-.35,21.75.46,31.36,4.13,8.6,3.28,16.13,11.35,14.49,22.37-1.71,11.45-10.47,14.36-21,15.15-90.2,6.72-180,19.9-270.85,16.2-18.77-.77-38.3-3.38-56.45,5.26Z"/> <path class="cls-4" transform="translate(-172.35 -113)" d="m1249.1 613.37c-33.71 52.74-68.87 104.52-91.47 163.65a763.31 763.31 0 0 0-31.71 105.57c-2.47 11-3.69 23.52-17.77 21.7-15.29-2-11.61-16.39-10.37-26.06 7.79-60.67 28.47-117.62 53.47-172.9 14.1-31.17 31.38-60.9 47.22-91.28z"/> <path class="cls-4" transform="translate(-172.35 -113)" d="m1179 612.66c-12.41 25.53-24 51.48-37.38 76.53-29.73 55.88-51.38 114.66-66.47 176-2.65 10.78-2.92 27-19.77 24-18.44-3.37-13.29-18.19-11.3-31.47 13.45-90.06 50.94-169.75 103.64-243z"/> <path class="cls-1" transform="translate(-172.35 -113)" d="m3536.1 627.65c46.82 29.1 99.66 45.63 148.13 71.13 16.42 8.65 47 13.93 39.71 35.9-4.24 12.7-34.14-1.61-51.49-7.22-39.69-12.83-79-26.91-118-41.64-10.26-3.87-17.71-5.14-24.27 4.61a14.8 14.8 0 0 1-2.7-5.91c4.61-18.68 0-38.78 8.62-56.87z"/> <path class="cls-2" transform="translate(-172.35 -113)" d="m3527.6 713.24 3.33 6.66c-0.53 92.59 15.79 182.39 44.44 270.2 8 24.59 15.45 49.38 23.14 74.07-18.05-7.38-22.58-21-28.29-39.82-9.83-32.33-29.67-61.62-34.58-96.32-0.61-4.35-6.07-8.55-5.67-12.44 6.29-61.27-19.05-119.8-15.43-180.8 0.59-9.79 0.38-19.39 13.06-21.55z"/> <path class="cls-2" transform="translate(-172.35 -113)" d="m1865 498.5c-7-13.51-13.85-27.1-21-40.51-36.14-67.46-46.6-71.87-120.74-51.27 4-20.19 44.57-38.58 65.52-31.64 56.45 18.73 70.27 58.09 76.22 123.42z"/> <path class="cls-3" transform="translate(-172.35 -113)" d="M520.27,1631.32c17.84-17,9.84-28-8.52-36.64,19.3-5,38.62-9.75,57.82-15,7.71-2.1,15.88-9.17,22.64-.24s2.74,18.59-2.89,26.47c-8.38,11.73-20.92,19.42-19.65,38.1.86,12.7-8.18,8.89-14.57.61-5-6.54-11.82-7.74-16.82,1.2Z"/> <path class="cls-2" transform="translate(-172.35 -113)" d="m3687.9 1272.6c-1 2.4-2 4.8-3 7.21-17.08-2.83-23.33-11.85-28.18-29.85a764 764 0 0 0-43.69-120c-8.79-19.11-13.5-37.06-12.73-57.29l13.29 20.6c16 39.27 28.65 80 51.06 116.41 5.23 19.4 7.69 39.81 20.39 56.53a15.58 15.58 0 0 0 2.86 6.39z"/> <path class="cls-2" transform="translate(-172.35 -113)" d="m3710.5 1466.6q-4.42 11.32-8.86 22.64c-3.66-15-24.63-29.09-2.22-45.94 2.44-1.83 2.76-10.22 0.77-13.66-25.09-43.45-9.08-90.68-13.2-136 19.07 42.9 18.27 88.94 21.26 134.38 0.84 12.86 1.51 25.72 2.25 38.58z"/> <path class="cls-2" transform="translate(-172.35 -113)" d="m963.28 4205.6-2.58 7.62c-38.84 6.32-72.85-13.43-109.66-22 36.1-10.25 73.11-5.26 109.61-6.87q1.35 10.69 2.63 21.25z"/> <path class="cls-6" transform="translate(-172.35 -113)" d="m787.35 2664.8c-15.24 0.53-10.86 11.52-10.8 20.22a19.3 19.3 0 0 1-3.79 5.82c-20.49-25-8.59-56.53-16.69-84.09-0.64-2.19 5.18-8.45 8.75-9.21 5.51-1.16 6.68 4.49 7.84 9.29 4.68 19.37 9.76 38.65 14.69 57.97z"/> <path class="cls-1" transform="translate(-172.35 -113)" d="m772.76 2690.9a19.3 19.3 0 0 0 3.79-5.82c15.39 24.47 14.37 51.59 12.71 78.8-15.7-22.02-14.38-47.86-16.5-72.98z"/> <path class="cls-2" transform="translate(-172.35 -113)" d="m960.65 4227.3c-29.78 15.53-61.63 5.49-92.51 7.49 29.72-16.22 61.86-3.2 92.51-7.49z"/> <path class="cls-2" transform="translate(-172.35 -113)" d="m1715 412.46c-8.41 13-22.87 17.07-35.29 24.21-4.59-31.94 18.57-23.43 35.29-24.21z"/> <path class="cls-2" transform="translate(-172.35 -113)" d="m3674.6 284.91c1.49 12.13-7.18 17.63-15.3 23.51-0.45-11.42-4.8-25.42 15.3-23.51z"/> <path class="cls-2" transform="translate(-172.35 -113)" d="m3688.7 270.36c0.22 9.75-3.89 15.29-14.28 14.72-2.27-11.71 2.62-16.51 14.28-14.72z"/> <path class="cls-2" transform="translate(-172.35 -113)" d="m3703.1 256.05c-0.26 9.5-4.81 14.66-14.63 14.49-1.84-11.6 3.07-16.39 14.63-14.49z"/> <path class="cls-2" transform="translate(-172.35 -113)" d="m846.84 4234.7-7.29-0.3c2.64-4.96 5.05-4.46 7.29 0.3z"/> <path class="cls-1" transform="translate(-172.35 -113)" d="m3214.9 1951.8-8.62-5.11c4.45-0.96 7.28 0.83 8.62 5.11z"/> <path class="cls-4" transform="translate(-172.35 -113)" d="M996.71,3478s-.41-.16-.42-.18A3,3,0,0,1,996.71,3478Z"/> <path class="cls-2" transform="translate(-172.35 -113)" d="m1723.1 405.8-8.31 6.81z"/> <path class="cls-4" transform="translate(-172.35 -113)" d="m4117.4 635.1c-16.57-33.54-12.19-71.35-21.91-106.43-31.53-113.74-60.62-228.33-121.6-331.14a308.74 308.74 0 0 0-36-48.79c-8-8.88-5.33-14.22 0.1-21.26 45.46-7.5 90.43-23.34 137.21-8.08 114.33 113.73 160.54 255.45 169.3 412.6l-0.49 0.93-4.61 8c-34.64 39.13-78.91 65.88-122 94.17z"/> <path class="cls-4" transform="translate(-172.35 -113)" d="m3664.7 1209.7c-22.42-36.43-35.08-77.15-51.07-116.42 11.55-12.92 26.78-6.74 40.3-7 131.29-2.26 259.5-20.53 381.49-71.82 15.17-6.37 29.67-14.32 44.47-21.55 13.87 47.39 31.84 93.73 37.52 143.28-25.44-13.35-42.59 9.12-62.8 15.81-126.75 42.01-256.93 58.88-389.91 57.7z"/> <path class="cls-1" transform="translate(-172.35 -113)" d="m4244.5 532c-8.76-157.11-55-298.83-169.34-412.56 101.34 0 181.88 41.87 227.28 132 46.74 92.78 24.79 182.51-35.91 263.83-5.62 7.45-11.33 15.53-22.03 16.73z"/> <path class="cls-4" transform="translate(-172.35 -113)" d="m3687.9 1272.6a15.44 15.44 0 0 1-2.81-6.36c4-18.69 19.4-14 31.67-15 43.79-3.49 88.25-3 131.28-10.65 94.49-16.8 189.21-33.76 279.83-67.15l11.22 70.35c-47.87 26.46-101.58 28.09-153.77 35.51-99.42 14.12-198.49 5.16-297.42-6.7z"/> <path class="cls-3" transform="translate(-172.35 -113)" d="m4127.9 1173.4c-90.62 33.39-185.34 50.35-279.83 67.15-43 7.64-87.49 7.16-131.28 10.65-12.27 1-27.63-3.68-31.67 15-12.71-16.73-15.17-37.14-20.4-56.54 133 1.19 263.17-15.67 389.92-57.66 20.21-6.69 37.36-29.16 62.8-15.81 8.26 11.06 9.86 24 10.46 37.21z"/> <path class="cls-1" transform="translate(-172.35 -113)" d="m4239.4 540.84 4.61-8c1.23 4.3-0.49 6.84-4.61 8z"/> <path class="cls-4" transform="translate(-172.35 -113)" d="m2367.2 3524.6c0.31-9.73 4.37-15.2 15-13.19 60.63 14.71 122.67 12.06 184.28 14.83-2.31 8.7-1.66 20.35 5.66 22.52 44.17 13.08 69.86 50.19 103.64 76.69 53.65 42.1 117.89 58 183 68.15 17.66 2.76 45 17.58 58.48-12.64 10.56 5.15 8.11 16 10.7 24.58-9.28 66.12-27.16 129.89-52.18 191.72-95.94 31.44-190.77 26.14-286.16-4.63-18.58-6-27.68-14.55-34-30.3-21.86-81.09-59-154.91-103.44-225.88-25.15-40.05-60.58-71.65-84.98-111.85z"/> <path class="cls-4" transform="translate(-172.35 -113)" d="m3571.1 2240.5c50 91.62 75 190 79.66 293.92-19.67 5.23-21.39 24.46-28.3 38.54-60.35 123-138.34 233.73-232.92 332.5-28.75 30-60.55 57.95-99.79 74.36-24.9 10.42-51.47 16.79-72.64-7.11-20.35-23-15.22-49.6-2.09-73.4s29.11-46.5 45.75-68.2c131.44-171.42 224.12-362.43 289.27-567.62 3.1-9.78-2.31-30.54 21.06-22.99z"/> <path class="cls-4" transform="translate(-172.35 -113)" d="m2030.1 3295.9q-7.93 52.56-15.86 105.12c-8.86-4.51-18.13-4.63-27.88-3.82-52 4.33-104.11 11.55-156.18 11.6-99.85 0.1-199.68 9.39-299.52 1.3-21.15-1.71-36.1 2.48-31.4 28.53 4 22.32 22 13.75 34.52 14.17 143.09 4.74 285.89-8.65 428.93-7.54 13.55 0.11 29-5.9 40.07 8q0.24 6.82 0.46 13.65-2 5-4.07 10c-19.6 7.2-40.05 3.15-60.09 4.51-143.31 9.73-286.63 19.32-430.44 13.64-3.62-12.25-3.8-26-15.08-34.93q-1.73-36-3.48-71.92c-0.63-28.84-14.33-56-10.66-85.44 149.09-0.47 298.18-0.63 447.26-1.64 34.48-0.24 68.94-3.41 103.42-5.23z"/> <path class="cls-4" transform="translate(-172.35 -113)" d="m2798.5 3495.8c-7.74-22.33-31.84-37.11-29.6-64 65.47-3.88 124.21-31.55 184.07-54 121.82-45.6 239.45-100.47 350.42-168.85 22.64-13.95 47.34-25.05 66.78 1.08 18.51 24.87 8.56 50.88-10.92 71.32-35.89 37.66-82.73 59.81-127.06 85.19-118.49 67.84-243.93 118.94-375.67 154.75-11.69 3.18-23.21 5.16-35.27 3.37-4.83 0.51-8.2-1.36-10-5.93 0.23-10.13-3.86-17.87-12.75-22.93z"/> <path class="cls-5" transform="translate(-172.35 -113)" d="m876.47 1101.7c35.34 54.59 50.95 112.55 28.27 176.23-19 53.38-72 92.45-127 94.92-52.53 2.36-105.45-30.35-126.4-83.06-21.81-54.87-21.79-108.92 20.48-156.31 9.2-10.31 24-17.72 16.9-35.62 56.37-50.74 116.2-49.53 187.75 3.84zm-119.73 52.71c-4.37-19.37-15.15-32.9-36.18-31.82-17.26 0.88-24.33 14.87-22.72 29.77 1.95 17.9 9.49 37.37 30.49 37.34 19.17-0.03 26-17.68 28.41-35.29z"/> <path class="cls-5" transform="translate(-172.35 -113)" d="m1305 1094.7c2.33-17.69 16.17-21 30.19-24.65 49.68-12.77 95.45-7.13 135.13 28 15.34 36.87 37.75 71.12 40.48 112.74 3.39 51.81-9 97.29-52.3 129.58-41.51 31-86.7 44.11-137 21.39-109.55-49.52-94.92-175.8-43-231.09 10.24-10.89 26.5-17.51 26.5-35.97zm-9 54.57c5.79 16.81 4.29 40.79 30.1 40.74 20.4 0 28.2-17.63 27.63-34.72-0.65-19.29-16.46-28.7-34-29.62-13.66-0.71-25.34 5.99-23.73 23.6z"/> <path class="cls-6" transform="translate(-172.35 -113)" d="m1850.2 791.48c0.81 39.63-16.72 47-55.69 41.91-78.92-10.24-114.83-82.87-178.33-114.28-8.4-4.16-15-12.05-23.48-15.91-40.57-18.43-43.38-21.61-19.91-57.71 44-67.76 97.53-127.2 166-171.57 12-7.78 19.78-4.19 28 9.71 18 30.61 28.73 64.34 38.83 97.16 18.68 60.71 30.34 123.6 44.36 185.71 1.76 7.94 0.22 16.63 0.22 24.98z"/> <path class="cls-6" transform="translate(-172.35 -113)" d="M573.92,677.41q0-57.31,0-114.64c0-8.35-1.3-17.28,1.14-24.94,6.84-21.43,10.61-47,28.48-60.46,29.78-22.48,36.89,17,50,27.81A775.26,775.26,0,0,1,797.2,662.76c13.91,20.21,9.4,31.16-10.88,41.61-62.42,32.15-116.74,76.1-171.41,119.47-8.62,6.82-17.06,12.58-29.09,6.37s-12.16-16.48-12.15-27.41q0-62.7,0-125.39Z"/> <path class="cls-1" transform="translate(-172.35 -113)" d="m2811.3 3518.8c1.77 4.57 5.14 6.44 10 5.93 5 38.7 34.65 63.62 53.34 94.61 12.89 21.38 28.37 41.2 42.67 61.68-13.49 30.18-40.85 15.36-58.51 12.6-65.08-10.16-129.32-26-183-68.15-33.78-26.5-59.47-63.61-103.64-76.69-7.32-2.17-8-13.82-5.65-22.52 81.59-3.03 163.39 1.25 244.79-7.46z"/> <path class="cls-2" transform="translate(-172.35 -113)" d="m1305 1094.7c0 18.46-16.24 25.08-26.46 36-51.93 55.29-66.56 181.57 43 231.09 50.27 22.72 95.46 9.61 137-21.39 43.26-32.29 55.69-77.77 52.3-129.58-2.73-41.62-25.14-75.87-40.48-112.74 63 28.15 93.36 98.54 77.88 176.63-16 80.48-80.83 124.82-147.8 133.29-84.35 10.68-155.28-21.92-186-98.15-25.91-64.29-19.91-128 24.57-184.3 16.29-20.75 40.44-28.07 65.99-30.85z"/> <path class="cls-3" transform="translate(-172.35 -113)" d="m2460.1 2714.1c78.44 16 124.71-30.78 165.35-86.27 56.53-77.2 95.21-163.68 129.08-252.67 14.33-37.66 31.16-74.33 40.55-113.77 2.13-9 3.84-19.08 14.86-22.62-9.41 44.09-7 89.27-30.1 132.43-17.43 32.56-24.37 72.09-38.63 108-25.1 63.08-54.6 121.72-96.8 176.39-23.6 30.57-53.52 49.33-79.88 74-26.87 25.12-88.23 14.68-104.43-15.49z"/> <path class="cls-4" transform="translate(-172.35 -113)" d="m2905.2 3582.2c-14.16 0.19-26.37 3.21-27.26-10.37-0.85-12.79 12.69-12.62 20.93-15.42 114-38.75 226.86-80.2 332.7-138.34 42.75-23.49 84.59-48.7 126.26-74.09 10.67-6.5 21-15.87 30.8-3.2 10.72 13.91-2.93 21-12.64 27.57-87.93 59.73-183.3 105.48-280.11 148.44-54.39 24.13-109.85 45.43-167.57 60.33-9.18 2.37-18.53 4.08-23.11 5.08z"/> <path class="cls-5" transform="translate(-172.35 -113)" d="m1707.1 1858.5c-0.49 7 0.06 14.32-9.4 16.81-9.13 2.4-16.12 0.5-22.15-6.87-15.07-18.39-30.38-36.58-45.64-54.81-61.36-73.29-134.55-134.23-206-197-9.94-8.73-25-16.51-15.52-31 11.06-16.88 23.89-1.06 32.69 5.28 97 69.89 181.72 152.88 257.88 244.83 5.67 6.79 9 13.89 8.14 22.76z"/> <path class="cls-5" transform="translate(-172.35 -113)" d="m1505 1547.5c19.29 7.56 43.5 17.32 67.9 26.57 69 26.14 138.13 51.71 204.14 84.9 12.06 6.06 26.11 12.4 19.64 28.69-8 20-23.51 11-36.1 4.84-80.31-39.26-164-70.44-246.28-105.18-8.74-3.68-16.76-9.06-25.1-13.67s-12.37-11.67-8.75-20.79 11.95-4.97 24.55-5.36z"/> <path class="cls-5" transform="translate(-172.35 -113)" d="m1622.9 1477c57.81 5.61 123.82 12.36 189.91 18.19 14.69 1.3 26.73 5.11 25.23 21.57-1.47 16.29-15.83 15.27-27.69 14.21-99.12-8.86-198.18-18.68-297.94-16-9.24 0.24-20.14 0.68-21-13.27-0.85-14.14 8.77-17.54 20-20.24 34.19-8.17 68.74-4.17 111.49-4.46z"/> <path class="cls-4" transform="translate(-172.35 -113)" d="m3649.8 2631.6c-15 97.61-65 173.91-130.49 241.79-7.59 7.87-18.23 21.48-29.8 10.19-10.32-10.07-0.63-20.73 8.08-30.19 55.54-60.27 94.7-131.13 130.33-204.18 3.35-6.87 3.45-6.82 21.88-17.61z"/> <path class="cls-5" transform="translate(-172.35 -113)" d="M1055,1447.75c-2.32,24.45,1.32,47.66,15.57,68.18,24.21,34.89,62.18,32,81.8-5.41,5.68-10.82,5.87-33.27,25.84-23.6,17.58,8.51,11.25,27,4.77,41.44-27,60.09-100.65,60.62-151.29-2-14.94,19.77-31.42,37-56.47,43.52-41.46,10.74-87-24.91-84.78-67.62.47-9,2.63-17.25,11.3-20.58,10-3.84,14.62,3.79,19.28,11.28,11.77,18.88,13.67,50.1,47.2,43.86s42.81-34.47,50.55-62.61c2.49-9.06,3.62-18.48,5.36-27.75Z"/> <path class="cls-6" transform="translate(-172.35 -113)" d="M1384.09,2244.2c0-15.36-.43-30.75.16-46.09.4-10.37,5.39-18.67,16.72-19.45s17.36,6.64,19.14,17c5.4,31.46,9.58,63.08,6.79,95.12-1.2,13.68-8.26,22.28-22.87,21.23-12.86-.92-18.39-9.61-18.66-21.66-.35-15.36-.09-30.74-.09-46.11Z"/> <path class="cls-6" transform="translate(-172.35 -113)" d="m918.77 2564.6c-0.69 15 0.77 24.4-10.52 26.55-12.19 2.32-22.7-3.86-26.55-13.76-12-30.77-24.58-61.79-20.54-96.14 0.87-7.43 2.64-14.31 11-16.28 9.66-2.26 16.07 2.34 19.65 11.05 12.66 30.73 13.8 64.69 26.96 88.58z"/> <path class="cls-3" transform="translate(-172.35 -113)" d="m1055 1447.8-30.87-1.31c-20.68-1.92-29.11-19.11-40.54-32.56 10.49-8.72-23.78-44.34 19.91-33.12 15.1 36.84 40.75 23 65.45 13.6 35.52-12.86 16.82 16.26 21.26 27.46l-1.19 1.12-5.92 5.25-2.25 1.58c-7 0.77-10.9 5-12.66 11.5z"/> <path class="cls-6" transform="translate(-172.35 -113)" d="m1227.9 2651c-0.43-11.64 3.69-19.53 14.61-22.11 13.63-3.21 19.06 4.63 22.1 16.58 5.81 22.89 12.31 45.61 18.54 68.4 3.66 13.43-1.43 24.22-12.88 30-15 7.62-16.79-7.75-22.34-15.54-16.7-23.45-13.31-52.17-20.03-77.33z"/> <path class="cls-6" transform="translate(-172.35 -113)" d="m1219.6 2754.4c0.67 9-1.81 17.07-10.81 20.2-8 2.76-13.74-3.27-17.57-9.1-14.94-22.74-30.07-45.52-28.77-74.66 0.5-11.12 1.31-22.23 14.57-25s20.85 7.34 23.92 16.8c7.62 23.45 12.62 47.77 18.66 71.76z"/> <path class="cls-6" transform="translate(-172.35 -113)" d="m970.66 2289.5c11.28 6.06 16.71-8 26.1-10.77 14.76-4.4 29.54-3.89 33.75 14.65 3.56 15.68-4.83 25.88-20.91 25.4-12.23-0.37-19.29 6.16-27.7 12.66-8.69 6.7-19.27 11.54-28.6 1.42-9-9.79-15.5-21.77-10.51-35.53 4.61-12.68 14.69-13.93 27.87-7.83z"/> <path class="cls-6" transform="translate(-172.35 -113)" d="m1166.3 3039c10.08 1 15.76 7.48 20.35 14.3 6 8.85 12.2 18.07 15.45 28.06 4.6 14.09 30.19 28.64 9.18 42.42-22.64 14.87-31.65-11.72-42.39-25.66-7.84-10.19-14.79-21.9-18.71-34.05-4.2-12.96 1.33-23.31 16.12-25.07z"/> <path class="cls-6" transform="translate(-172.35 -113)" d="m1276.1 3075.7c1 11.77-4.84 18.53-18.23 18.73-17.45 0.27-44.64-34.74-44.45-57.2 0.1-12.56 5.86-20.17 18.58-21.22 12.16-1.01 43.62 40.99 44.1 59.69z"/> <path class="cls-6" transform="translate(-172.35 -113)" d="m1340.7 3062.1c0.22 9-2.54 15.17-10.84 16.9-7 1.45-15.82 2.61-19.59-4a634.55 634.55 0 0 1-30.2-59.26c-3.53-8 1-16.6 9.64-20.27 8-3.37 17.3-3.42 22.87 3.67 14.77 18.89 22.2 41.22 28.12 62.96z"/> <path class="cls-1" transform="translate(-172.35 -113)" d="m1090.2 1421.8c-4.44-11.2 14.26-40.32-21.26-27.46q-0.2-9.7-0.41-19.43c-11.68-14.72-24.89-22.45-42.66-9.32-9.81 1.59-19.74 3-22.38 15.15-43.69-11.22-9.42 24.4-19.91 33.12-12.93-14.41-23.5-29.2-7.57-48.14l6.24-7.62a10.4 10.4 0 0 1 6.17-1.15c39.43-6.73 78.68-11.22 116 9.12l0.25 0.37q0.28 21.13 0.56 42.28c-2.82 6.88-7.01 12.18-15.03 13.08z"/> <path class="cls-6" transform="translate(-172.35 -113)" d="m1320.8 2277.1c1.71-8.48-4.86-23.86 11.73-27.06 18.68-3.6 19 13 22.89 24.75a13.15 13.15 0 0 1 0.51 3.49c0.64 14.45 13 29.47-1.49 43.15-4.52 4.27-11 5.52-16.27 1.66-14.84-10.79-18.25-26.55-17.37-45.99z"/> <path class="cls-6" transform="translate(-172.35 -113)" d="m1104.4 1366.1c-37.3-20.34-76.55-15.85-116-9.12 32.79-22.43 95.45-17.49 116 9.12z"/> <path class="cls-6" transform="translate(-172.35 -113)" d="m1105.2 1408.7q-0.27-21.15-0.56-42.28c17.86 13.86 18.35 27.95 0.56 42.28z"/> <path class="cls-1" transform="translate(-172.35 -113)" d="m1068.2 1441.3c1.76-6.55 5.67-10.73 12.66-11.5-1.69 6.63-5.29 11.14-12.66 11.5z"/> <path class="cls-6" transform="translate(-172.35 -113)" d="m982.25 1358.1-6.24 7.62z"/> <path class="cls-1" transform="translate(-172.35 -113)" d="m1083.1 1428.2 5.92-5.25c-0.01 4-2.01 5.67-5.92 5.25z"/> <path class="cls-3" transform="translate(-172.35 -113)" d="m3557 532.34q1.32-6.29 2.62-12.58 2.18-3.91 4.34-7.83l0.12-0.45c33-3.39 53.91 21.66 79.49 34.89 28.2 14.59 51.41 37.8 86.52 39.24 17 0.7 24.73 21.13 41.21 29.49 71.92 36.43 141.52 77.47 211.88 117 7.26 4.07 13.6 9.93 21.08 13.44 32.22 15.13 34.55 22.67 16.91 62.07-12.78-23.31-34.09-13.84-52.77-14.72-115.33-82-226.06-170.79-352.21-236.59-18.82-9.86-36.6-23.05-59.19-23.96z"/> <path class="cls-2" transform="translate(-172.35 -113)" d="m3793.9 254.61c-3.75 14-9.79 23-20.61 30.11-32.15 21-57.35 48.74-74.85 83.25-4.9 9.67-11 20.94-24.11 13.21-12.5-7.35-11.75-19-4.69-30.89 25.16-42.21 56.34-78.49 99.15-104 13.93-8.23 21.71-5.76 25.11 8.32z"/> <path class="cls-5" transform="translate(-172.35 -113)" d="m1377.3 4190.7c-1.33 18.1-4.26 36.73 15.75 47.78-39.56 40.27-92.62 38.73-142.52 43.33-53 4.9-106.59 4.3-159.34-6.64l-29.15-40.24c-6.39-19.89-20.19-38.92-8.66-61.06 3.71-7.1 8.42-16 18.25-14.41 7.47 1.17 10.31 9 12.74 15.78a42.69 42.69 0 0 1 1.91 6.85c15.58 87.32 27.87 62.88 95.79 73.4 16.23 2.51 33.32-1 49.77 0.67 61.38 6.27 108.24-18.61 145.46-65.46z"/> <path class="cls-5" transform="translate(-172.35 -113)" d="m1197.2 4186c-0.82 11-1.56 23.15-15.18 24.53-15.78 1.59-19.57-10.45-20.19-23.23-0.51-10.74-1.22-22.57 14.15-23.76 16.03-1.29 19.51 9.92 21.22 22.46z"/> <path class="cls-4" transform="translate(-172.35 -113)" d="m1062 4234.9 29.15 40.24c-28 6.3-53.76-2.6-79.48-11.75 13.5-15.28 42.82-2.62 50.33-28.49z"/> <path class="cls-3" transform="translate(-172.35 -113)" d="m1439.2 4273.8c12.94-65.9 55.34-107.65 124-112.45 38.18-2.67 44.62-19.75 43.16-52.2-3.44-76.73-25.49-149.59-42.61-223.55-8.79-38-23.65-74.5-26.91-113.78 11.56-2.29 23.07-6.26 34.69-6.59 123.12-3.47 246.18-10.08 369.43-7-3.25 27.18-6.13 54.41-9.81 81.54-20 147.65-44.61 294.52-75.31 440.34-37.21 46.86-84.07 71.74-145.46 65.47-16.44-1.68-33.54 1.84-49.77-0.68-67.91-10.52-80.21 13.93-95.79-73.4a42.2 42.2 0 0 0-1.9-6.85c-2.44-6.76-5.27-14.6-12.74-15.78-9.83-1.55-14.55 7.31-18.25 14.42-11.54 22.14 2.27 41.17 8.66 61.06-7.51 25.87-36.83 13.2-50.34 28.49-35.69-2.92-35.85-35.59-48.43-57.85zm236.54 1.59c-1.71-12.49-5.17-23.7-21.21-22.46-15.37 1.2-14.66 13-14.15 23.76 0.61 12.79 4.41 24.83 20.18 23.24 13.62-1.38 14.36-13.51 15.18-24.54z"/> <path class="cls-2" transform="translate(-172.35 -113)" d="m1455.2 4352.8q-1.29 3.81-2.59 7.62c-38.84 6.32-72.84-13.44-109.65-21.95 36.09-10.26 73.11-5.27 109.6-6.87z"/> <path class="cls-2" transform="translate(-172.35 -113)" d="m1452.6 4374.5c-29.79 15.53-61.64 5.48-92.52 7.49 29.73-16.22 61.82-3.21 92.52-7.49z"/> <path class="cls-5" transform="translate(-172.35 -113)" d="m1855.8 4280.1c-1.33 18.11-4.25 36.73 15.76 47.79-39.57 40.27-92.62 38.73-142.52 43.33-53 4.9-106.59 4.29-159.34-6.65l-29.15-40.23c-6.39-19.89-20.2-38.92-8.66-61.06 3.7-7.11 8.42-16 18.25-14.42 7.47 1.18 10.3 9 12.74 15.78a42.2 42.2 0 0 1 1.9 6.85c15.58 87.33 27.88 62.88 95.79 73.4 16.23 2.52 33.33-1 49.77 0.68 61.39 6.27 108.25-18.6 145.46-65.47z"/> <path class="cls-5" transform="translate(-172.35 -113)" d="m1675.7 4275.4c-0.82 11-1.56 23.16-15.18 24.54-15.77 1.59-19.57-10.45-20.18-23.24-0.51-10.74-1.22-22.56 14.15-23.76 16.04-1.24 19.5 9.97 21.21 22.46z"/> <path class="cls-4" transform="translate(-172.35 -113)" d="m1540.6 4324.4 29.15 40.23c-28 6.31-53.77-2.59-79.49-11.74 13.51-15.29 42.83-2.62 50.34-28.49z"/> <path class="cls-2" transform="translate(-172.35 -113)" d="m4159.3 1442.8c4.6 21.32-3.78 43.23 10.62 65.25 8.75 13.39-15 32-10.12 52.18 13.28 55.46-18 102.24-32.88 151.86-3.59 11.91-9.14 23.21-10.6 36.24-1.69 15.16-7.84 27.87-26.83 26.46 0.71-13.22 14-22.51 11.49-36.74 24.45-62.14 42.39-125.83 46-193 13.35-32.95-0.28-69.18 12.32-102.25z"/> <path class="cls-1" transform="translate(-172.35 -113)" d="m3564 511.93q-2.16 3.91-4.34 7.83c-1.23-4.09-0.38-7.02 4.34-7.83z"/> <path class="cls-3" transform="translate(-172.35 -113)" d="m2389 4227.5q-1.29-5.9-2.59-11.78 1.34-29.36 2.65-58.68c16.7-56.81 59.62-80 113.91-86.36 22-2.56 33.08-11.73 39.81-32.95 18.29-57.7 20.71-116 12.78-175.38 6.34 15.75 15.44 24.31 34 30.3 95.39 30.77 190.22 36.07 286.16 4.63-33.53 103.08-79.06 200.11-144.77 287-10.74 14.19-21.55 28.36-26.63 45.83-46.76-6.28-92.51 7.39-139.09 6.85-47.61-0.55-54.19-5.14-57.17-51.37-0.31-4.76 0.14-9.67-0.91-14.25-1.54-6.73-2.13-15-10.9-16.62-8.2-1.51-12.46 4.92-17.44 10.19-16.83 17.8-12.13 37.32-4.45 56.6 5.26 13.2 12.27 25.7 18.5 38.51-40.69 8.58-76.91 2.96-103.86-32.52zm222.2-61.18c-1-18.9-13.92-23.83-28.8-24.58-16.62-0.84-22.81 9.84-22 24.89 0.69 13.56 4.66 28 20.76 27.07 15.17-0.91 29.71-8.14 30.04-27.38z"/> <path class="cls-5" transform="translate(-172.35 -113)" d="m2724.6 4235.8a9.6 9.6 0 0 0 1.67 6.17c-4.34 17.82-18.34 20.14-33.3 20.45-66.73 1.38-133.51 6.43-200.1-2.48-6.2-12.83-13.21-25.33-18.47-38.53-7.68-19.28-12.38-38.8 4.45-56.6 5-5.27 9.24-11.7 17.44-10.19 8.77 1.6 9.36 9.89 10.9 16.62 1.05 4.58 0.6 9.49 0.91 14.25 3 46.23 9.56 50.82 57.17 51.37 46.58 0.54 92.33-13.13 139.09-6.85q10.13 2.96 20.24 5.79z"/> <path class="cls-3" transform="translate(-172.35 -113)" d="m2002.7 3453.3c-11-13.93-26.52-7.92-40.07-8-143-1.11-285.84 12.28-428.93 7.54-12.48-0.42-30.49 8.15-34.52-14.17-4.7-26 10.25-30.24 31.4-28.53 99.84 8.09 199.67-1.2 299.52-1.3 52.07 0 104.14-7.27 156.18-11.6 9.75-0.81 19-0.69 27.88 3.82-6.03 16.92 1.48 36.82-11.46 52.24z"/> <path class="cls-6" transform="translate(-172.35 -113)" d="m2811.3 3518.8c-81.4 8.71-163.2 4.43-244.79 7.46-61.62-2.77-123.66-0.12-184.29-14.83 95.78 0 191.62-2.39 287.26 1 44.77 1.6 86.06-11.2 129-16.6 8.93 5.1 13.02 12.84 12.82 22.97z"/> <path class="cls-1" transform="translate(-172.35 -113)" d="m1999.1 3476.9c-4 21-0.29 43.39-10.7 63.35-9.7-16.46-25.7-9.24-38.72-9-144.74 3-289.36 12.73-434.24 7l-6.87-43.21c143.81 5.69 287.13-3.9 430.44-13.63 20.04-1.36 40.49 2.69 60.09-4.51z"/> <path class="cls-2" transform="translate(-172.35 -113)" d="m756.72 1154.4c-2.39 17.63-9.22 35.24-28.39 35.27-21 0-28.54-19.44-30.49-37.34-1.61-14.9 5.46-28.89 22.72-29.77 21.03-1.08 31.81 12.43 36.16 31.84z"/> <path class="cls-2" transform="translate(-172.35 -113)" d="m1296 1149.2c-1.57-17.61 10.11-24.31 23.71-23.6 17.56 0.92 33.37 10.33 34 29.62 0.57 17.09-7.23 34.68-27.63 34.72-25.83 0.01-24.33-23.93-30.08-40.74z"/> <path class="cls-2" transform="translate(-172.35 -113)" d="m1003.5 1380.8c2.64-12.16 12.57-13.56 22.38-15.14l42.66 9.31q0.21 9.72 0.41 19.43c-24.7 9.36-50.35 23.24-65.45-13.6z"/> <path class="cls-6" transform="translate(-172.35 -113)" d="m1068.5 1374.9-42.66-9.31c17.77-13.14 30.98-5.41 42.66 9.31z"/> <path class="cls-1" transform="translate(-172.35 -113)" d="m1964.2 3674.5c-2.67 24.79-16.18 48.14-13.75 73.61-12.48 23.66-17.2 49.55-19.19 74.39-4.38 54.71-41.69 81.9-99.52 89.46-78.18 10.22-156.88 10.53-232.21-15.18-34.66-11.82-58.93-29.59-56.57-66.43 2.93-46-15.66-91.11-12.68-137.46 124 4 247.87-1.72 371.67-6.5 20.86-0.8 43.53-0.48 62.25-11.89z"/> <path class="cls-4" transform="translate(-172.35 -113)" d="m1964.2 3674.5c-18.44 13.28-40.77 12.91-61.32 13.85-122 5.56-244 12.25-366.13 7.57q-10.66-78.78-21.31-157.57c144.88 5.74 289.5-3.95 434.24-7 13-0.27 29-7.49 38.72 9q-12.11 67.08-24.2 134.15z"/> <path class="cls-1" transform="translate(-172.35 -113)" d="m2381.2 4214c2.91-19-5.91-39.54 7.92-57q-1.32 29.34-2.65 58.68z"/> <path class="cls-4" transform="translate(-172.35 -113)" d="m2611.2 4166.3c-0.33 19.24-14.87 26.47-30.08 27.38-16.1 1-20.07-13.51-20.76-27.07-0.77-15.05 5.42-25.73 22-24.89 14.92 0.75 27.85 5.68 28.84 24.58z"/> <path class="cls-1" transform="translate(-172.35 -113)" d="m3010.6 4355.2c-1.1-3.87-2.21-7.73-3.3-11.61q-0.46-29.37-0.94-58.72c13.2-57.72 54.62-83.51 108.42-93.15 21.79-3.9 32.31-13.73 37.73-35.32 14.74-58.71 13.6-117.09 2-175.84 7.3 15.34 16.9 23.33 35.81 28.18 97.1 24.88 192.07 24.39 285.91-12.85-27.18 104.94-66.7 204.57-127 295.27-9.86 14.83-19.78 29.63-23.79 47.38-47.05-3.42-91.88 13-138.41 15.32-47.55 2.35-54.4-1.83-60.2-47.79-0.6-4.73-0.45-9.66-1.77-14.16-1.95-6.63-3-14.86-11.89-15.94-8.28-1-12.14 5.68-16.79 11.24-15.71 18.8-9.83 38-1 56.77 6.06 12.86 13.81 24.9 20.81 37.31-40.03 11.08-76.56 7.67-105.59-26.09zm218.05-74.62c-2.14-18.81-15.35-22.94-30.24-22.78-16.64 0.17-22.17 11.21-20.49 26.18 1.52 13.5 6.37 27.7 22.37 25.76 15.13-1.84 29.2-9.94 28.36-29.16z"/> <path class="cls-5" transform="translate(-172.35 -113)" d="m3346.1 4343.1a9.59 9.59 0 0 0 2.05 6.06c-3.25 18-17.08 21.22-32 22.44-66.53 5.45-132.88 14.56-199.88 9.73-7-12.43-14.73-24.47-20.79-37.33-8.84-18.78-14.72-38 1-56.77 4.65-5.56 8.51-12.24 16.79-11.24 8.85 1.08 9.94 9.31 11.89 15.94 1.32 4.5 1.17 9.43 1.77 14.16 5.8 46 12.65 50.14 60.2 47.79 46.53-2.3 91.36-18.74 138.41-15.32q10.29 2.3 20.56 4.54z"/> <path class="cls-1" transform="translate(-172.35 -113)" d="m3002 4342.2c1.75-19.1-8.32-39.1 4.43-57.34q0.47 29.37 0.94 58.73c-1.85-0.45-3.63-0.92-5.37-1.39z"/> <path class="cls-4" transform="translate(-172.35 -113)" d="m3228.7 4280.6c0.84 19.22-13.23 27.32-28.36 29.16-16 1.94-20.85-12.26-22.37-25.76-1.68-15 3.85-26 20.49-26.18 14.89-0.16 28.1 3.97 30.24 22.78z"/> </svg>