<?xml version='1.0' encoding='utf-8'?>
<svg xmlns="http://www.w3.org/2000/svg" data-name="Layer 1" viewBox="0 0 3976.8 4096"> <defs> <style>.cls-1{fill:#461506;}.cls-2{fill:#eb9467;}.cls-3{fill:#7d7f7c;}.cls-4{fill:#fcfefd;}.cls-5{fill:#b0c5cb;}.cls-6{fill:#f4e9d6;}</style> </defs> <path class="cls-1" transform="translate(-261.61 -202)" d="m909.1 3874c39.53 6.54 78.92 14.16 118.62 19.37 64.42 8.45 129 15.38 193.59 22.74 6.61 0.75 13.39 0.1 23.09 0.1-33.2-57.81-63.33-114-87.41-173.22-42.41-104.32-67.58-213.09-89.19-323.25-23.67-120.62-24.58-242.21-19.42-363.81 3.39-79.9 15.53-159.43 35.09-237.35 3.79-15.08 3.5-26.09-6.18-40.65-29.83-44.87-37.66-96.26-17.81-145.94 29.53-73.88 47-151.95 82.9-223.69 37.34-74.54 85.36-139.06 151.57-190 18.35-14.12 30.25-34.49 42.93-53.28 18.38-27.24 41-50.71 61.7-75.89 23.5-28.65 46.76-32.16 81.11-13.57 9.33 5.05 10.24-0.51 13.74-4.61 57-66.66 122.63-123.43 191-178.24 36-28.88 52.39-76.43 74.62-117.37 69-127 120.56-262.57 190.66-389 7-12.61 5-25.8 5.27-38.83 1.32-75.12-0.14-150.34 5.89-225.3a450.26 450.26 0 0 1 11.49-70c9.16-37.73 42.43-54.41 82.17-41.91 46.24 14.54 82.82 45.06 118.8 75.68 22.8 19.4 43.95 40.9 64.36 62.83 8 8.55 12.79 10.85 23.52 4.87 49.09-27.36 100.44-49.39 155.5-62 10.86-2.49 17.91-8.32 22-20 13.27-38 26.58-76.21 42.72-113.08 11.21-25.61 24.69-50.27 59.3-53.2 23.36-2 38.51 9.13 53.35 22.85 28.06 25.93 51.55 56.48 70.54 88.87 18.05 30.78 39.69 48.18 75.32 48.73 28.29 0.44 55.83 6.68 82.86 14.45 11.76 3.38 13.45-0.76 13.38-10.94-0.33-53.94-0.48-107.87-0.11-161.81 0.08-10.31-6.12-15.59-12-22.22-46.21-52.37-60.22-114.56-58.92-183 1.52-79.59 23.65-152 65.77-219 61.1-97.16 146.85-165.2 249.81-213.41 16.65-7.79 29.63-5 38.24 10.13 10.17 17.83 0.49 30.56-15.1 38.81a674.83 674.83 0 0 0-132.31 91.65c-76 67.27-128.6 148.66-144.52 250.27-4 25.21-0.59 51.57 1.27 77.69 8.92-36.18 15.42-72.66 28.35-107.7 35.72-96.82 100.69-169.86 181.39-231.57 31.51-24.1 66-43.2 98.62-65.24 19.68-13.28 32.6-28.17 29.58-54-1.78-15.24 6.54-25.5 21.6-32.21 62.4-27.79 128.57-37.19 195.72-43.59 35.12-3.35 70.13-1.13 105.18-1.9l1.44 0.75 1.34-0.93c12.8 5.76 26.4 4.14 39.8 4.38a1.76 1.76 0 0 0 2.82 1.09c7 7 15.54 3.86 23.65 3.41 53.3 13.72 105.25 29.6 154.1 56.94 70.57 39.5 126.69 93.5 174.43 157.36 12.27 16.42 22.53 34.35 33.72 51.58 52.4 98.75 82.85 204.23 88.53 315.52 6.57 128.91-9.92 256.46-28.9 383.88-12.71 85.4 1.9 164.63 71.05 226.22 32.77 29.18 64.59 59.14 91.23 95 72.56 97.68 69.26 279.91-41 351.11-8.18 5.29-7.56 13.24-5.94 21.27 9.89 49.18 11.59 99.41 13.8 149 3.71 83.5 1 167.19-10.34 250.45-14.44 105.87-27.83 211.82-46 317.22-21.07 122.12-41.73 244.37-67.86 365.42-13.75 63.71-8 118 28.13 173.75 90.72 139.76 152.68 292.79 194.78 453.76 10.3 39.41 17 79.77 25.32 119.7q0.2 10.42 0.4 20.87 1 5.66 2.08 11.3c10.69 149.69-3.82 293.84-91.89 422.1-19.83 28.88-44.81 52.85-71 75.61 6.15 8.87-113.8 55.39-116.6 56.07-94.88 22.78-191.18 8.14-286.73 10.07-152.75 3.08-305.6 2-458.41 2-122.88 0-245.77-1.42-368.66-1.6q-327.51-0.48-655-0.25c-105.14-0.07-210.29-0.85-315.43-0.58-90.16 0.23-180.32 1.73-270.48 2.19-47 0.24-94-1.65-141-0.56-52.45 1.22-104.92-0.2-157.37 0.78-52 1-104.4 0.57-156.61-0.54q-91.09-1.94-182.23-1.57c-56 0.14-112.18 4.39-168 1.6-52.5-2.63-104.89 0-157.35-1.55-143.91 18-303.44-88.73-313.59-100.12-79.07-88.71-85.14-203.05-12.21-296.48 45.09-57.75 109.12-79.63 180.44-82.79 77.1-3.42 151.16 17.31 226.36 28.89 55.38 8.53 110.11 21.29 166.16 25.41 3.47 4.64 8.15 4.29 13 3.17zm2566.9-2598.5c17.78-13.93 31.82-33.18 55.34-38.94 28.72 31.59 28.17 38.7-3.22 68.1a1072.4 1072.4 0 0 1-144.12 113.73c-15.16 10-36 14.13-43.89 33.91q-5.34 2.61-10.69 5.24c1.39-2 0.84-3.07-1.59-2.77-0.64 0.08-1.18 1-1.76 1.45l3.23 2.22c10.24 41.44 12.12 83.66 11.17 126.06-1.38 61.39-23.88 109.42-83.18 136.25-13.17 6-38.8-1-37.88 18.43 0.86 18.16 25.94 12.51 39.86 16.3 21.79 5.93 38.57 36.92 58.34 25.53 19.24-11.08 29-38.56 43-58.79 1.5-2.17 3.61-3.91 5.09-6.09 55.52-81.91 134.06-126.55 230.6-140.75 38.75-5.7 77.93-8.48 120.36-13-7.61-9.45-12.35-16.65-18.36-22.57-38.31-37.76-57-85.8-70.86-136.08-6.65-24.12-10.61-49-15.79-73.51l-1.53-146.78c1.61-5 3.73-10 4.74-15.14 11.36-58.34 11.31-58.36 67.8-69.23 117.49-22.61 156.49-170.47 94-250-25.87-33-61.3-47.52-103-37.1-36.53 9.14-59.46 32.29-63.22 71.94-1.05 11.11-4.67 22.42-9.28 32.65-8.34 18.47-29.87 22-43.35 7.36-8.74-9.51-11.44-22-10.3-34.68 2.06-22.91 2.93-41.23-31.12-33.9-12.2 2.62-27.88-1.3-41.72-0.33-50 3.54-99.47 1.33-148.2-11.33-66.28-17.24-128.93-41.22-178.94-90.88-76-75.43-107.76-168.71-111.94-273.6-9 1-14.23 6.79-19.69 12.19-67.54 66.83-106.13 148.31-119.89 241.56-2.5 17-7.57 39.87 26.06 37.1 12-1 27.25 9.38 25.82 27.59-1.39 17.73-14.63 26.44-29.07 22.5-28-7.63-24.84 9.09-24.39 25.76 0.24 8.84 0.81 17.76 0 26.52-2.84 29.48 13.7 51.84 29 73.44 14.42 20.39 39 18.68 53.35-1.75 6.95-9.87 11.77-21.47 16.25-32.8 5.76-14.57 17.22-16.89 29.88-14.27 13.86 2.88 20.22 13.6 20 27.22-0.91 57.79-67.44 102.94-121.25 82.58-8.45-3.2-17-6.28-26.72-9.9 0 24.66 2.36 46.19-0.56 67-4.08 29 7.35 42.62 33.29 54.94 129.64 61.56 224 156.72 270.79 294.92 4.22 12.48 10 14.37 23.33 10.54 70.47-20.27 135.31-50.14 187.83-102.88 28.29-5.78 44-29.69 65.47-45.34zm-369.21 82.57c-7.48-24.58-26.39-40.73-43.07-58.53-69.05-91-163.7-141.7-271.9-168.54-28.65-7.1-58.66-20-89.86-8.34-16.69-7.15-34.28-1.41-51.31-3.56-7.81-8.67-17.77-3.61-26.85-4.2l-10.73 0.73c-21.63 2.77-44.2-1.4-64.83 8.79-3.08-1.42-6.48-4.53-9.21-4-80.21 14.62-159.1 33.3-231.78 72.44-14.84 8-21.17 13-5.57 26.81 15.06 13.3 23 30.25 8.58 48.9-15 19.44-31.12 8.13-46.61-0.42-57.36-68.38-118.48-132.81-192.21-184.13-6.91-4.8-14.33-10-21.66-5.43s-2 12.83-0.73 19.42c20 99.76 51.47 196.09 87.15 291.15 5.42 17.81 9 34.68-14.17 43.57s-32.05-6-39.5-23.12c-7.37-17-14-34.23-21.36-51.2-21.7-50.18-32.84-103.9-48.63-151.75 0 49.77-0.25 102.66 0.13 155.55 0.13 18-2.74 34.7-11.22 50.92-19.55 37.45-38.89 75.05-57 113.24-36.46 77.08-71.6 154.79-108.11 231.85-19.19 40.5-18 44.58 28.37 50.84 27 3.65 53.82 8.3 79.55 17 20 6.75 26 23.58 16.75 39.07-9.76 16.3-25.25 14.28-39.71 11.45-36.09-7.06-71.94-15.29-107.83-23.31-18.7-4.18-31.81-2.06-42.41 18.21-17.33 33.14-37.39 65.2-71.79 85-6.47 3.72-15.8 8.72-15.32 19.52-11 1.77-18.9 9-27 15.72-61.63 51.8-114.63 111.95-166.66 173-15.21 17.84-28.12 37-6.68 59.45 12.82 48.69-3.1 86.92-46.54 116.38 6.58 2.84 9.59 4.09 12.56 5.43 54.09 24.28 113.26 33.56 167.66 57.05 32.7 14.12 36.28 19.34 29.65 52.16-22.43 6.65-43.92 2.81-65.7-4.27-56.3-18.31-112.89-35.77-170.46-53.91-1.24 21.39-0.28 41.25-13.5 56.94-8 9.47-3.19 14.09 5 17.73 6.26 2.78 13 4.39 19.61 6.47 33.29 10.57 66.66 20.89 99.85 31.77 17.72 5.81 30.36 17.76 23.5 37.06-6.1 17.16-18.76 23.53-40 17.7-53.58-14.72-106.67-30.83-161.46-49.69 1.95 25.25 1.62 48.8-11 70-8 8.95-16.22 17.78-24.08 26.89-11.78 13.64-10.06 23.2 8.57 27.7 59.3 14.33 118.83 27.42 179.52 34.56 16.08 6.58 33.51 14.5 27.19 35.47-6.21 20.64-24.72 25.68-45 23.39-2.62-0.3-5.2-0.91-7.79-1.45-54.1-11.15-108.74-19.77-162.11-34.46-12.13-3.34-51.69 12.63-50.92 20.66 1.69 17.5 17.46 22.32 30.78 28.68 2.36 1.13 5 1.72 7.4 2.76 70.6 30.44 145.9 42.41 220.86 55 105.54 17.74 210.47 41.82 318.85 34.17 22-1.55 43.83-6.6 66.05-3.43 45.37 6.48 90.56 15.86 136.16 18.75 67.67 4.29 134.42 15.34 201.44 23.85 129.16 16.41 258.22 33.57 388 44.4 72.78 6.07 145.61 11.78 218.68 14.88 76.93 3.26 153.42 16.29 230.72 3.21 64.73-10.95 124.48-33 175.55-74.69 58.74-47.94 108-105.74 159.22-161.07 80.14-86.53 160.9-172.5 238.3-261.62 68-78.25 140.47-152.52 211-228.53 27.73-29.9 43.16-35.46 58.24-21.05 16.86 16.13 12.34 33.7-14.75 63.09-68 73.78-135.35 148.21-204 221.4-10 10.7-8.81 16.28-2.44 27.47 36.56 64.2 153 67.47 199.16-2.87 21.75-33.14 42.29-67.08 63.37-100.65 50.24-80 86.91-164.93 90.3-260.88 3.58-101.46-1.24-202.44-20.65-302.5-15.79-81.41-51-147.67-126-191.47-79.27-46.3-184.59-45.07-259.32 8.78-48.2 34.73-81.41 82.12-114.07 130.42-10.11 15-8.26 24.82 1.73 39 34.72 49.16 33.83 109.56-5.19 155.2-60 70.18-123.07 137.71-184 207.13-55.75 63.55-110.16 128.28-165.51 192.19q-74.57 86.1-149.9 171.52c-19 21.6-43.33 34.53-71.67 35.06-94.36 1.77-188.7 2.17-283 7.69-92.57 5.41-185.34 1.08-278.11 4.76-137.65 5.46-275.59 3.07-413.4 4.91-30.3 0.4-51.27-10.26-67.69-36.38q-61.15-97.26-125.72-192.36c-33.69-49.48-67.82-98.86-108.59-143-5.54-6-11.77-15.68-21.7-10.87-9.37 4.55-11.09 14.42-11.4 24.94-0.42 14.38 7.29 25 13.85 36.15 27.23 46.13 61.28 88 85.7 135.88 5.42 10.65 13.11 21.2 10.25 34.3-6.71 30.72-34.87 36-61.31 14.74-8.57-39-33.07-69.6-53.45-102.37-17.64-28.36-39-54.45-49.62-86.95-14.71-45.21-0.33-92.58 25.46-110.17 25.36-17.29 71.21-12.95 98 15 46 47.93 82.79 102.89 120.68 156.88 41.51 59.13 80.94 119.76 120.25 180.4 13.28 20.5 28.73 28.94 54.13 28.26 117.1-3.14 234.23-2.42 351.37-7.81 94.16-4.33 188.56-1.47 282.92-7.18 95-5.75 190.44-6.55 285.61-4.93 34.27 0.58 53.74-15.8 73.88-36.87 4.21-4.41 7.42-9.77 11.41-14.42 63.06-73.57 126.42-146.89 189.21-220.7 46.19-54.31 91.17-109.6 138.8-162.76 22.64-25.27 48.46-48.55 65.24-78.9 8.32-10.75 24.84-13.49 28.28-29 20.89-18.57 42.82-36 52.47-64.08 13.89-40.41 1-67.79-39-79.07-21.55-6.07-43-2.1-62.5 7.22-63.55 30.46-118.1 75-175.7 114.72l-5.41 4.58h0.06c-4.76 2.22-9.85 3.91-14.23 6.71-100.06 64-210 94.94-328.17 99.43-27.38 1-54.66-5.52-81.94 0-63.64-10.71-127.18-22.08-191-31.89-37.84-5.82-44.38-12.27-42.35-50.47 12.35-11.7 27.92-10.12 42.27-8 49.37 7.24 98.44 16.63 147.84 23.72 79.69 11.43 159.25 12.79 238.69-4.15 110.12-23.48 199.15-86.86 288.5-150 12.14-8.57 10.81-15.19 0.44-24.81-30.65-28.41-71.26-32.54-111.48-9.71-16.92 9.6-34.41 13.14-47.51-3.84s-3.67-31.35 10.83-43c24.1-19.42 40.13-43.83 45.88-74.56 7.05-13.25 12.32-26.93 10-42.39 0.56-2.54 1.11-5.09 1.66-7.63 7.25-12.88 3.76-26.63 3.2-40.13l-0.11-16c1.27-9.21 3.31-18.53-3.53-26.67 3.25-7.36-1.61-14-1.8-21.09 1.05-3.43-0.14-5.86-3.29-7.44v-8.69c-0.89-9.11 0.38-18.79-6.95-26.19l-0.36-5.5c1.11-3.41-0.31-5.53-3.48-6.76 0.49-17.55-7.64-32.19-15.84-46.8-8.09-30.37-19.38-59.14-37.95-84.63zm-298.92 2314.7c18 18.17 42.8 27.95 59.15 48.22 1.85 2.28 6.69 4.54 9 3.69 27.21-10 60.43-10 79.62-33.68 19.79-24.37 38.84-49.92 53.85-78.23 48.1-90.72 79.3-187 99.31-287.39 20.83-104.53 38.39-209.11 25-316.51-2-15.79-7.9-17.37-19.35-15.26-82.15 15.17-164.49 11.4-247.28 5.67-139.63-9.67-279.07-20.9-418.09-37.2-47.17-5.7-94.36-11.23-141.5-17.15-93.46-11.72-186.79-24.53-280.36-35.18-59.44-6.77-118.26-21.78-178.63-17.22-32.42 2.45-64.71 6.29-97.28 5-64.33-2.63-127.08-16.79-190.31-27-86.6-14-173.33-28-257.59-53.37-31.56-9.49-65.49-10-96.52 0.55-3.92 1.33-9-0.61-11.65 4.24-10.43-1.23-19.7 8.29-30.33 3.67-20.14-8.76-23.57 5.48-27 19.4-33.41 133.94-39.54 270-31.4 407.16 4.84 81.34 20.62 161 38.07 240.28 16.33 74.22 36.85 147.2 67.42 217 19.91 64.52 50.34 123.74 89.82 178.41 1 3.27 1.18 7 3 9.74 60.55 89.27 127 173 214.81 237.94 73 54 153.39 88.12 243.58 99.23 14.18 1.75 21.85-2.14 27.61-16.56 21.31-53.38 56.87-96.91 97.92-136.52 78.54-75.78 173.53-123 274.92-158.89 153.86-54.54 312.58-92.08 470.2-133.44 53.44-14 106.66-28.84 164.09-44.41-26.66-25.15-55.25-36.53-84.34-45.75-87.62-27.77-174.09-12.55-259.45 11.15-21.35 5.92-38.72 5.56-45.61-15.45-7-21.42 7.65-33.51 28.08-39.8 50.58-15.58 102.2-25.8 154.89-29.28 76.37-5.08 148.39 11.98 216.32 46.94zm115.45 562.33v0.23q488.28 0 976.55-0.09a100.67 100.67 0 0 0 25.91-3.22c123-32.2 190.21-118.22 226.47-233.83 35.95-114.65 34.86-231 9.91-347.15-40-186.24-112.8-359.25-214-520.69-13-20.81-28.28-22.3-48.71-19.87-60.17 7.19-120.44 13.66-180.68 20.27q-114.16 12.53-228.35 24.75c-19.16 2-38.19-3.08-42.08-22.9s9.44-32.64 30.61-34.9c36.75-3.92 73.47-8.14 110.22-12.06 59.41-6.33 118.8-12.84 178.26-18.66 44.65-4.37 89.37-7.9 134.09-11.47 7.36-0.59 12-2.62 11.26-10.79-0.71-7.81-4-14-12.76-14-13.23-0.1-26.51-0.13-39.67 1-29.8 2.62-59.49 6.68-89.31 8.92-78.18 5.88-156.5 10-234.58 16.85-105.49 9.3-210.72 21.53-316.25 30.25-24.61 2-27.14 15.12-26.71 32.67 0.57 22.94 16.79 11.07 27.11 10.54 26.77-1.38 45.3 14.28 39.29 36.46-5.68 20.93-26.89 22.17-42.88 21.15-23.44-1.49-28.81 10.16-30.63 28.77-9.87 101.07-35.24 198.64-65.83 295.13-13.39 42.25-4.41 85.31-1 127.95 1.12 14.14 8.74 21.62 25.14 16.85 20.18-5.88 41-9.57 61.42-14.63 48.58-12 97.19-24 145.6-36.69 21.43-5.64 38.39 1.48 45.4 20.51 8 21.87-11.5 28.08-27.3 34.37-1.59 0.63-3.52 0.36-5.23 0.78-103.52 25.66-207.28 50.44-310.52 77.24-191.59 49.73-383.27 99.15-574.15 151.51-163.13 44.75-330 80-474.95 175.07-54.5 35.74-102.07 77.71-137.65 132.57-10.35 16-8.46 26.47 12.09 33.31 25.19 8.38 50.1 3.94 75.27 3.93q484.32-0.25 968.61-0.13zm-1370.3-0.21c-4.46-6.77-5.08-8.88-6.42-9.55-93.24-46.85-162.21-121.89-223.27-202.86-26.22-34.76-50.19-50.76-93.73-50.91-94.34-0.33-187.32-18.21-280.55-31.56-11.2-1.6-16.31 0.46-20 13.36-11 38.94-19.74 77.84-19.79 118.62 0 27.46 2.85 54.52 5.53 81.74 1.61 16.44-6.6 29.08-23.92 32.9-16.82 3.7-24-7.75-29-20.72a80.81 80.81 0 0 1-5.52-22.92c-4.66-66.07-5.52-131.88 15.41-196 4-12.19 1.32-17.89-14-20.29-82.3-12.89-164.22-28.17-246.47-41.41-51.86-8.34-103.75-20.1-156.7-6.09-64.35 17-110 53.72-127.22 120.16-16.79 64.68 4.54 118.84 52.81 160.79 61 53 138.57 71.4 215.09 72.72 251.83 4.32 503.78 1.88 755.68 2 65.87 0.05 131.77 0.02 202.07 0.02zm2462.5-1798.8c-25.32 35.39-45.95 71.5-71.64 104.51-39.45 50.67-92.72 76-154.82 74-50-1.6-96.89-20.35-130.83-61-8.8-10.54-14.74-10.84-23.79-0.34-16.92 19.64-34.55 38.78-52.09 57.82-73.2 79.47-147.74 157.71-222.37 235.85-47.15 49.36-97.44 94.87-162.18 120.83-7.67 3.07-13.53 5.83-8.34 17.3 6.1 13.5-2.35 33.84 8.51 42.84s28.22-1.74 42.79-2.93c10.53-0.86 21.23 0.35 31.76-0.55q76-6.48 152.09-12c88.15-6.31 175.94-17.73 264.1-23.78q107.74-7.41 215.27-17.06c12.25-1.09 18.69-4.27 20.65-18.13 3.93-27.71 10.65-55 15.74-82.56 17.66-95.59 35.6-191.14 52.45-286.88 8.65-49.14 15.22-98.61 22.7-147.92zm-2804.7 238.82c15.24-1.66 26.2-9.6 32.72-23.11 4.2-8.67 0.29-16.67-7.39-20.22-29.26-13.48-61.45-32.46-90.89-26.92-22.66 4.26-29.52 40.65-36.89 65.84-9.06 30.95 19.2 86.72 48.6 97.75 13.37 5 25 0.92 32.09-10.93 7.59-12.69 0.14-21.56-10.66-28.18-9.76-6-20.08-11.17-29.33-17.85-13.75-9.92-28.34-21.45-19.23-40.86 9.77-20.79 27.86-12.68 43.73-8.34 12.64 3.46 23.51 12.27 37.25 12.82zm2320.6-2404.2a11.49 11.49 0 0 0-10.46 8c-3.1 9.16 4.67 11.84 11.22 14.68 5.57 2.42 10.86 5.76 16.65 7.36q108.73 30 188.68 109.42c9.76 9.67 20.19 15.54 31.43 3.6 10.17-10.8 4.17-20.63-4.56-29.43-62.51-63.01-137.08-101.98-232.96-113.63zm35.05 1374.8c-82 17.84-134.92 72.44-179.11 142 25.67 2.48 48.55-10.33 72-2.11 2 0.71 7.49-4.47 9.44-8 26.68-48.02 61.84-89.62 97.67-131.89zm-2301.8 721.29c-35.61-5.52-39.7 22-52.43 39.21-6.44 8.7-4.91 11.87 5.67 15.67 28.83 10.37 58.77 15.89 88.46 22.46 24.42 5.4 39.85-5.74 45.68-31.15 4.38-19.07-8.41-36.06-31.66-39.81-19.9-3.19-40.08-4.65-55.72-6.38zm-13.23 203.57c19.66-1.61 29.83-13.6 32.76-30 3.31-18.53-6.92-32.93-23.55-39.58-15.2-6.07-31.88-8.72-48.1-11.93-37.86-7.51-43.77-3.15-55 33-2.92 9.41-2.66 14.8 6 19.19 28.04 14.3 58.72 20.45 87.89 29.32zm1369.9-1512.4c-20.31-30-38.37-56.53-61.1-80-10-10.29-15-9-21 2.86-13.4 26.84-19.58 55.94-30 85.62zm-1339.7 1248c12.94 3.79 22.77 4.39 32 5.61 37.89 5 73-3.77 101.9-30.27 7-6.47 12.57-16 9.11-26s-13.62-5.48-20.91-6c-49.72-3.69-85.89 22.14-122.1 56.66z"/> <path class="cls-2" transform="translate(-261.61 -202)" d="m1212 3709.4c-30.57-69.83-51.09-142.81-67.42-217-17.45-79.32-33.23-158.94-38.07-240.28 34.75-12.25 51.13-33.55 47.8-73.47-4.92-58.92 3.87-117.78 11.93-176.29 31.19 18 63.44 33.65 97.87 44.62 36.49 11.64 72.55 24.82 110.62 30.63 16.12 2.46 28.37-4.42 32.32-20 3.75-14.84-5.26-25.11-18.22-31.46a89.6 89.6 0 0 0-17.3-6.19c-54.32-13.77-107.18-31.75-157.85-55.71-12.35-5.83-24.53-9.29-38.06-7.64-1.15-12.22 0.88-24 2.78-36.14 5.14-32.94 22.74-63.79 16.88-98.54 2.65-4.85 7.73-2.91 11.65-4.24 31-10.55 65-10 96.52-0.55 84.26 25.34 171 39.35 257.59 53.37 63.23 10.25 126 24.41 190.31 27 32.57 1.33 64.86-2.51 97.28-5 60.37-4.56 119.19 10.45 178.63 17.22 93.57 10.65 186.9 23.46 280.36 35.18 47.14 5.92 94.33 11.45 141.5 17.15 0.36 7 4.54 11 10.62 13.69 132 59.25 220.27 162.46 283 288.65 64 128.69 87 265.28 65.15 408.35-67.93-35-140-52-216.35-47-52.69 3.48-104.31 13.7-154.89 29.28-20.43 6.29-35.11 18.38-28.08 39.8 6.89 21 24.26 21.37 45.61 15.45 85.36-23.7 171.83-38.92 259.45-11.15 29.09 9.22 57.68 20.6 84.34 45.75-57.43 15.57-110.65 30.39-164.09 44.41-157.62 41.36-316.34 78.9-470.2 133.44-101.39 35.94-196.38 83.11-274.92 158.89-41 39.61-76.61 83.14-97.92 136.52-5.76 14.42-13.43 18.31-27.61 16.56-90.19-11.11-170.57-45.27-243.58-99.23-87.85-64.93-154.26-148.67-214.81-237.94-1.83-2.69-2-6.47-3-9.74 0-7.85 5.3-12.88 10.25-17.63 12.54-12.06 11.22-25.46 2.14-37.59-20.16-26.93-33.68-57.27-45.72-88.09-10.61-26.98-28.35-38.45-56.51-35.08z"/> <path class="cls-3" transform="translate(-261.61 -202)" d="M2923.29,4235.12q-484.3,0-968.6.11c-25.17,0-50.08,4.45-75.27-3.93-20.55-6.84-22.44-17.35-12.09-33.31,35.58-54.86,83.15-96.83,137.65-132.57,145-95.06,311.82-130.32,474.95-175.07,190.88-52.36,382.56-101.78,574.15-151.51,103.24-26.8,207-51.58,310.52-77.24,1.71-.42,3.64-.15,5.23-.78,15.8-6.29,35.35-12.5,27.3-34.37-7-19-24-26.15-45.4-20.51-48.41,12.73-97,24.65-145.6,36.69-20.43,5.06-41.24,8.75-61.42,14.63-16.4,4.77-24-2.71-25.14-16.85-3.4-42.64-12.38-85.7,1-127.95,30.59-96.49,56-194.06,65.83-295.13,1.82-18.61,7.19-30.26,30.63-28.77,16,1,37.2-.22,42.88-21.15,6-22.18-12.52-37.84-39.29-36.46-10.32.53-26.54,12.4-27.11-10.54-.43-17.55,2.1-30.64,26.71-32.67,105.53-8.72,210.76-20.95,316.25-30.25,78.08-6.89,156.4-11,234.58-16.85,29.82-2.24,59.51-6.3,89.31-8.92,13.16-1.16,26.44-1.13,39.67-1,8.74.07,12.05,6.24,12.76,14,.75,8.17-3.9,10.2-11.26,10.79-44.72,3.57-89.44,7.1-134.09,11.47-59.46,5.82-118.85,12.33-178.26,18.66-36.75,3.92-73.47,8.14-110.22,12.06-21.17,2.26-34.49,15.12-30.61,34.9s22.92,24.94,42.08,22.9q114.2-12.15,228.35-24.75c60.24-6.61,120.51-13.08,180.68-20.27,20.43-2.43,35.67-.94,48.71,19.87,101.15,161.44,174,334.45,214,520.69,24.95,116.15,26,232.5-9.91,347.15-36.26,115.61-103.5,201.63-226.47,233.83a100.67,100.67,0,0,1-25.91,3.22q-488.27.16-976.55.09Zm326.29-881.26c-23.95.09-42.18,18.65-41.37,42.12.59,17.2,21.05,36.29,39.4,36.76,22.23.58,43.76-23.06,43.66-47.93C3291.21,3370.8,3268.3,3353.79,3249.58,3353.86Z"/> <path class="cls-2" transform="translate(-261.61 -202)" d="M1647,2455.1c6.63-32.82,3-38-29.65-52.16-54.4-23.49-113.57-32.77-167.66-57.05-3-1.34-6-2.59-12.56-5.43,43.44-29.46,59.36-67.69,46.53-116.4,12.25-.5,17.57-10.73,24.83-18,45.92-46,84.51-98.71,134.41-141.38,25.38-21.7,42-52.4,41.07-88.75-.48-10.8,8.85-15.8,15.32-19.52,34.4-19.77,54.46-51.83,71.79-85,10.6-20.27,23.71-22.39,42.41-18.21,35.89,8,71.74,16.25,107.83,23.31,14.46,2.83,30,4.85,39.71-11.45,9.28-15.49,3.3-32.32-16.75-39.07-25.73-8.67-52.51-13.32-79.55-17-46.36-6.26-47.56-10.34-28.37-50.84,36.51-77.06,71.65-154.77,108.11-231.85,18.07-38.19,37.41-75.79,57-113.24,8.48-16.22,11.35-32.93,11.22-50.92-.38-52.89-.13-105.78-.13-155.55,15.79,47.85,26.93,101.57,48.63,151.75,7.34,17,14,34.24,21.36,51.2,7.45,17.16,16.19,32.08,39.5,23.12s19.59-25.76,14.17-43.56c19.81-12,35.06-27.76,47.25-47.85,19.37-31.92,47.07-55.79,80.2-73.17,15.49,8.55,31.58,19.86,46.61.42,14.41-18.65,6.48-35.6-8.58-48.9-15.6-13.79-9.27-18.82,5.57-26.81,72.68-39.14,151.57-57.82,231.78-72.44,2.73-.5,6.13,2.61,9.22,4,13.84,6.7,28.61,9.43,43.83,10.25,77.36,23.29,131.26,72.64,163,146.63,4,9.25,11.19,15.66,19.58,20.89,11.63,7.26,14,13.66,1,23.35-14.09,10.57-25,24.62-30.67,41.9l-3.89,6.67-2,10.23c-10.64,16.88-12.31,34.87-6.67,53.77l3.75,20.8c-.06,3.57-.12,7.13-.19,10.7q-1.09,5.11-2.18,10.22c-23.5,19-50.54,31.4-78.17,43.06-8.69,3.67-24,7.25-19.1,20.48,4.21,11.36,17.21,13.58,29.37,8.23l16.09,3.19c1.4,4.11,4.52,5.67,8.6,5.81,8.13,17.4,11.58,35.07,3.81,53.67-17.17,41.07-40,78.62-69.69,111.83-72.37,81.05-167.48,117.72-271.13,135.69-18.57,3.22-29.32,7.7-32.34,26.62-3.36,21,9.64,27.68,26.2,32.88,60.55,19,121,38.45,181.43,57.68,8.18,2.6,17.87,2.63,21,13.22-2,38.2,4.51,44.65,42.35,50.47,63.77,9.81,127.31,21.18,190.94,31.89,123.21,47.93,241.91,37.23,356.44-27.48l20.22-9.7c4.59.55,7.72-1.66,10-5.35l6.45-4c10.35-3.37,21.36-5.54,28.16-15.4l13.61-7.85,5.48-4.36a12,12,0,0,0,4.85-1.49c41.82-16.94,76.3-49.51,122.34-57.45l10.75.42c31.15,14,46.45,38.46,47.79,72.19-16.78,30.35-42.6,53.63-65.24,78.9-47.63,53.16-92.61,108.45-138.8,162.76-62.79,73.81-126.15,147.13-189.21,220.7-4,4.65-7.2,10-11.41,14.42-20.14,21.07-39.61,37.45-73.88,36.87-95.17-1.62-190.63-.82-285.61,4.93-94.36,5.71-188.76,2.85-282.92,7.18-117.14,5.39-234.27,4.67-351.37,7.81-25.4.68-40.85-7.76-54.13-28.26-39.31-60.64-78.74-121.27-120.25-180.4-37.89-54-74.71-109-120.68-156.88-26.83-28-72.68-32.32-98-15-25.79,17.59-40.17,65-25.46,110.17,10.58,32.5,32,58.59,49.62,86.95,20.38,32.77,44.88,63.42,53.45,102.37ZM2655,1351.78c.41-32.61-32.38-66-64.14-65.39-24.32.5-43,20.88-43.16,47.22-.25,33,28.9,65.82,59.2,66.7C2633.91,1401.09,2654.63,1380.19,2655,1351.78Z"/> <path class="cls-4" transform="translate(-261.61 -202)" d="m1647 2455.1 48.4 11.49c26.44 21.26 54.6 16 61.31-14.74 2.86-13.1-4.83-23.65-10.25-34.3-24.42-47.89-58.47-89.75-85.7-135.88-6.56-11.11-14.27-21.77-13.85-36.15 0.31-10.52 2-20.39 11.4-24.94 9.93-4.81 16.16 4.87 21.7 10.87 40.77 44.17 74.9 93.55 108.59 143q64.65 95 125.72 192.36c16.42 26.12 37.39 36.78 67.69 36.38 137.81-1.84 275.75 0.55 413.4-4.91 92.77-3.68 185.54 0.65 278.11-4.76 94.29-5.52 188.63-5.92 283-7.69 28.34-0.53 52.72-13.46 71.67-35.06q75.1-85.62 149.9-171.52c55.35-63.91 109.76-128.64 165.51-192.19 60.89-69.42 124-137 184-207.13 39-45.64 39.91-106 5.19-155.2-10-14.15-11.84-24-1.73-39 32.66-48.3 65.87-95.69 114.07-130.42 74.73-53.85 180-55.08 259.32-8.78 75 43.8 110.23 110.06 126 191.47 19.41 100.06 24.23 201 20.65 302.5-3.39 96-40.06 180.89-90.3 260.88-21.08 33.57-41.62 67.51-63.37 100.65-46.18 70.34-162.6 67.07-199.16 2.87-6.37-11.19-7.6-16.77 2.44-27.47 68.65-73.19 136-147.62 204-221.4 27.09-29.39 31.61-47 14.75-63.09-15.08-14.41-30.51-8.85-58.24 21.05-70.51 76-143 150.28-211 228.53-77.4 89.12-158.16 175.09-238.3 261.62-51.25 55.33-100.48 113.13-159.22 161.07-51.09 41.79-110.84 63.79-175.57 74.79-77.3 13.08-153.79 0.05-230.72-3.21-73.07-3.1-145.9-8.81-218.68-14.88-129.74-10.83-258.8-28-388-44.4-67-8.51-133.77-19.56-201.44-23.85-45.6-2.89-90.79-12.27-136.16-18.75-22.22-3.17-44.09 1.88-66.05 3.43-108.38 7.65-213.31-16.43-318.85-34.17-75-12.6-150.26-24.57-220.86-55-2.42-1-5-1.63-7.4-2.76-13.32-6.36-29.09-11.18-30.78-28.68-0.77-8 38.79-24 50.92-20.66 53.37 14.69 108 23.31 162.11 34.46 2.59 0.54 5.17 1.15 7.79 1.45 20.29 2.29 38.8-2.75 45-23.39 6.32-21-11.11-28.89-27.17-35.47-14.66-7.91-29.47-15.58-44-23.79-39.65-22.47-85.18-34.15-120.06-65.36 12.64-21.22 13-44.77 11-70 54.79 18.86 107.88 35 161.46 49.69 21.23 5.83 33.89-0.54 40-17.7 6.86-19.3-5.78-31.25-23.5-37.06-33.19-10.88-66.56-21.2-99.85-31.77-6.57-2.08-13.35-3.69-19.61-6.47-8.23-3.64-13-8.26-5-17.73 13.22-15.69 12.26-35.55 13.5-56.94 57.57 18.14 114.16 35.6 170.46 53.91 21.83 7.01 43.32 10.85 65.76 4.2z"/> <path class="cls-4" transform="translate(-261.61 -202)" d="m3409.6 1321.5c-52.52 52.74-117.36 82.61-187.83 102.88-13.31 3.83-19.11 1.94-23.33-10.54-46.76-138.2-141.15-233.36-270.79-294.92-25.94-12.32-37.37-26-33.29-54.94 2.92-20.79 0.56-42.32 0.56-67 9.77 3.62 18.27 6.7 26.72 9.9 53.81 20.36 120.34-24.79 121.25-82.58 0.21-13.62-6.15-24.34-20-27.22-12.66-2.62-24.12-0.3-29.88 14.27-4.48 11.33-9.3 22.93-16.25 32.8-14.38 20.43-38.93 22.14-53.35 1.75-15.28-21.6-31.82-44-29-73.44 0.84-8.76 0.27-17.68 0-26.52-0.45-16.67-3.6-33.39 24.39-25.76 14.44 3.94 27.68-4.77 29.07-22.5 1.43-18.21-13.87-28.58-25.82-27.59-33.63 2.77-28.56-20.13-26.06-37.1 13.76-93.25 52.35-174.73 119.89-241.56 5.46-5.4 10.73-11.22 19.69-12.19 4.18 104.89 36 198.17 111.94 273.6 50 49.66 112.66 73.64 178.94 90.88 48.73 12.66 98.16 14.87 148.2 11.33 13.84-1 29.52 3 41.72 0.33 34.05-7.33 33.18 11 31.12 33.9-1.14 12.7 1.56 25.17 10.3 34.68 13.48 14.66 35 11.11 43.35-7.36 4.61-10.23 8.23-21.54 9.28-32.65 3.76-39.65 26.69-62.8 63.22-71.94 41.67-10.42 77.1 4.13 103 37.1 62.44 79.57 23.44 227.43-94 250-56.49 10.87-56.44 10.89-67.8 69.23-1 5.16-3.13 10.1-4.73 15.13-32.24 0.4-47.66 30.08-73.24 42.07-10.15-3.33-15.24 8.57-23.66 8.39-29.06-0.61-37.55 16.33-37.25 41.56l-0.85 0.61c-19.36-3.16-61.43 22-67.23 40.44-0.45 1.38 1.07 3.31 1.72 4.96zm-47.51-393.08c1.21-15.29-6.45-25.15-22.53-28.77-15.23-3.42-22.75 4.67-27.18 17.82-1.67 5-3.3 10.12-6.07 14.49-8.42 13.29-16.45 27.1-35.27 27.69-19.47 0.6-27.24-13.24-34.86-27.23a145.17 145.17 0 0 1-8.11-19.07c-6.11-16.45-19.08-20-33.95-16.32-15.19 3.78-16.71 17.71-14.73 29.71 2.26 13.6 7.12 27.09 12.88 39.7 15.89 34.79 58 52.56 99.75 43.14 36.1-8.15 69.38-46.11 70.07-81.16zm314.56 17.41c20.58 1.28 40.17-1.13 45.74-24.93 4-17.3-5.69-30.84-21.09-38.09-19.6-9.22-39.29-6-57.37 5.21-10.11 6.28-17.82 15.63-15.93 28.12 2.12 14 11.63 23.57 25.13 27.48 7.43 2.16 15.65 1.57 23.52 2.21zm-676.09 142.13c-0.66 22 16.46 39.66 33 39.8 15.71 0.14 37.47-19 34.77-33.41-3-16.19-12.18-28.93-31.9-28.89s-34.48 5.35-35.87 22.5z"/> <path class="cls-4" transform="translate(-261.61 -202)" d="m2549.9 1992.2c-3.1-10.59-12.79-10.62-21-13.22-60.48-19.23-120.88-38.69-181.43-57.68-16.56-5.2-29.56-11.88-26.2-32.88 3-18.92 13.77-23.4 32.34-26.62 103.65-18 198.76-54.64 271.13-135.69 29.66-33.21 52.52-70.76 69.69-111.83 7.77-18.6 4.32-36.27-3.8-53.67 5.5-3.18 15.16-7 8.47-13.72-7-7.1-13.21 0.91-17.08 7.91l-16.08-3.18c-5.4-7-8.09-17.65 0.89-19.59 18.27-4 28.42-21.33 47.58-23.82 18.06-2.35 22.94-12.19 19.42-28.37q1.08-5.1 2.18-10.22 7-5.22 0.19-10.7-1.87-10.4-3.74-20.8c13.21-16.57 9.66-35.2 6.66-53.77l2-10.23 3.89-6.67c5.7-17.28 16.58-31.33 30.67-41.9 12.92-9.69 10.59-16.09-1-23.35-8.39-5.23-15.61-11.64-19.58-20.89-31.78-74-85.68-123.34-163-146.62 0.49-13.52 15-11.59 21-19l10.73-0.73c8 7.75 17.73 3.86 26.85 4.2 17 2.15 34.62-3.59 51.3 3.56l1.74 6.59 6.79 4.81a5.32 5.32 0 0 1 3.44 1.33c-1.08 12.11 4.53 21.47 15.14 25.32 20.84 7.57 31.46 27 48.26 39.31 8.34 6.09 13.69 15.92 25.9 15.13a7.76 7.76 0 0 1 1.9 3.6c-3.51 25.09 8.88 32.07 31.37 27.55 1.57 0.33 3.12 0.75 4.64 1.23-2.27 18.5 23.89 21.9 21.49 40.47-13.43 3.66-15.76 13.32-14.25 25.51 3.55 28.67 29.21 46 64.26 41.48 10.48-1.35 15.09-0.42 19.35 10.57 15.9 41.05 3.91 100.76-28.17 128.74-18.9 16.48-39 26.93-64.36 10.88-13.76-8.69-28.61-4.77-37.33 8.16-9.5 14.09-6.24 29.15 7.29 39.91 7.43 5.91 16.11 11.83 25.12 13.92 52.2 12.06 108.86-15.92 134.57-64.51 8.9-16.82 11.62-35.69 18.17-53.51l35 14.26c5.26 8.59 13.91 5.7 21.43 6.12 36.64 2 68.15-15.39 101.18-27 8.21 14.61 16.34 29.25 15.85 46.8l3.48 6.76 0.36 5.5c-5.82 10.89-10.78 21.55 6.95 26.19v8.69l3.29 7.44c0.19 7.06 5.05 13.73 1.8 21.09-10.52 10.43 0.8 18 3.53 26.67q0.06 8 0.11 16c-8.24 12.8-3.69 26.63-3.2 40.13-0.55 2.54-1.1 5.09-1.66 7.63-13.9 11.63-12.88 26.79-10 42.39-5.75 30.73-21.78 55.14-45.88 74.56-14.5 11.69-23.9 26.11-10.83 43s30.59 13.44 47.51 3.84c40.22-22.83 80.83-18.7 111.48 9.71 10.37 9.62 11.7 16.24-0.44 24.81-89.35 63.11-178.38 126.49-288.5 150-79.44 16.94-159 15.58-238.69 4.15-49.4-7.09-98.47-16.48-147.84-23.72-14.41-2.15-29.98-3.73-42.33 7.97z"/> <path class="cls-2" transform="translate(-261.61 -202)" d="m1553 4234.9h-202.12c-251.9-0.15-503.85 2.29-755.68-2-76.52-1.32-154.1-19.72-215.09-72.72-48.27-41.95-69.6-96.11-52.81-160.79 17.24-66.44 62.87-103.12 127.22-120.16 53-14 104.84-2.25 156.7 6.09 82.25 13.24 164.17 28.52 246.47 41.41 15.36 2.4 18 8.1 14 20.29-20.93 64.13-20.07 129.94-15.41 196a80.81 80.81 0 0 0 5.52 22.92c5 13 12.23 24.42 29 20.72 17.32-3.82 25.53-16.46 23.92-32.9-2.68-27.22-5.56-54.28-5.53-81.74 0.05-40.78 8.77-79.68 19.79-118.62 3.65-12.9 8.76-15 20-13.36 93.23 13.35 186.21 31.23 280.55 31.56 43.54 0.15 67.51 16.15 93.73 50.91 61.06 81 130 156 223.27 202.86 1.4 0.62 2.02 2.76 6.47 9.53z"/> <path class="cls-4" transform="translate(-261.61 -202)" d="m2807.8 3672.8c21.9-143.07-1.18-279.66-65.15-408.35-62.72-126.19-151-229.4-283-288.65-6.08-2.73-10.26-6.66-10.62-13.69 139 16.3 278.46 27.53 418.09 37.2 82.79 5.73 165.13 9.5 247.28-5.67 11.45-2.11 17.38-0.53 19.35 15.26 13.36 107.4-4.2 212-25 316.51-20 100.36-51.21 196.67-99.31 287.39-15 28.31-34.06 53.86-53.85 78.23-19.19 23.64-52.41 23.69-79.62 33.68-2.31 0.85-7.15-1.41-9-3.69-16.37-20.27-41.19-30.01-59.17-48.22z"/> <path class="cls-5" transform="translate(-261.61 -202)" d="m4015.5 2436.1c-7.5 49.31-14.05 98.78-22.7 147.89-16.85 95.74-34.79 191.29-52.45 286.88-5.09 27.56-11.81 54.85-15.74 82.56-2 13.86-8.4 17-20.65 18.13q-107.57 9.54-215.27 17.06c-88.16 6-176 17.47-264.1 23.78q-76.11 5.45-152.09 12c-10.53 0.9-21.23-0.31-31.76 0.55-14.57 1.19-31.84 12-42.79 2.93s-2.41-29.34-8.51-42.84c-5.19-11.47 0.67-14.23 8.34-17.3 64.74-26 115-71.47 162.18-120.83 74.63-78.14 149.17-156.38 222.37-235.85 17.54-19 35.17-38.18 52.09-57.82 9-10.5 15-10.2 23.79 0.34 33.94 40.65 80.81 59.4 130.83 61 62.1 2 115.37-23.32 154.82-74 25.69-32.98 46.32-69.09 71.64-104.48z"/> <path class="cls-4" transform="translate(-261.61 -202)" d="m3611.6 1330.3c5.18 24.53 9.14 49.39 15.79 73.51 13.86 50.28 32.55 98.32 70.86 136.08 6 5.92 10.75 13.12 18.36 22.57-42.43 4.47-81.61 7.25-120.36 13-96.54 14.2-175.08 58.84-230.6 140.75-1.48 2.18-3.59 3.92-5.09 6.09-14 20.23-23.8 47.71-43 58.79-19.77 11.39-36.55-19.6-58.34-25.53-13.92-3.79-39 1.86-39.86-16.3-0.92-19.42 24.71-12.48 37.88-18.43 59.3-26.83 81.8-74.86 83.18-136.25 0.95-42.4-0.93-84.62-11.17-126.06l0.11-0.92 10.69-5.21c54.36-5.16 103-27 150.09-52.64 40.92-22.33 80.99-46.26 121.46-69.45z"/> <path class="cls-4" transform="translate(-261.61 -202)" d="m2263.6 1268.1c-33.13 17.38-60.83 41.25-80.2 73.17-12.19 20.09-27.44 35.9-47.25 47.85-35.68-95.07-67.15-191.4-87.15-291.16-1.32-6.59-6.6-14.89 0.73-19.42s14.75 0.63 21.66 5.43c73.73 51.32 134.85 115.75 192.21 184.13z"/> <path class="cls-4" transform="translate(-261.61 -202)" d="m3228.4 1998.9a12 12 0 0 1-4.85 1.49l-5.48 4.36q-6.8 3.93-13.62 7.84c-13.27-2-25.35-1.74-28.15 15.41q-3.23 2-6.44 4c-4.38-0.14-7.89 1.34-10.06 5.35l-20.22 9.69c-7.16-13.25-8.68-24 8.73-31.38 7.58-3.23 16.09-8.08 21.64-13.51 12.06-11.83 34.8-12 37.54-33.77h-0.06l5.41-4.58c57.6-39.74 112.15-84.26 175.7-114.72 19.45-9.32 41-13.29 62.5-7.22 40 11.28 52.88 38.66 39 79.07-9.65 28.07-31.58 45.51-52.46 64.08-14.58 1.09-20.24-8.35-27.64-19.28-10.86-16-23.14-34.75-48.44-23.91l-10.75-0.42c-8.21-8.11-18.62-6-27.31-3.31-20.87 6.48-40.66 17-61.82 21.89-22.27 5.19-30.36 18.98-33.22 38.92z"/> <path class="cls-4" transform="translate(-261.61 -202)" d="m1195.2 2821.9c5.86 34.75-11.74 65.6-16.88 98.54-1.9 12.16-3.93 23.92-2.78 36.14-10.73 13.71-17.65 28.2-9.38 45.79-8.06 58.51-16.85 117.37-11.93 176.29 3.33 39.92-13 61.22-47.8 73.47-8.14-137.16-2-273.22 31.4-407.16 3.47-13.92 6.9-28.16 27-19.4 10.67 4.62 19.94-4.9 30.37-3.67z"/> <path class="cls-2" transform="translate(-261.61 -202)" d="m3611.6 1330.3c-40.47 23.19-80.54 47.12-121.5 69.4-47.08 25.59-95.73 47.48-150.09 52.64 7.94-19.79 28.74-23.94 43.9-33.92a1072.4 1072.4 0 0 0 144.14-113.73c31.39-29.4 31.94-36.51 3.22-68.1l5.57-11c25.58-12 41-41.67 73.24-42.07q0.75 73.39 1.52 146.78z"/> <path class="cls-2" transform="translate(-261.61 -202)" d="m2703.7 1129.3-1.74-6.59c31.21-11.71 61.22 1.24 89.87 8.34 108.2 26.84 202.85 77.58 271.9 168.55-30.72 2.44-55.46-12.09-79.68-28.08-5.05-31.12-48.67-69.6-83.2-72.74-30.5-2.77-55.8 6.9-50.18 47.54l-9.53 1.27a45.94 45.94 0 0 0-4.64-1.24l-31.37-27.55a7.76 7.76 0 0 0-1.9-3.6c-21.59-35.74-50.43-63.36-89.3-79.76a5.32 5.32 0 0 0-3.45-1.33c-2.27-1.6-4.52-3.2-6.78-4.81z"/> <path class="cls-6" transform="translate(-261.61 -202)" d="m3207.5 1968.4c-2.74 21.8-25.48 21.94-37.54 33.77-5.55 5.43-14.06 10.28-21.64 13.51-17.41 7.41-15.89 18.13-8.73 31.38-114.53 64.72-233.23 75.42-356.44 27.49 27.29-5.53 54.57 1 82 0 118.22-4.49 228.11-35.45 328.17-99.43 4.33-2.81 9.42-4.5 14.18-6.72z"/> <path class="cls-6" transform="translate(-261.61 -202)" d="m1684 1975.9c1 36.35-15.69 67-41.07 88.75-49.9 42.67-88.49 95.39-134.41 141.38-7.26 7.27-12.58 17.5-24.83 18-21.43-22.44-8.52-41.59 6.69-59.43 52-61 105-121.18 166.66-173 8.02-6.75 15.96-13.93 26.96-15.7z"/> <path class="cls-4" transform="translate(-261.61 -202)" d="m2984 1271.5c24.22 16 49 30.52 79.68 28.08 16.68 17.79 35.59 33.94 43.07 58.52-8.15 0.93-18.79-3.57-21.25 9.76-14 0.64-19.1 10.64-22.76 21.84-6.59 20.16-19.44 21.09-36.74 13.64-49.19-21.19-66.74-75.57-42-131.84z"/> <path class="cls-4" transform="translate(-261.61 -202)" d="m1210.8 2674.9c-13.74-0.55-24.61-9.36-37.25-12.82-15.87-4.34-34-12.45-43.73 8.34-9.11 19.41 5.48 30.94 19.23 40.86 9.25 6.68 19.57 11.86 29.33 17.85 10.8 6.62 18.25 15.49 10.66 28.18-7.1 11.85-18.72 15.94-32.09 10.93-29.4-11-57.66-66.8-48.6-97.75 7.37-25.19 14.23-61.58 36.89-65.84 29.44-5.54 61.63 13.44 90.89 26.92 7.68 3.55 11.59 11.55 7.39 20.22-6.54 13.51-17.48 21.45-32.72 23.11z"/> <path class="cls-6" transform="translate(-261.61 -202)" d="m3531.4 270.69c95.88 11.65 170.45 50.62 233 113.61 8.73 8.8 14.73 18.63 4.56 29.43-11.24 11.94-21.67 6.07-31.43-3.6q-80-79.31-188.68-109.42c-5.79-1.6-11.08-4.94-16.65-7.36-6.55-2.84-14.32-5.52-11.22-14.68a11.49 11.49 0 0 1 10.42-7.98z"/> <path class="cls-5" transform="translate(-261.61 -202)" d="m3566.5 1645.5c-35.83 42.27-71 83.87-97.68 131.91-2 3.5-7.41 8.68-9.44 8-23.44-8.22-46.32 4.59-72 2.11 44.2-69.54 97.08-124.18 179.12-142.02z"/> <path class="cls-4" transform="translate(-261.61 -202)" d="m1264.6 2366.8c15.64 1.73 35.82 3.17 55.72 6.38 23.25 3.75 36 20.74 31.66 39.81-5.83 25.41-21.26 36.55-45.68 31.15-29.69-6.57-59.63-12.09-88.46-22.46-10.58-3.8-12.11-7-5.67-15.67 12.78-17.23 16.78-44.73 52.43-39.21z"/> <path class="cls-4" transform="translate(-261.61 -202)" d="m1251.4 2570.4c-29.17-8.87-59.85-15-87.93-29.28-8.65-4.39-8.91-9.78-6-19.19 11.26-36.2 17.17-40.56 55-33 16.22 3.21 32.9 5.86 48.1 11.93 16.63 6.65 26.86 21.05 23.55 39.58-2.89 16.36-13.06 28.35-32.72 29.96z"/> <path class="cls-6" transform="translate(-261.61 -202)" d="m1212 3709.4c28.2-3.37 45.94 8.1 56.49 35.1 12 30.82 25.56 61.16 45.72 88.09 9.08 12.13 10.4 25.53-2.14 37.59-5 4.75-10.24 9.78-10.25 17.63-39.52-54.67-69.95-113.84-89.82-178.41z"/> <path class="cls-2" transform="translate(-261.61 -202)" d="m1332.9 2584.9c34.88 31.21 80.41 42.89 120.06 65.36 14.5 8.21 29.31 15.88 44 23.79-60.71-7.14-120.24-20.23-179.54-34.56-18.63-4.5-20.35-14.06-8.57-27.7 7.83-9.11 16.01-17.94 24.05-26.89z"/> <path class="cls-4" transform="translate(-261.61 -202)" d="m2621.3 1058-112.06 8.53c10.42-29.68 16.6-58.78 30-85.62 5.94-11.91 11-13.15 21-2.86 22.69 23.43 40.76 50 61.06 79.95z"/> <path class="cls-6" transform="translate(-261.61 -202)" d="m1281.6 2306c36.21-34.51 72.38-60.34 122.09-56.72 7.29 0.53 17.47-4 20.91 6s-2.06 19.58-9.11 26c-28.87 26.5-64 35.28-101.9 30.27-9.22-1.17-19.05-1.77-31.99-5.55z"/> <path class="cls-6" transform="translate(-261.61 -202)" d="m3085.5 1367.8c2.46-13.33 13.1-8.83 21.25-9.76 18.57 25.49 29.86 54.26 38.07 84.42-33 11.65-64.55 29.07-101.19 27-7.52-0.42-16.17 2.47-21.43-6.12 21.73 2.82 42.26-1.11 60.92-12.44 34.7-21.03 35.62-58.75 2.38-83.1zm29.79 61.71c-0.75 1.58-2.31 3.56-2.49 5.66-0.21 2.35 0.86 5.45 4.19 3.6a8.57 8.57 0 0 0 3.7-5.59c0.4-2.69-1.47-4.46-5.4-3.67z"/> <path class="cls-6" transform="translate(-261.61 -202)" d="m3361.5 1941.9c25.3-10.84 37.58 7.88 48.44 23.91 7.4 10.93 13.06 20.37 27.64 19.28-3.45 15.51-20 18.25-28.29 29-1.32-33.73-16.64-58.2-47.79-72.19z"/> <path class="cls-6" transform="translate(-261.61 -202)" d="m3409.6 1321.5c-0.63-1.65-2.17-3.58-1.76-4.9 5.8-18.44 47.87-43.6 67.23-40.44-21.45 15.65-37.18 39.56-65.47 45.34z"/> <path class="cls-6" transform="translate(-261.61 -202)" d="m3536.9 1225.6-5.57 11c-23.52 5.76-37.56 25-55.34 38.94-0.3-25.23 8.19-42.17 37.25-41.56 8.42 0.19 13.51-11.71 23.66-8.38z"/> <path class="cls-6" transform="translate(-261.61 -202)" d="m2613 1115.6c-6 7.46-20.5 5.53-21 19-15.22-0.83-30-3.56-43.83-10.26 20.67-10.14 43.24-5.97 64.83-8.74z"/> <path class="cls-6" transform="translate(-261.61 -202)" d="m3165.4 1697.8c-2.86-15.6-3.88-30.76 10-42.39 2.32 15.46-2.95 29.14-10 42.39z"/> <path class="cls-6" transform="translate(-261.61 -202)" d="m3171.5 1527.8c-17.73-4.64-12.77-15.3-6.95-26.19 7.33 7.43 6.06 17.08 6.95 26.19z"/> <path class="cls-6" transform="translate(-261.61 -202)" d="m3180.1 1591.6c-2.73-8.68-14-16.24-3.53-26.67 6.84 8.14 4.8 17.46 3.53 26.67z"/> <path class="cls-6" transform="translate(-261.61 -202)" d="m3177 1647.8c-0.49-13.5-5-27.33 3.2-40.13 0.59 13.5 4.08 27.25-3.2 40.13z"/> <path class="cls-6" transform="translate(-261.61 -202)" d="m2650.6 1119.1c-9.12-0.34-18.89 3.55-26.85-4.2 9.08 0.59 19.04-4.47 26.85 4.2z"/> <path class="cls-2" transform="translate(-261.61 -202)" d="m3329.2 1458.5-3.23-2.22c0.58-0.5 1.12-1.37 1.76-1.45 2.43-0.3 3 0.74 1.59 2.76-0.01-0.01-0.12 0.91-0.12 0.91z"/> <path class="cls-6" transform="translate(-261.61 -202)" d="m3164.2 1496.1-3.48-6.76c3.17 1.23 4.59 3.35 3.48 6.76z"/> <path class="cls-6" transform="translate(-261.61 -202)" d="m3174.8 1543.9-3.29-7.44c3.15 1.55 4.34 4.01 3.29 7.44z"/> <path class="cls-6" transform="translate(-261.61 -202)" d="m3212.9 1963.9-5.41 4.58z"/> <path class="cls-1" transform="translate(-261.61 -202)" d="m1166.2 3002.4c-8.27-17.59-1.35-32.08 9.38-45.79 13.53-1.65 25.71 1.81 38.06 7.64 50.67 24 103.53 41.94 157.85 55.71a89.6 89.6 0 0 1 17.3 6.19c13 6.35 22 16.62 18.22 31.46-4 15.62-16.2 22.5-32.32 20-38.07-5.81-74.13-19-110.62-30.63-34.43-10.94-66.68-26.57-97.87-44.58z"/> <path class="cls-1" transform="translate(-261.61 -202)" d="m3249.6 3353.9c18.72-0.07 41.63 16.94 41.69 30.95 0.1 24.87-21.43 48.51-43.66 47.93-18.35-0.47-38.81-19.56-39.4-36.76-0.81-23.47 17.42-41.98 41.37-42.12z"/> <path class="cls-1" transform="translate(-261.61 -202)" d="m2655 1351.8c-0.35 28.41-21.07 49.31-48.1 48.53-30.3-0.88-59.45-33.73-59.2-66.7 0.21-26.34 18.84-46.72 43.16-47.22 31.74-0.64 64.53 32.78 64.14 65.39z"/> <path class="cls-6" transform="translate(-261.61 -202)" d="m3228.4 1998.9c2.86-20 10.95-33.73 33.21-38.87 21.16-4.89 40.95-15.41 61.82-21.89 8.69-2.69 19.1-4.8 27.31 3.31-46.04 7.94-80.52 40.51-122.34 57.45z"/> <path class="cls-6" transform="translate(-261.61 -202)" d="m2733.8 1479.8c3.52 16.18-1.36 26-19.42 28.37-19.16 2.49-29.31 19.87-47.58 23.82-9 1.94-6.29 12.61-0.89 19.59-12.17 5.34-25.17 3.12-29.38-8.24-4.91-13.23 10.41-16.81 19.1-20.48 27.63-11.66 54.67-24.03 78.17-43.06z"/> <path class="cls-6" transform="translate(-261.61 -202)" d="m2739.1 1384.4c3 18.57 6.55 37.2-6.66 53.77-5.65-18.9-3.98-36.89 6.66-53.77z"/> <path class="cls-6" transform="translate(-261.61 -202)" d="m2682 1554.8c3.87-7 10-15 17.08-7.91 6.69 6.76-3 10.54-8.47 13.72-4.05-0.14-7.17-1.7-8.61-5.81z"/> <path class="cls-6" transform="translate(-261.61 -202)" d="m3176.3 2028c2.8-17.15 14.88-17.36 28.15-15.41-6.79 9.91-17.8 12.08-28.15 15.41z"/> <path class="cls-6" transform="translate(-261.61 -202)" d="m2736.2 1458.9q6.78 5.47-0.19 10.7c0.07-3.57 0.13-7.13 0.19-10.7z"/> <path class="cls-6" transform="translate(-261.61 -202)" d="m3159.8 2037.4c2.17-4 5.68-5.49 10.06-5.35-2.34 3.69-5.47 5.9-10.06 5.35z"/> <path class="cls-6" transform="translate(-261.61 -202)" d="m3218.1 2004.8 5.48-4.36z"/> <path class="cls-6" transform="translate(-261.61 -202)" d="m2745 1367.5-3.89 6.67z"/> <path class="cls-1" transform="translate(-261.61 -202)" d="m3362.1 928.39c-0.69 35.05-34 73-70.07 81.16-41.71 9.42-83.86-8.35-99.75-43.14-5.76-12.61-10.62-26.1-12.88-39.7-2-12-0.46-25.93 14.73-29.71 14.87-3.71 27.84-0.13 33.95 16.32a145.17 145.17 0 0 0 8.11 19.07c7.62 14 15.39 27.83 34.86 27.23 18.82-0.59 26.85-14.4 35.27-27.69 2.77-4.37 4.4-9.53 6.07-14.49 4.43-13.15 12-21.24 27.18-17.82 16.08 3.62 23.74 13.48 22.53 28.77z"/> <path class="cls-1" transform="translate(-261.61 -202)" d="m3676.7 945.8c-7.87-0.64-16.09 0-23.52-2.21-13.5-3.91-23-13.51-25.13-27.48-1.89-12.49 5.82-21.84 15.93-28.12 18.08-11.23 37.77-14.43 57.37-5.21 15.4 7.25 25.14 20.79 21.09 38.09-5.57 23.8-25.16 26.21-45.74 24.93z"/> <path class="cls-1" transform="translate(-261.61 -202)" d="m3000.6 1087.9c1.35-17.15 16.22-22.46 35.83-22.5s28.87 12.7 31.9 28.89c2.7 14.4-19.06 33.55-34.77 33.41-16.5-0.14-33.57-17.79-32.96-39.8z"/> <path class="cls-1" transform="translate(-261.61 -202)" d="m3085.5 1367.8c33.24 24.35 32.32 62.07-2.38 83.14-18.66 11.33-39.19 15.26-60.92 12.44l-35-14.26c-6.55 17.82-9.27 36.69-18.17 53.51-25.71 48.59-82.37 76.57-134.57 64.51-9-2.09-17.69-8-25.12-13.92-13.53-10.76-16.79-25.82-7.29-39.91 8.72-12.93 23.57-16.85 37.33-8.16 25.4 16 45.46 5.6 64.36-10.88 32.08-28 44.07-87.69 28.17-128.74-4.26-11-8.87-11.92-19.35-10.57-35 4.52-60.71-12.81-64.26-41.48-1.51-12.19 0.82-21.85 14.25-25.51 10.27-4.1 20.8-7.68 30.72-12.52 5.61-2.74 17.06-0.77 15.2-10.62-1.73-9.17-12.25-8.58-19.79-8.74-13.6-0.28-28.27 4.73-38.09-9.85-5.62-40.64 19.68-50.31 50.18-47.54 34.53 3.14 78.15 41.62 83.2 72.74-24.75 56.27-7.2 110.65 42 131.84 17.3 7.45 30.15 6.52 36.74-13.64 3.69-11.2 8.84-21.2 22.79-21.84z"/> <path class="cls-6" transform="translate(-261.61 -202)" d="m2713.9 1135.4c38.87 16.4 67.71 44 89.3 79.76-12.21 0.79-17.56-9-25.9-15.13-16.8-12.28-27.42-31.74-48.26-39.31-10.61-3.85-16.22-13.21-15.14-25.32z"/> <path class="cls-6" transform="translate(-261.61 -202)" d="m2850.6 1246.3c9.82 14.58 24.49 9.57 38.09 9.85 7.54 0.16 18.06-0.43 19.79 8.74 1.86 9.85-9.59 7.88-15.2 10.62-9.92 4.84-20.45 8.42-30.72 12.52 2.4-18.57-23.76-22-21.49-40.47 3.18-0.41 6.36-0.84 9.53-1.26z"/> <path class="cls-6" transform="translate(-261.61 -202)" d="m2805.1 1218.8 31.37 27.55c-22.46 4.52-34.88-2.46-31.37-27.55z"/> <path class="cls-6" transform="translate(-261.61 -202)" d="m2703.7 1129.3c2.26 1.61 4.51 3.21 6.78 4.81-2.25-1.6-4.51-3.21-6.78-4.81z"/> <path class="cls-4" transform="translate(-261.61 -202)" d="m3115.3 1429.6c3.93-0.79 5.8 1 5.4 3.67a8.57 8.57 0 0 1-3.7 5.59c-3.33 1.85-4.4-1.25-4.19-3.6 0.19-2.1 1.74-4.08 2.49-5.66z"/> </svg>